<mxfile host="65bd71144e">
    <diagram id="HIP3nbAZw_EuaXWnEj3U" name="Page-1">
        <mxGraphModel dx="1306" dy="613" grid="1" gridSize="10" guides="1" tooltips="1" connect="1" arrows="1" fold="1" page="1" pageScale="1" pageWidth="850" pageHeight="1100" math="0" shadow="0">
            <root>
                <mxCell id="0"/>
                <mxCell id="1" parent="0"/>
                <mxCell id="7" value="http://ics2o.mths.ca" style="swimlane;whiteSpace=wrap;html=1;" parent="1" vertex="1">
                    <mxGeometry x="30" y="30" width="770" height="480" as="geometry"/>
                </mxCell>
                <mxCell id="8" value="Multiplication, in JS&amp;nbsp;" style="text;strokeColor=none;align=center;fillColor=none;html=1;verticalAlign=middle;whiteSpace=wrap;rounded=0;fontSize=18;" vertex="1" parent="7">
                    <mxGeometry x="290" y="40" width="190" height="30" as="geometry"/>
                </mxCell>
                <mxCell id="10" value="&lt;font&gt;Enter two numbers to multiply.&lt;/font&gt;" style="text;strokeColor=none;align=center;fillColor=none;html=1;verticalAlign=middle;whiteSpace=wrap;rounded=0;fontSize=13;" vertex="1" parent="7">
                    <mxGeometry x="-15" y="70" width="250" height="30" as="geometry"/>
                </mxCell>
                <mxCell id="11" value="Your first number here.." style="rounded=1;whiteSpace=wrap;html=1;" vertex="1" parent="7">
                    <mxGeometry x="25" y="110" width="160" height="30" as="geometry"/>
                </mxCell>
                <mxCell id="16" value="Your second number here.." style="rounded=1;whiteSpace=wrap;html=1;" vertex="1" parent="7">
                    <mxGeometry x="195" y="110" width="160" height="30" as="geometry"/>
                </mxCell>
                <mxCell id="17" value="&lt;font style=&quot;font-size: 15px;&quot;&gt;CALCULATE&lt;/font&gt;" style="rounded=1;whiteSpace=wrap;html=1;" vertex="1" parent="7">
                    <mxGeometry x="25" y="170" width="100" height="40" as="geometry"/>
                </mxCell>
                <mxCell id="19" value="" style="shape=image;verticalLabelPosition=bottom;labelBackgroundColor=default;verticalAlign=top;aspect=fixed;imageAspect=0;image=data:image/jpeg,/9j/4AAQSkZJRgABAQEASABIAAD/7V8wUGhvdG9zaG9wIDMuMAA4QklNBAQAAAAAAAccAgAAAgAAADhCSU0EJQAAAAAAEOjxXPMvwRihontnrcVk1bo4QklNBDoAAAAAAOUAAAAQAAAAAQAAAAAAC3ByaW50T3V0cHV0AAAABQAAAABQc3RTYm9vbAEAAAAASW50ZWVudW0AAAAASW50ZQAAAABJbWcgAAAAD3ByaW50U2l4dGVlbkJpdGJvb2wAAAAAC3ByaW50ZXJOYW1lVEVYVAAAAAEAAAAAAA9wcmludFByb29mU2V0dXBPYmpjAAAADABQAHIAbwBvAGYAIABTAGUAdAB1AHAAAAAAAApwcm9vZlNldHVwAAAAAQAAAABCbHRuZW51bQAAAAxidWlsdGluUHJvb2YAAAAJcHJvb2ZDTVlLADhCSU0EOwAAAAACLQAAABAAAAABAAAAAAAScHJpbnRPdXRwdXRPcHRpb25zAAAAFwAAAABDcHRuYm9vbAAAAAAAQ2xicmJvb2wAAAAAAFJnc01ib29sAAAAAABDcm5DYm9vbAAAAAAAQ250Q2Jvb2wAAAAAAExibHNib29sAAAAAABOZ3R2Ym9vbAAAAAAARW1sRGJvb2wAAAAAAEludHJib29sAAAAAABCY2tnT2JqYwAAAAEAAAAAAABSR0JDAAAAAwAAAABSZCAgZG91YkBv4AAAAAAAAAAAAEdybiBkb3ViQG/gAAAAAAAAAAAAQmwgIGRvdWJAb+AAAAAAAAAAAABCcmRUVW50RiNSbHQAAAAAAAAAAAAAAABCbGQgVW50RiNSbHQAAAAAAAAAAAAAAABSc2x0VW50RiNQeGxAcsAAAAAAAAAAAAp2ZWN0b3JEYXRhYm9vbAEAAAAAUGdQc2VudW0AAAAAUGdQcwAAAABQZ1BDAAAAAExlZnRVbnRGI1JsdAAAAAAAAAAAAAAAAFRvcCBVbnRGI1JsdAAAAAAAAAAAAAAAAFNjbCBVbnRGI1ByY0BZAAAAAAAAAAAAEGNyb3BXaGVuUHJpbnRpbmdib29sAAAAAA5jcm9wUmVjdEJvdHRvbWxvbmcAAAAAAAAADGNyb3BSZWN0TGVmdGxvbmcAAAAAAAAADWNyb3BSZWN0UmlnaHRsb25nAAAAAAAAAAtjcm9wUmVjdFRvcGxvbmcAAAAAADhCSU0D7QAAAAAAEAEsAAAAAQABASwAAAABAAE4QklNBCYAAAAAAA4AAAAAAAAAAAAAP4AAADhCSU0EDQAAAAAABAAAAFo4QklNBBkAAAAAAAQAAAAeOEJJTQPzAAAAAAAJAAAAAAAAAAABADhCSU0nEAAAAAAACgABAAAAAAAAAAE4QklNA/UAAAAAAEgAL2ZmAAEAbGZmAAYAAAAAAAEAL2ZmAAEAoZmaAAYAAAAAAAEAMgAAAAEAWgAAAAYAAAAAAAEANQAAAAEALQAAAAYAAAAAAAE4QklNA/gAAAAAAHAAAP////////////////////////////8D6AAAAAD/////////////////////////////A+gAAAAA/////////////////////////////wPoAAAAAP////////////////////////////8D6AAAOEJJTQQAAAAAAAACAJU4QklNBAIAAAAAAS4AAAAAAAAAAAAAAAAAAAAAAAAAAAAAAAAAAAAAAAAAAAAAAAAAAAAAAAAAAAAAAAAAAAAAAAAAAAAAAAAAAAAAAAAAAAAAAAAAAAAAAAAAAAAAAAAAAAAAAAAAAAAAAAAAAAAAAAAAAAAAAAAAAAAAAAAAAAAAAAAAAAAAAAAAAAAAAAAAAAAAAAAAAAAAAAAAAAAAAAAAAAAAAAAAAAAAAAAAAAAAAAAAAAAAAAAAAAAAAAAAAAAAAAAAAAAAAAAAAAAAAAAAAAAAAAAAAAAAAAAAAAAAAAAAAAAAAAAAAAAAAAAAAAAAAAAAAAAAAAAAAAAAAAAAAAAAAAAAAAAAAAAAAAAAAAAAAAAAAAAAAAAAAAAAAAAAAAAAAAAAAAAAAAAAAAAAAAAAAAAAADhCSU0EMAAAAAAAlwEBAQEBAQEBAQEBAQEBAQEBAQEBAQEBAQEBAQEBAQEBAQEBAQEBAQEBAQEBAQEBAQEBAQEBAQEBAQEBAQEBAQEBAQEBAQEBAQEBAQEBAQEBAQEBAQEBAQEBAQEBAQEBAQEBAQEBAQEBAQEBAQEBAQEBAQEBAQEBAQEBAQEBAQEBAQEBAQEBAQEBAQEBAQEBAQEBAQEBAQEAOEJJTQQtAAAAAAJOAJMAAAAOAAAAEAAAABEAAAASAAAAEwAAABQAAAAVAAAAFgAAABcAAAAYAAAAGQAAABsAAAAcAAAAHQAAAB4AAAAfAAAAIAAAACEAAAAiAAAAIwAAACQAAAAmAAAAJwAAACgAAAApAAAAKgAAACsAAAAsAAAALQAAAC4AAAAvAAAAMQAAADIAAAAzAAAANAAAADUAAAA2AAAANwAAADgAAAA5AAAAOgAAADwAAAA9AAAAPgAAAD8AAABAAAAAQQAAAEIAAABDAAAARAAAAEUAAABHAAAASAAAAEkAAABKAAAASwAAAEwAAABNAAAATgAAAE8AAABQAAAAUgAAAFMAAABUAAAAVQAAAFYAAABXAAAAWAAAAFkAAABaAAAAWwAAAF0AAABeAAAAXwAAAGAAAABhAAAAYgAAAGMAAABkAAAAZQAAAGYAAABoAAAAaQAAAGoAAABrAAAAbAAAAG0AAABuAAAAbwAAAHAAAACJAAAAhwAAAIYAAACFAAAAhAAAAIMAAACCAAAAgQAAAIAAAAB/AAAAlAAAAJUAAACWAAAAlwAAAJgAAACZAAAAmgAAAJsAAACcAAAAnQAAAKcAAACmAAAApQAAAKQAAACjAAAAogAAAKEAAACgAAAAnwAAAJ4AAACzAAAAsgAAALEAAACwAAAArwAAAK4AAACtAAAArAAAAKsAAACqAAAAqQAAAKgAAAC/AAAAvgAAAL0AAAC8AAAAuwAAALoAAAC5AAAAuAAAALcAAAC2AAAAtQAAALQAAABzAAAAigAAAMA4QklNBAgAAAAAAD0AAAABAAACQAAAAkAAAAAJAAAFSAAAAAqnAAAAD4AAAAAUQAAAABjgAAAAHmAAAAAjIAAAACfAAAAAEEAAADhCSU0EHgAAAAAABAAAAAA4QklNBBoAAAAAAzcAAAAGAAAAAAAAAAAAAAHyAAACAgAAAAEAMQAAAAEAAAAAAAAAAAAAAAAAAAAAAAAAAQAAAAAAAAAAAAACAgAAAfIAAAAAAAAAAAAAAAAAAAAAAQAAAAAAAAAAAAAAAAAAAAAAAAAQAAAAAQAAAAAAAG51bGwAAAACAAAABmJvdW5kc09iamMAAAABAAAAAAAAUmN0MQAAAAQAAAAAVG9wIGxvbmcAAAAAAAAAAExlZnRsb25nAAAAAAAAAABCdG9tbG9uZwAAAfIAAAAAUmdodGxvbmcAAAICAAAABnNsaWNlc1ZsTHMAAAABT2JqYwAAAAEAAAAAAAVzbGljZQAAABIAAAAHc2xpY2VJRGxvbmcAAAAAAAAAB2dyb3VwSURsb25nAAAAAAAAAAZvcmlnaW5lbnVtAAAADEVTbGljZU9yaWdpbgAAAA1hdXRvR2VuZXJhdGVkAAAAAFR5cGVlbnVtAAAACkVTbGljZVR5cGUAAAAASW1nIAAAAAZib3VuZHNPYmpjAAAAAQAAAAAAAFJjdDEAAAAEAAAAAFRvcCBsb25nAAAAAAAAAABMZWZ0bG9uZwAAAAAAAAAAQnRvbWxvbmcAAAHyAAAAAFJnaHRsb25nAAACAgAAAAN1cmxURVhUAAAAAQAAAAAAAG51bGxURVhUAAAAAQAAAAAAAE1zZ2VURVhUAAAAAQAAAAAABmFsdFRhZ1RFWFQAAAABAAAAAAAOY2VsbFRleHRJc0hUTUxib29sAQAAAAhjZWxsVGV4dFRFWFQAAAABAAAAAAAJaG9yekFsaWduZW51bQAAAA9FU2xpY2VIb3J6QWxpZ24AAAAHZGVmYXVsdAAAAAl2ZXJ0QWxpZ25lbnVtAAAAD0VTbGljZVZlcnRBbGlnbgAAAAdkZWZhdWx0AAAAC2JnQ29sb3JUeXBlZW51bQAAABFFU2xpY2VCR0NvbG9yVHlwZQAAAABOb25lAAAACXRvcE91dHNldGxvbmcAAAAAAAAACmxlZnRPdXRzZXRsb25nAAAAAAAAAAxib3R0b21PdXRzZXRsb25nAAAAAAAAAAtyaWdodE91dHNldGxvbmcAAAAAADhCSU0EKAAAAAAADAAAAAI/8AAAAAAAADhCSU0EFAAAAAAABAAAASo4QklNBAwAAAAAFOYAAAABAAAAewAAAHcAAAF0AACs7AAAFMoAGAAB/9j/7QAMQWRvYmVfQ00AAf/uAA5BZG9iZQBkgAAAAAH/2wCEAAwICAgJCAwJCQwRCwoLERUPDAwPFRgTExUTExgRDAwMDAwMEQwMDAwMDAwMDAwMDAwMDAwMDAwMDAwMDAwMDAwBDQsLDQ4NEA4OEBQODg4UFA4ODg4UEQwMDAwMEREMDAwMDAwRDAwMDAwMDAwMDAwMDAwMDAwMDAwMDAwMDAwMDP/AABEIAHcAewMBIgACEQEDEQH/3QAEAAj/xAE/AAABBQEBAQEBAQAAAAAAAAADAAECBAUGBwgJCgsBAAEFAQEBAQEBAAAAAAAAAAEAAgMEBQYHCAkKCxAAAQQBAwIEAgUHBggFAwwzAQACEQMEIRIxBUFRYRMicYEyBhSRobFCIyQVUsFiMzRygtFDByWSU/Dh8WNzNRaisoMmRJNUZEXCo3Q2F9JV4mXys4TD03Xj80YnlKSFtJXE1OT0pbXF1eX1VmZ2hpamtsbW5vY3R1dnd4eXp7fH1+f3EQACAgECBAQDBAUGBwcGBTUBAAIRAyExEgRBUWFxIhMFMoGRFKGxQiPBUtHwMyRi4XKCkkNTFWNzNPElBhaisoMHJjXC0kSTVKMXZEVVNnRl4vKzhMPTdePzRpSkhbSVxNTk9KW1xdXl9VZmdoaWprbG1ub2JzdHV2d3h5ent8f/2gAMAwEAAhEDEQA/APVUkDLy68Sn1rQ4tBAhok6mPJU2dfwnu2tbZOvYdgSfzv5KTJDDkmOKMSR3dNJZY+sWATAbZOkiBInifek76w4LXbS2yZIAgaxzHvSXfdc37hSdU65hdKtx68oP/WiRW5jdwlrq2O3a/msu9f8A4mi9Vz9bOhhzg68hjYi3aSx07o9Is3b/AObs/wBdiK/r+EwgFtmoaeB+cNzfzvNQf1zpm1jrKnbWe5pc1sN2y3dq72bUlfds37hY2fWzoldbHvuIfY7021bSXF+0WFmns9lbt73b/TUq/rP0W1jn1XGwsqdcWhjvosb6j273NFW/Z+b6il+3sEjd6dmp2n2jw/rJ29fwXNc5rbIbqYA8dn737ySvu2b9wo2/WjpG6uu2x1V1zgyuktL3OcW+rtqdjevVd+5vpssr9X9Gnu+s3TaWVW272VXVV3h5AAFdjL8nftc/1H+lViXPuZSy2yv+onr+sHTz7WMfDJEAN02idujvakOvdPe5rPTeTI2gtbpJ2td9JJX3bN+4U2N1rEyc37FWHeqWOtBdtALGmr3hm/1dln2it1dnpen/AG1fWUev4DX6ss3CWg7WzpyG+7yTu+sOC07XNsBMRo3vx+f5pK+7Zv3C6iSzHfWDCa1rnNsAeCRoOxLf3/5Kb/nBg7d+2zbMTA8N376Svu2b9wuokqWF1bFzrTXSHSGlxJAjQhp1a53irqSz2snHwcJ4j+i//9D0TrsHp5kx72a6+PksDFqqZb7CAHGx5gO+k4PLzx+8ug64AcAguDfezUzHP8kOXP4mNXVZDbGHe573cyS5rvCtqTqcl/MHfef/AEUbKaxZ6u73vDWkndEN7NEe36Se2mp9oe5wmt7iz6WhO5vh7vaUzMWltxvFjPUsaxjjL42sLnM9uza36b09uLS+9tzrGb6S/YZfpu0dPs/kpNr7f5f4K+VRTa+s2EE1enYz6QhzWDa7T4pXVVW0it7gWOa4OEO4k+SfKxarn1l9jf0Xp2Njd9IMbt/wajk4VGTSyu17CBLhG7Q+5k/zZ/NekgbDfp0/q/3WYa0VgB40dpo48D4KONRTRj2VVENrAED3GJe0+Cd2NU/GNLrGGs+wj38bdv7ifHx66abWNtYeHEmZl1ge4nbW385JR+u46f1v7rGqqtjnbXAbt7jo7Ulrp7Jq6KRlNvkeqdrCfd9EO3Rtjb9JNjYOPj2PdU9rTaDu1eR7RZt2gs2s2+o76CWPg49WV67HtD7XDfq+DLt/Hp/vJKJ8P5f4qrqKbLQ95BdU9zmH3aHVvglkY2Pba19hBfXtLT7geG+ATXYOO/K+0uez1GO9pl3b1A2f0f8Aw1iWTgUX3stfY0uqDdn0tIAP+i3f9JJX0P8AL/BSZFNNtVLbC1wAJEg8h9nkouppOKaXEGoywtIdG3bs28fuqWViV5FNLH2tAaC4ETzus/eqf9HcmdjVHF9AWsaz6Gk6DaG/nVOb/wBFJXfQ7np4/wB10Pq5SyrMe1hma3OMySSXMklz10S5z6t4tONlPrqcNux7toLiZc9rnfzjf3l0aTTl/uyP93/uJP8A/9H0Tronp51A97Ofiufw6G1Wna4He57zJ7uafowB7V0HXRPTzwPeznTuuew6PSsj1N+91j5e4Ejc1x2t/kN/MSdTkv5g+c/+iwrx2tudeHjdYGNcC7SG8bdPNPdjtfe20vg1OeWw6Ad3tO/RMyjbc671J9RrG7C72jb3aP5W5NZig5Rv9SNpMs3aab2/2f5xJt/xZZuGzJcwPfG1jfokcFjA4e5rvpJsrEZk1MZY4QNx9p8d9fh+7YnzsQZDmD1TWWtZBY+JljPpfvKOXi/aaq2GwMALjLTry4fxSW9Bp2/JI+kWY5qc4EOJaTOv0Y8PpJYuO2jHsra/cAAZc6T7rGv8PNRso34hp3gT7dxIJ+iBP9ZSxaBTRawWb/ztz37ne60WRu/k7trEkn9o/wCkwxMNmOSGvklpDi4jXaLPdtY1jG/T/MTY2EynJ9YPl1jgCC4bdX+p7WNa1rf9fUSw8P7O5x9XfvBkOdoIa/6DfzPpJY2J6WV6vqbt7h7SdBLg47df9f8AriSPp0VZiVuynZBcC4H2iRAje393d/hP3ksnCrvyGWufDqg2A0gA6Nd7vamtxN2Z9o9UgsJGwO9p1d9Nv9tLJwxdkMtNzm+kGwxrxsOjH+5v73t+kkr6JMrGZfTSx7gA0F2hHIfZ+81yX2dv2X0N42/QkkExtDfzm/STZmL9oppYbXVbQXTU8NJ91giYd7fck7HnE9D1CAR6e8PAfG0M3B/+kSUOvmfzdD6sYzMXJdUxxc0VuMududq5nLoXSLm/qzj/AGfKez1DZ+jcZc6XauYV0iTTl/uyP93/ALiT/9L0XrjS7AIEfTZyQBz4uXP4eNZXZBe18uscJe2RuDjt+mforf66CenkDnezw8fNc/g021mpljvVc0ODnkiT7X86pOnyX8wdt5/9FFTh212usNoeHxDHWNIbqXe39J/KUrMSw5RuFoABI9P1G7T9Ptv/AJShjY19TYsebSS2CSOAA3u53ud9Jyc414y7LTYXVuLopJEAyNR7v5KTb7bfy/wmWdhXXuZtuFO1jZ2vbJJYwf6RqWXh2X1VsbaKo3Elr2z+cI3NsZ4psrGyH5NdjLTWxjat1YI98Nbua+XfR/qf9NNlYuRaKTXaadm7dtI92vB94/1/kJLeg26fl/eSWY1j8Y172tLjG8PaCPb9IbXtT4mLZTj2VusFpAHvc9sn3tOvvKhkUXW45ZW80uL5D2kEiB293/VKVVNoxbKy47/Ta31faTO5v6T3E+7+skk/Tcf9L+8xxMO2lzt1ot3BxG57dPa/Rv6R7tuqbFwrqso2Ov8AVD3yGOeyGy5rtrYf9Fn+D9qWHj30t22vNzgD73Eawzb3c76W3e9RwcXJpc0XXOyCXMhztoIg6/Rd+ckrttt9n/OZW4Vrss3+tDWk/ot7Num/+X+dvSycK2zIZY270wwMlge2DA3f6RMcXIGXZabXGsufFJ2x7tv507vZs9v9dKzFyDmet6x9KG/odI+g1v739pJX2fy/wkmXiWXU0tFgrgOMte396xsfTb+8k/Gsdimr1AHH2+oHsB+iPdo5RzMa+2mltVpocASXN2yRusG3U+ad1FpxTXuh59vqAiZ2x6n0klDrtuf5fM6H1ZxrMfJcx9vrH03e8uaTq6vs1z10a5z6tU2VZbw9xf7HkEmdC9m1vuc9/taujSacv92R2+X/ALiT/9P0XrjHPwCGguO9mg+KwMTFyGWe9rnS57gSOAQ7Ywf1Wre660u6eQBu97NAJ7rnsKjIbZ+mG8l1haQ2IYWu2M4/NSdPkv5g69Z/9FhTh5rbHOsLn1ujYzaBt9znfS/O9jmV/wDW078PNOU6z3Crd/NgTIh7TM/8I5j/AG/uIdGPlNscbffWY9NoZBbqfpe33e3ansx8w5Ze3THDjur2SXCHjR20en+kcx3+E/sJNvtr1/l+mkzsPPscz7OTTDG7jEz7WaQll4eZbSxtG6l0kl0TpLvao52Plvcz7P7IYzfLf5DOJrs+gmy8fLfVWMb9E4FxduZMiXe1ph2z3fn7LElvQa9v+j/eSW4uW7FcysGu0yG2bZ2nb9PY4qWNi5TKLBa0veQCSBprY1waN3u9rUOyjIOIWV+y46NsLCQHbfp7E+LTkNx7BeN9kCXNbAj1Glo4H0WpJN3v2/6X95jh4WfW532hxvkO2+wNjSzw/kuYxPjYeczJ32Fz6y4bGbY2+7d9L/X/ANKQw8fMY532k+pIO3ayIhrt272t+kli4+a3JDriH1lw2NbWWke/duc7+p7ElfXp/L9Nlbh5xyjYC4U7p9Pb2G/d/n7k+Th5r7mPqLmNbt3NjRwhu5Rtx8o5W5sincdzNvhvn/B7vc41/wCE/MTZOPmuyWOpIZSA31GFkk6Ddrsd+akr6/y/xk2ViZVlNLag6twDiTB/et2t9pb+cWJn4mUcU11hzbOG2ESZ2xvcoZlGW+mkY36N4BkuZOm6zT6Lvzk7qMj7LtAi7jdt03bR7von87+Skoddep/P+86P1bx8qnKf9oJe703/AKTbtEF7C1u3X6K6Nc19WKsmvJcMkh9vpOmxrdgPuZ+b+aulSacv92R/u/8AcS/rP//U9E66CenkAE+9mg17rnsKvJFn6cSdz9m1pHs2u2btPproPrAHnprxXq/c3boSJn2yB+auewG5W8faGw+X/RBiNpSdTkj+oPnP/oo6aswWuNoDqtPSDWkOHud9PT9zYnfVlnKcYigOOkSTo7+R7fft/PUcducbHeuyK9PTge7n8/aXfmp9ud9rt3sH2eXemQDu5/OSbV7andlnVZxcz7KA07Wb94MRsZ9H2u9yWXVmOqrGKA10u3F7Sfb7vo6H3btqWU3P+1V+kxv2f06/UJDt8wzdH5uz0/8AwRNlNzBVX9mZL/duDgePdxx+d/r+ekgHQanp/wBFlbXkHGIrbttnQkEiYE8tUsWvJFFv2hoNn8gO27fVHpj3Dd7a9u5RsblfZT6bf08iAQdsw3cnxW5P2ez7Q2LIEhgMRvbwkknXfqP+kww6s4E/aQHHaYLGnna/f+a32/QT49WWMkGwTVuG0Rr9P2/mM+jX/r+j/StiNzd7vtLREHZsB7tfIP8AVTYrc/7T+nY0Vbx6e0GfpN27v7O5JF+J2XsqzPtbiAPs8/R2ncf5zf2/f9JNk1Z5yGGkNFMN9QOad3AnZ7T+amtbn/bCGsH2aTuJB3zLpSzG9SFv6sxpZDfpNMzA3dx/ZSVfiUmZVmGmkYoDXwd29pI27rPL6SZ9WWcQBgAyJbJLTsmG+pp9Lb9NSym5fpU/Z2jdsfIeHRO5+ziPzkMtz/sjCGTdvO8R22u27Ndm/wDmklXvqdz+bo/VdmY3Mt+1bZ9M7C0EabmfS9rPcumXN/VgZQynfagBZ6btWghsbq/HcukSacv92R3+X6/JJ//V9D+sLrG9MeazFgLdkkgbp9sxt/OWBh3Xmwes6HS+AHGNu12385y6Dr77WdNe6kxYC3ZrAmfaCsDCycx7x67nMMvAbPYNdB0dZ/1STp8l/MHTrL/otfGyMxz3esSxgjYd2p1P7ttv5m1P6+Z9qta8xQC7Y4O15G3/AAjv+E/NT4+X1FzyLpZWI9N27Unc4e9gfZt/R+m7/X00/wBr6gcu1jyW44LvTsDtSZ4Ldx/1/wBGk2tdNP5f4rHIvzhlMbVDqCGeo82EOHG/ayf3FPMvzG00nGO55a6Q5x/es2n6bPzk2Rl9RblMbV7qCG77C+CD7d3sn9z3KWZldQZTQcYmxxDtwLo03WaiXM3f56SNaGnX/uenpWtuyBil1TibZ0a55iYG7Xc1Pi3ZLsew5DtlkDc1ryQPe36J3fuqTsnM+zEsefW7Au03bRp/U3J8bJy3UWG57mvgaT29QBp0fZ9Jn8tJJvt1H/S/usMG7LNo9d8aHaA4/uvLp97vo+1Bx8jOda4XeyofQcHkk6+2fd+4jdPy+o2W/rX6IR7dr90nbZ6k6+3b7EPHy+pOtc2/2VD+bc18l2o+kJ9v+v8AxaShd7dB/wB1/VWtyM4ZhayDjT7nl5Dh9LdDdyfLvz2vd6BDxDIBcQdW+/8AwjG/uJsjM6q3Jc2ob6t8bi+Dt9u4/T+k39J+b/6klmZfU2WkY/6RsNgl0dvfM2V/2Eka9v5f4rLKvy210Gg7pa7fLjp73Q7V9ft/fUXX5oxmFpBt3kPG4xG10bJe3870/wA9EysrPbXSaHF5LHbgXdw5+385n9VDdl9S+xtezW8uO6tzogbXbNQ5zfp+nv8Ae9JWuunU/n/ddL6s25FmS45Gj/Td7JmBuZH59jf+kukXO/Vu/Ktyn/afa7Y+GbtwgPbsdP72xdEk1Jf7sj/d/wC4k//W9QyPs3p/rOz0pH85G2fzfp+1V2/safb9m3do9OeF8xJJL4+5Xp4q8Lp+nB+xO32Xy/m0j+xJM/ZZ7/za+Y0kl367+v8A85+nD+xZ1+yz5+mqNrYd+if051ZLi31QJjcdu3Zsbs/7/wD4Sz+bXzikkj9d/X/5z9E2U3PLg3I6dWwFoaQxp3QHb3e4v9Pfur9n6T+a/wCEUiy6QW29MLWwLGhkBwJZJd737fT9/p+73r50SSV+u/r/APOfoxrLdzNlvTJa0h3s1c7972uGz2JvTdu0u6btc7U7BLWge30/d9N38tfOiSSv139f/nP0lQ3G+02HKfgGjX021taH67f51z3O+j+k+irR/Ys6/ZZ8/TXzGkkr9d/X/wCc/Tp/YsCfs0R7Z9Pie39pN/kSP+0sT/wfK+Y0klfrv6//ADn6hxv2b6h+y+j6ka+lt3bZ/kfmqyvlVJJHr4v0uL/nP//ZOEJJTQQhAAAAAABXAAAAAQEAAAAPAEEAZABvAGIAZQAgAFAAaABvAHQAbwBzAGgAbwBwAAAAFABBAGQAbwBiAGUAIABQAGgAbwB0AG8AcwBoAG8AcAAgADIAMAAyADAAAAABADhCSU0EQAAAAAA88AAAABAAAAABAAAAAAAAbnVsbAAAAAEAAAAAbnVsbFZsTHMAAACQb2JqIAAAAAJFbm1yAAAAAQAAAAAAAFBhdGgAAAAAUGF0aAAAAAp2ZWN0b3JNYXNrbmFtZQAAAAEAAAAAAABMeXIgAAAAFABSAGUAYwB0AGEAbgBnAGwAZQAgADEAIABjAG8AcAB5ACAAMQAxAABvYmogAAAAAkVubXIAAAABAAAAAAAAUGF0aAAAAABQYXRoAAAACnZlY3Rvck1hc2tuYW1lAAAAAQAAAAAAAEx5ciAAAAAUAFIAZQBjAHQAYQBuAGcAbABlACAAMQAgAGMAbwBwAHkAIAAxADEAAG9iaiAAAAACRW5tcgAAAAEAAAAAAABQYXRoAAAAAFBhdGgAAAAKdmVjdG9yTWFza25hbWUAAAABAAAAAAAATHlyIAAAABQAUgBlAGMAdABhAG4AZwBsAGUAIAAxACAAYwBvAHAAeQAgADEAMQAAb2JqIAAAAAJFbm1yAAAAAQAAAAAAAFBhdGgAAAAAUGF0aAAAAAp2ZWN0b3JNYXNrbmFtZQAAAAEAAAAAAABMeXIgAAAAFABSAGUAYwB0AGEAbgBnAGwAZQAgADEAIABjAG8AcAB5ACAAMQAxAABvYmogAAAAAkVubXIAAAABAAAAAAAAUGF0aAAAAABQYXRoAAAACnZlY3Rvck1hc2tuYW1lAAAAAQAAAAAAAEx5ciAAAAAUAFIAZQBjAHQAYQBuAGcAbABlACAAMQAgAGMAbwBwAHkAIAAxADEAAG9iaiAAAAACRW5tcgAAAAEAAAAAAABQYXRoAAAAAFBhdGgAAAAKdmVjdG9yTWFza25hbWUAAAABAAAAAAAATHlyIAAAABQAUgBlAGMAdABhAG4AZwBsAGUAIAAxACAAYwBvAHAAeQAgADEAMQAAb2JqIAAAAAJFbm1yAAAAAQAAAAAAAFBhdGgAAAAAUGF0aAAAAAp2ZWN0b3JNYXNrbmFtZQAAAAEAAAAAAABMeXIgAAAAFABSAGUAYwB0AGEAbgBnAGwAZQAgADEAIABjAG8AcAB5ACAAMQAxAABvYmogAAAAAkVubXIAAAABAAAAAAAAUGF0aAAAAABQYXRoAAAACnZlY3Rvck1hc2tuYW1lAAAAAQAAAAAAAEx5ciAAAAAUAFIAZQBjAHQAYQBuAGcAbABlACAAMQAgAGMAbwBwAHkAIAAxADEAAG9iaiAAAAACRW5tcgAAAAEAAAAAAABQYXRoAAAAAFBhdGgAAAAKdmVjdG9yTWFza25hbWUAAAABAAAAAAAATHlyIAAAABQAUgBlAGMAdABhAG4AZwBsAGUAIAAxACAAYwBvAHAAeQAgADEAMQAAb2JqIAAAAAJFbm1yAAAAAQAAAAAAAFBhdGgAAAAAUGF0aAAAAAp2ZWN0b3JNYXNrbmFtZQAAAAEAAAAAAABMeXIgAAAAFABSAGUAYwB0AGEAbgBnAGwAZQAgADEAIABjAG8AcAB5ACAAMQAxAABvYmogAAAAAkVubXIAAAABAAAAAAAAUGF0aAAAAABQYXRoAAAACnZlY3Rvck1hc2tuYW1lAAAAAQAAAAAAAEx5ciAAAAAUAFIAZQBjAHQAYQBuAGcAbABlACAAMQAgAGMAbwBwAHkAIAAxADEAAG9iaiAAAAACRW5tcgAAAAEAAAAAAABQYXRoAAAAAFBhdGgAAAAKdmVjdG9yTWFza25hbWUAAAABAAAAAAAATHlyIAAAABQAUgBlAGMAdABhAG4AZwBsAGUAIAAxACAAYwBvAHAAeQAgADEAMQAAb2JqIAAAAAJFbm1yAAAAAQAAAAAAAFBhdGgAAAAAUGF0aAAAAAp2ZWN0b3JNYXNrbmFtZQAAAAEAAAAAAABMeXIgAAAAFABSAGUAYwB0AGEAbgBnAGwAZQAgADEAIABjAG8AcAB5ACAAMQAwAABvYmogAAAAAkVubXIAAAABAAAAAAAAUGF0aAAAAABQYXRoAAAACnZlY3Rvck1hc2tuYW1lAAAAAQAAAAAAAEx5ciAAAAAUAFIAZQBjAHQAYQBuAGcAbABlACAAMQAgAGMAbwBwAHkAIAAxADAAAG9iaiAAAAACRW5tcgAAAAEAAAAAAABQYXRoAAAAAFBhdGgAAAAKdmVjdG9yTWFza25hbWUAAAABAAAAAAAATHlyIAAAABQAUgBlAGMAdABhAG4AZwBsAGUAIAAxACAAYwBvAHAAeQAgADEAMAAAb2JqIAAAAAJFbm1yAAAAAQAAAAAAAFBhdGgAAAAAUGF0aAAAAAp2ZWN0b3JNYXNrbmFtZQAAAAEAAAAAAABMeXIgAAAAFABSAGUAYwB0AGEAbgBnAGwAZQAgADEAIABjAG8AcAB5ACAAMQAwAABvYmogAAAAAkVubXIAAAABAAAAAAAAUGF0aAAAAABQYXRoAAAACnZlY3Rvck1hc2tuYW1lAAAAAQAAAAAAAEx5ciAAAAAUAFIAZQBjAHQAYQBuAGcAbABlACAAMQAgAGMAbwBwAHkAIAAxADAAAG9iaiAAAAACRW5tcgAAAAEAAAAAAABQYXRoAAAAAFBhdGgAAAAKdmVjdG9yTWFza25hbWUAAAABAAAAAAAATHlyIAAAABQAUgBlAGMAdABhAG4AZwBsAGUAIAAxACAAYwBvAHAAeQAgADEAMAAAb2JqIAAAAAJFbm1yAAAAAQAAAAAAAFBhdGgAAAAAUGF0aAAAAAp2ZWN0b3JNYXNrbmFtZQAAAAEAAAAAAABMeXIgAAAAFABSAGUAYwB0AGEAbgBnAGwAZQAgADEAIABjAG8AcAB5ACAAMQAwAABvYmogAAAAAkVubXIAAAABAAAAAAAAUGF0aAAAAABQYXRoAAAACnZlY3Rvck1hc2tuYW1lAAAAAQAAAAAAAEx5ciAAAAAUAFIAZQBjAHQAYQBuAGcAbABlACAAMQAgAGMAbwBwAHkAIAAxADAAAG9iaiAAAAACRW5tcgAAAAEAAAAAAABQYXRoAAAAAFBhdGgAAAAKdmVjdG9yTWFza25hbWUAAAABAAAAAAAATHlyIAAAABQAUgBlAGMAdABhAG4AZwBsAGUAIAAxACAAYwBvAHAAeQAgADEAMAAAb2JqIAAAAAJFbm1yAAAAAQAAAAAAAFBhdGgAAAAAUGF0aAAAAAp2ZWN0b3JNYXNrbmFtZQAAAAEAAAAAAABMeXIgAAAAFABSAGUAYwB0AGEAbgBnAGwAZQAgADEAIABjAG8AcAB5ACAAMQAwAABvYmogAAAAAkVubXIAAAABAAAAAAAAUGF0aAAAAABQYXRoAAAACnZlY3Rvck1hc2tuYW1lAAAAAQAAAAAAAEx5ciAAAAAUAFIAZQBjAHQAYQBuAGcAbABlACAAMQAgAGMAbwBwAHkAIAAxADAAAG9iaiAAAAACRW5tcgAAAAEAAAAAAABQYXRoAAAAAFBhdGgAAAAKdmVjdG9yTWFza25hbWUAAAABAAAAAAAATHlyIAAAABMAUgBlAGMAdABhAG4AZwBsAGUAIAAxACAAYwBvAHAAeQAgADQAAG9iaiAAAAACRW5tcgAAAAEAAAAAAABQYXRoAAAAAFBhdGgAAAAKdmVjdG9yTWFza25hbWUAAAABAAAAAAAATHlyIAAAABMAUgBlAGMAdABhAG4AZwBsAGUAIAAxACAAYwBvAHAAeQAgADkAAG9iaiAAAAACRW5tcgAAAAEAAAAAAABQYXRoAAAAAFBhdGgAAAAKdmVjdG9yTWFza25hbWUAAAABAAAAAAAATHlyIAAAABMAUgBlAGMAdABhAG4AZwBsAGUAIAAxACAAYwBvAHAAeQAgADkAAG9iaiAAAAACRW5tcgAAAAEAAAAAAABQYXRoAAAAAFBhdGgAAAAKdmVjdG9yTWFza25hbWUAAAABAAAAAAAATHlyIAAAABMAUgBlAGMAdABhAG4AZwBsAGUAIAAxACAAYwBvAHAAeQAgADkAAG9iaiAAAAACRW5tcgAAAAEAAAAAAABQYXRoAAAAAFBhdGgAAAAKdmVjdG9yTWFza25hbWUAAAABAAAAAAAATHlyIAAAABMAUgBlAGMAdABhAG4AZwBsAGUAIAAxACAAYwBvAHAAeQAgADkAAG9iaiAAAAACRW5tcgAAAAEAAAAAAABQYXRoAAAAAFBhdGgAAAAKdmVjdG9yTWFza25hbWUAAAABAAAAAAAATHlyIAAAABMAUgBlAGMAdABhAG4AZwBsAGUAIAAxACAAYwBvAHAAeQAgADkAAG9iaiAAAAACRW5tcgAAAAEAAAAAAABQYXRoAAAAAFBhdGgAAAAKdmVjdG9yTWFza25hbWUAAAABAAAAAAAATHlyIAAAABMAUgBlAGMAdABhAG4AZwBsAGUAIAAxACAAYwBvAHAAeQAgADkAAG9iaiAAAAACRW5tcgAAAAEAAAAAAABQYXRoAAAAAFBhdGgAAAAKdmVjdG9yTWFza25hbWUAAAABAAAAAAAATHlyIAAAABMAUgBlAGMAdABhAG4AZwBsAGUAIAAxACAAYwBvAHAAeQAgADkAAG9iaiAAAAACRW5tcgAAAAEAAAAAAABQYXRoAAAAAFBhdGgAAAAKdmVjdG9yTWFza25hbWUAAAABAAAAAAAATHlyIAAAABMAUgBlAGMAdABhAG4AZwBsAGUAIAAxACAAYwBvAHAAeQAgADkAAG9iaiAAAAACRW5tcgAAAAEAAAAAAABQYXRoAAAAAFBhdGgAAAAKdmVjdG9yTWFza25hbWUAAAABAAAAAAAATHlyIAAAABMAUgBlAGMAdABhAG4AZwBsAGUAIAAxACAAYwBvAHAAeQAgADkAAG9iaiAAAAACRW5tcgAAAAEAAAAAAABQYXRoAAAAAFBhdGgAAAAKdmVjdG9yTWFza25hbWUAAAABAAAAAAAATHlyIAAAABMAUgBlAGMAdABhAG4AZwBsAGUAIAAxACAAYwBvAHAAeQAgADkAAG9iaiAAAAACRW5tcgAAAAEAAAAAAABQYXRoAAAAAFBhdGgAAAAKdmVjdG9yTWFza25hbWUAAAABAAAAAAAATHlyIAAAABMAUgBlAGMAdABhAG4AZwBsAGUAIAAxACAAYwBvAHAAeQAgADgAAG9iaiAAAAACRW5tcgAAAAEAAAAAAABQYXRoAAAAAFBhdGgAAAAKdmVjdG9yTWFza25hbWUAAAABAAAAAAAATHlyIAAAABMAUgBlAGMAdABhAG4AZwBsAGUAIAAxACAAYwBvAHAAeQAgADgAAG9iaiAAAAACRW5tcgAAAAEAAAAAAABQYXRoAAAAAFBhdGgAAAAKdmVjdG9yTWFza25hbWUAAAABAAAAAAAATHlyIAAAABMAUgBlAGMAdABhAG4AZwBsAGUAIAAxACAAYwBvAHAAeQAgADgAAG9iaiAAAAACRW5tcgAAAAEAAAAAAABQYXRoAAAAAFBhdGgAAAAKdmVjdG9yTWFza25hbWUAAAABAAAAAAAATHlyIAAAABMAUgBlAGMAdABhAG4AZwBsAGUAIAAxACAAYwBvAHAAeQAgADgAAG9iaiAAAAACRW5tcgAAAAEAAAAAAABQYXRoAAAAAFBhdGgAAAAKdmVjdG9yTWFza25hbWUAAAABAAAAAAAATHlyIAAAABMAUgBlAGMAdABhAG4AZwBsAGUAIAAxACAAYwBvAHAAeQAgADgAAG9iaiAAAAACRW5tcgAAAAEAAAAAAABQYXRoAAAAAFBhdGgAAAAKdmVjdG9yTWFza25hbWUAAAABAAAAAAAATHlyIAAAABMAUgBlAGMAdABhAG4AZwBsAGUAIAAxACAAYwBvAHAAeQAgADgAAG9iaiAAAAACRW5tcgAAAAEAAAAAAABQYXRoAAAAAFBhdGgAAAAKdmVjdG9yTWFza25hbWUAAAABAAAAAAAATHlyIAAAABMAUgBlAGMAdABhAG4AZwBsAGUAIAAxACAAYwBvAHAAeQAgADgAAG9iaiAAAAACRW5tcgAAAAEAAAAAAABQYXRoAAAAAFBhdGgAAAAKdmVjdG9yTWFza25hbWUAAAABAAAAAAAATHlyIAAAABMAUgBlAGMAdABhAG4AZwBsAGUAIAAxACAAYwBvAHAAeQAgADgAAG9iaiAAAAACRW5tcgAAAAEAAAAAAABQYXRoAAAAAFBhdGgAAAAKdmVjdG9yTWFza25hbWUAAAABAAAAAAAATHlyIAAAABMAUgBlAGMAdABhAG4AZwBsAGUAIAAxACAAYwBvAHAAeQAgADgAAG9iaiAAAAACRW5tcgAAAAEAAAAAAABQYXRoAAAAAFBhdGgAAAAKdmVjdG9yTWFza25hbWUAAAABAAAAAAAATHlyIAAAABMAUgBlAGMAdABhAG4AZwBsAGUAIAAxACAAYwBvAHAAeQAgADgAAG9iaiAAAAACRW5tcgAAAAEAAAAAAABQYXRoAAAAAFBhdGgAAAAKdmVjdG9yTWFza25hbWUAAAABAAAAAAAATHlyIAAAABMAUgBlAGMAdABhAG4AZwBsAGUAIAAxACAAYwBvAHAAeQAgADgAAG9iaiAAAAACRW5tcgAAAAEAAAAAAABQYXRoAAAAAFBhdGgAAAAKdmVjdG9yTWFza25hbWUAAAABAAAAAAAATHlyIAAAABMAUgBlAGMAdABhAG4AZwBsAGUAIAAxACAAYwBvAHAAeQAgADgAAG9iaiAAAAACRW5tcgAAAAEAAAAAAABQYXRoAAAAAFBhdGgAAAAKdmVjdG9yTWFza25hbWUAAAABAAAAAAAATHlyIAAAABMAUgBlAGMAdABhAG4AZwBsAGUAIAAxACAAYwBvAHAAeQAgADgAAG9iaiAAAAACRW5tcgAAAAEAAAAAAABQYXRoAAAAAFBhdGgAAAAKdmVjdG9yTWFza25hbWUAAAABAAAAAAAATHlyIAAAABMAUgBlAGMAdABhAG4AZwBsAGUAIAAxACAAYwBvAHAAeQAgADgAAG9iaiAAAAACRW5tcgAAAAEAAAAAAABQYXRoAAAAAFBhdGgAAAAKdmVjdG9yTWFza25hbWUAAAABAAAAAAAATHlyIAAAABMAUgBlAGMAdABhAG4AZwBsAGUAIAAxACAAYwBvAHAAeQAgADgAAG9iaiAAAAACRW5tcgAAAAEAAAAAAABQYXRoAAAAAFBhdGgAAAAKdmVjdG9yTWFza25hbWUAAAABAAAAAAAATHlyIAAAABMAUgBlAGMAdABhAG4AZwBsAGUAIAAxACAAYwBvAHAAeQAgADgAAG9iaiAAAAACRW5tcgAAAAEAAAAAAABQYXRoAAAAAFBhdGgAAAAKdmVjdG9yTWFza25hbWUAAAABAAAAAAAATHlyIAAAABMAUgBlAGMAdABhAG4AZwBsAGUAIAAxACAAYwBvAHAAeQAgADgAAG9iaiAAAAACRW5tcgAAAAEAAAAAAABQYXRoAAAAAFBhdGgAAAAKdmVjdG9yTWFza25hbWUAAAABAAAAAAAATHlyIAAAABMAUgBlAGMAdABhAG4AZwBsAGUAIAAxACAAYwBvAHAAeQAgADgAAG9iaiAAAAACRW5tcgAAAAEAAAAAAABQYXRoAAAAAFBhdGgAAAAKdmVjdG9yTWFza25hbWUAAAABAAAAAAAATHlyIAAAABMAUgBlAGMAdABhAG4AZwBsAGUAIAAxACAAYwBvAHAAeQAgADgAAG9iaiAAAAACRW5tcgAAAAEAAAAAAABQYXRoAAAAAFBhdGgAAAAKdmVjdG9yTWFza25hbWUAAAABAAAAAAAATHlyIAAAABMAUgBlAGMAdABhAG4AZwBsAGUAIAAxACAAYwBvAHAAeQAgADgAAG9iaiAAAAACRW5tcgAAAAEAAAAAAABQYXRoAAAAAFBhdGgAAAAKdmVjdG9yTWFza25hbWUAAAABAAAAAAAATHlyIAAAABMAUgBlAGMAdABhAG4AZwBsAGUAIAAxACAAYwBvAHAAeQAgADcAAG9iaiAAAAACRW5tcgAAAAEAAAAAAABQYXRoAAAAAFBhdGgAAAAKdmVjdG9yTWFza25hbWUAAAABAAAAAAAATHlyIAAAABMAUgBlAGMAdABhAG4AZwBsAGUAIAAxACAAYwBvAHAAeQAgADcAAG9iaiAAAAACRW5tcgAAAAEAAAAAAABQYXRoAAAAAFBhdGgAAAAKdmVjdG9yTWFza25hbWUAAAABAAAAAAAATHlyIAAAABMAUgBlAGMAdABhAG4AZwBsAGUAIAAxACAAYwBvAHAAeQAgADcAAG9iaiAAAAACRW5tcgAAAAEAAAAAAABQYXRoAAAAAFBhdGgAAAAKdmVjdG9yTWFza25hbWUAAAABAAAAAAAATHlyIAAAABMAUgBlAGMAdABhAG4AZwBsAGUAIAAxACAAYwBvAHAAeQAgADcAAG9iaiAAAAACRW5tcgAAAAEAAAAAAABQYXRoAAAAAFBhdGgAAAAKdmVjdG9yTWFza25hbWUAAAABAAAAAAAATHlyIAAAABMAUgBlAGMAdABhAG4AZwBsAGUAIAAxACAAYwBvAHAAeQAgADcAAG9iaiAAAAACRW5tcgAAAAEAAAAAAABQYXRoAAAAAFBhdGgAAAAKdmVjdG9yTWFza25hbWUAAAABAAAAAAAATHlyIAAAABMAUgBlAGMAdABhAG4AZwBsAGUAIAAxACAAYwBvAHAAeQAgADcAAG9iaiAAAAACRW5tcgAAAAEAAAAAAABQYXRoAAAAAFBhdGgAAAAKdmVjdG9yTWFza25hbWUAAAABAAAAAAAATHlyIAAAABMAUgBlAGMAdABhAG4AZwBsAGUAIAAxACAAYwBvAHAAeQAgADcAAG9iaiAAAAACRW5tcgAAAAEAAAAAAABQYXRoAAAAAFBhdGgAAAAKdmVjdG9yTWFza25hbWUAAAABAAAAAAAATHlyIAAAABMAUgBlAGMAdABhAG4AZwBsAGUAIAAxACAAYwBvAHAAeQAgADcAAG9iaiAAAAACRW5tcgAAAAEAAAAAAABQYXRoAAAAAFBhdGgAAAAKdmVjdG9yTWFza25hbWUAAAABAAAAAAAATHlyIAAAABMAUgBlAGMAdABhAG4AZwBsAGUAIAAxACAAYwBvAHAAeQAgADcAAG9iaiAAAAACRW5tcgAAAAEAAAAAAABQYXRoAAAAAFBhdGgAAAAKdmVjdG9yTWFza25hbWUAAAABAAAAAAAATHlyIAAAABMAUgBlAGMAdABhAG4AZwBsAGUAIAAxACAAYwBvAHAAeQAgADcAAG9iaiAAAAACRW5tcgAAAAEAAAAAAABQYXRoAAAAAFBhdGgAAAAKdmVjdG9yTWFza25hbWUAAAABAAAAAAAATHlyIAAAABMAUgBlAGMAdABhAG4AZwBsAGUAIAAxACAAYwBvAHAAeQAgADcAAG9iaiAAAAACRW5tcgAAAAEAAAAAAABQYXRoAAAAAFBhdGgAAAAKdmVjdG9yTWFza25hbWUAAAABAAAAAAAATHlyIAAAABMAUgBlAGMAdABhAG4AZwBsAGUAIAAxACAAYwBvAHAAeQAgADcAAG9iaiAAAAACRW5tcgAAAAEAAAAAAABQYXRoAAAAAFBhdGgAAAAKdmVjdG9yTWFza25hbWUAAAABAAAAAAAATHlyIAAAABMAUgBlAGMAdABhAG4AZwBsAGUAIAAxACAAYwBvAHAAeQAgADcAAG9iaiAAAAACRW5tcgAAAAEAAAAAAABQYXRoAAAAAFBhdGgAAAAKdmVjdG9yTWFza25hbWUAAAABAAAAAAAATHlyIAAAABMAUgBlAGMAdABhAG4AZwBsAGUAIAAxACAAYwBvAHAAeQAgADcAAG9iaiAAAAACRW5tcgAAAAEAAAAAAABQYXRoAAAAAFBhdGgAAAAKdmVjdG9yTWFza25hbWUAAAABAAAAAAAATHlyIAAAABMAUgBlAGMAdABhAG4AZwBsAGUAIAAxACAAYwBvAHAAeQAgADcAAG9iaiAAAAACRW5tcgAAAAEAAAAAAABQYXRoAAAAAFBhdGgAAAAKdmVjdG9yTWFza25hbWUAAAABAAAAAAAATHlyIAAAABMAUgBlAGMAdABhAG4AZwBsAGUAIAAxACAAYwBvAHAAeQAgADcAAG9iaiAAAAACRW5tcgAAAAEAAAAAAABQYXRoAAAAAFBhdGgAAAAKdmVjdG9yTWFza25hbWUAAAABAAAAAAAATHlyIAAAABMAUgBlAGMAdABhAG4AZwBsAGUAIAAxACAAYwBvAHAAeQAgADcAAG9iaiAAAAACRW5tcgAAAAEAAAAAAABQYXRoAAAAAFBhdGgAAAAKdmVjdG9yTWFza25hbWUAAAABAAAAAAAATHlyIAAAABMAUgBlAGMAdABhAG4AZwBsAGUAIAAxACAAYwBvAHAAeQAgADcAAG9iaiAAAAACRW5tcgAAAAEAAAAAAABQYXRoAAAAAFBhdGgAAAAKdmVjdG9yTWFza25hbWUAAAABAAAAAAAATHlyIAAAABMAUgBlAGMAdABhAG4AZwBsAGUAIAAxACAAYwBvAHAAeQAgADcAAG9iaiAAAAACRW5tcgAAAAEAAAAAAABQYXRoAAAAAFBhdGgAAAAKdmVjdG9yTWFza25hbWUAAAABAAAAAAAATHlyIAAAABMAUgBlAGMAdABhAG4AZwBsAGUAIAAxACAAYwBvAHAAeQAgADcAAG9iaiAAAAACRW5tcgAAAAEAAAAAAABQYXRoAAAAAFBhdGgAAAAKdmVjdG9yTWFza25hbWUAAAABAAAAAAAATHlyIAAAABMAUgBlAGMAdABhAG4AZwBsAGUAIAAxACAAYwBvAHAAeQAgADYAAG9iaiAAAAACRW5tcgAAAAEAAAAAAABQYXRoAAAAAFBhdGgAAAAKdmVjdG9yTWFza25hbWUAAAABAAAAAAAATHlyIAAAABMAUgBlAGMAdABhAG4AZwBsAGUAIAAxACAAYwBvAHAAeQAgADYAAG9iaiAAAAACRW5tcgAAAAEAAAAAAABQYXRoAAAAAFBhdGgAAAAKdmVjdG9yTWFza25hbWUAAAABAAAAAAAATHlyIAAAABMAUgBlAGMAdABhAG4AZwBsAGUAIAAxACAAYwBvAHAAeQAgADYAAG9iaiAAAAACRW5tcgAAAAEAAAAAAABQYXRoAAAAAFBhdGgAAAAKdmVjdG9yTWFza25hbWUAAAABAAAAAAAATHlyIAAAABMAUgBlAGMAdABhAG4AZwBsAGUAIAAxACAAYwBvAHAAeQAgADYAAG9iaiAAAAACRW5tcgAAAAEAAAAAAABQYXRoAAAAAFBhdGgAAAAKdmVjdG9yTWFza25hbWUAAAABAAAAAAAATHlyIAAAABMAUgBlAGMAdABhAG4AZwBsAGUAIAAxACAAYwBvAHAAeQAgADYAAG9iaiAAAAACRW5tcgAAAAEAAAAAAABQYXRoAAAAAFBhdGgAAAAKdmVjdG9yTWFza25hbWUAAAABAAAAAAAATHlyIAAAABMAUgBlAGMAdABhAG4AZwBsAGUAIAAxACAAYwBvAHAAeQAgADYAAG9iaiAAAAACRW5tcgAAAAEAAAAAAABQYXRoAAAAAFBhdGgAAAAKdmVjdG9yTWFza25hbWUAAAABAAAAAAAATHlyIAAAABMAUgBlAGMAdABhAG4AZwBsAGUAIAAxACAAYwBvAHAAeQAgADYAAG9iaiAAAAACRW5tcgAAAAEAAAAAAABQYXRoAAAAAFBhdGgAAAAKdmVjdG9yTWFza25hbWUAAAABAAAAAAAATHlyIAAAABMAUgBlAGMAdABhAG4AZwBsAGUAIAAxACAAYwBvAHAAeQAgADYAAG9iaiAAAAACRW5tcgAAAAEAAAAAAABQYXRoAAAAAFBhdGgAAAAKdmVjdG9yTWFza25hbWUAAAABAAAAAAAATHlyIAAAABMAUgBlAGMAdABhAG4AZwBsAGUAIAAxACAAYwBvAHAAeQAgADYAAG9iaiAAAAACRW5tcgAAAAEAAAAAAABQYXRoAAAAAFBhdGgAAAAKdmVjdG9yTWFza25hbWUAAAABAAAAAAAATHlyIAAAABMAUgBlAGMAdABhAG4AZwBsAGUAIAAxACAAYwBvAHAAeQAgADYAAG9iaiAAAAACRW5tcgAAAAEAAAAAAABQYXRoAAAAAFBhdGgAAAAKdmVjdG9yTWFza25hbWUAAAABAAAAAAAATHlyIAAAABMAUgBlAGMAdABhAG4AZwBsAGUAIAAxACAAYwBvAHAAeQAgADYAAG9iaiAAAAACRW5tcgAAAAEAAAAAAABQYXRoAAAAAFBhdGgAAAAKdmVjdG9yTWFza25hbWUAAAABAAAAAAAATHlyIAAAABMAUgBlAGMAdABhAG4AZwBsAGUAIAAxACAAYwBvAHAAeQAgADYAAG9iaiAAAAACRW5tcgAAAAEAAAAAAABQYXRoAAAAAFBhdGgAAAAKdmVjdG9yTWFza25hbWUAAAABAAAAAAAATHlyIAAAABMAUgBlAGMAdABhAG4AZwBsAGUAIAAxACAAYwBvAHAAeQAgADYAAG9iaiAAAAACRW5tcgAAAAEAAAAAAABQYXRoAAAAAFBhdGgAAAAKdmVjdG9yTWFza25hbWUAAAABAAAAAAAATHlyIAAAABMAUgBlAGMAdABhAG4AZwBsAGUAIAAxACAAYwBvAHAAeQAgADYAAG9iaiAAAAACRW5tcgAAAAEAAAAAAABQYXRoAAAAAFBhdGgAAAAKdmVjdG9yTWFza25hbWUAAAABAAAAAAAATHlyIAAAABMAUgBlAGMAdABhAG4AZwBsAGUAIAAxACAAYwBvAHAAeQAgADYAAG9iaiAAAAACRW5tcgAAAAEAAAAAAABQYXRoAAAAAFBhdGgAAAAKdmVjdG9yTWFza25hbWUAAAABAAAAAAAATHlyIAAAABMAUgBlAGMAdABhAG4AZwBsAGUAIAAxACAAYwBvAHAAeQAgADYAAG9iaiAAAAACRW5tcgAAAAEAAAAAAABQYXRoAAAAAFBhdGgAAAAKdmVjdG9yTWFza25hbWUAAAABAAAAAAAATHlyIAAAABMAUgBlAGMAdABhAG4AZwBsAGUAIAAxACAAYwBvAHAAeQAgADYAAG9iaiAAAAACRW5tcgAAAAEAAAAAAABQYXRoAAAAAFBhdGgAAAAKdmVjdG9yTWFza25hbWUAAAABAAAAAAAATHlyIAAAABMAUgBlAGMAdABhAG4AZwBsAGUAIAAxACAAYwBvAHAAeQAgADYAAG9iaiAAAAACRW5tcgAAAAEAAAAAAABQYXRoAAAAAFBhdGgAAAAKdmVjdG9yTWFza25hbWUAAAABAAAAAAAATHlyIAAAABMAUgBlAGMAdABhAG4AZwBsAGUAIAAxACAAYwBvAHAAeQAgADYAAG9iaiAAAAACRW5tcgAAAAEAAAAAAABQYXRoAAAAAFBhdGgAAAAKdmVjdG9yTWFza25hbWUAAAABAAAAAAAATHlyIAAAABMAUgBlAGMAdABhAG4AZwBsAGUAIAAxACAAYwBvAHAAeQAgADYAAG9iaiAAAAACRW5tcgAAAAEAAAAAAABQYXRoAAAAAFBhdGgAAAAKdmVjdG9yTWFza25hbWUAAAABAAAAAAAATHlyIAAAABMAUgBlAGMAdABhAG4AZwBsAGUAIAAxACAAYwBvAHAAeQAgADYAAG9iaiAAAAACRW5tcgAAAAEAAAAAAABQYXRoAAAAAFBhdGgAAAAKdmVjdG9yTWFza25hbWUAAAABAAAAAAAATHlyIAAAABMAUgBlAGMAdABhAG4AZwBsAGUAIAAxACAAYwBvAHAAeQAgADYAAG9iaiAAAAACRW5tcgAAAAEAAAAAAABQYXRoAAAAAFBhdGgAAAAKdmVjdG9yTWFza25hbWUAAAABAAAAAAAATHlyIAAAABMAUgBlAGMAdABhAG4AZwBsAGUAIAAxACAAYwBvAHAAeQAgADYAAG9iaiAAAAACRW5tcgAAAAEAAAAAAABQYXRoAAAAAFBhdGgAAAAKdmVjdG9yTWFza25hbWUAAAABAAAAAAAATHlyIAAAABMAUgBlAGMAdABhAG4AZwBsAGUAIAAxACAAYwBvAHAAeQAgADYAAG9iaiAAAAACRW5tcgAAAAEAAAAAAABQYXRoAAAAAFBhdGgAAAAKdmVjdG9yTWFza25hbWUAAAABAAAAAAAATHlyIAAAABMAUgBlAGMAdABhAG4AZwBsAGUAIAAxACAAYwBvAHAAeQAgADYAAG9iaiAAAAACRW5tcgAAAAEAAAAAAABQYXRoAAAAAFBhdGgAAAAKdmVjdG9yTWFza25hbWUAAAABAAAAAAAATHlyIAAAABMAUgBlAGMAdABhAG4AZwBsAGUAIAAxACAAYwBvAHAAeQAgADYAAG9iaiAAAAACRW5tcgAAAAEAAAAAAABQYXRoAAAAAFBhdGgAAAAKdmVjdG9yTWFza25hbWUAAAABAAAAAAAATHlyIAAAABMAUgBlAGMAdABhAG4AZwBsAGUAIAAxACAAYwBvAHAAeQAgADYAAG9iaiAAAAACRW5tcgAAAAEAAAAAAABQYXRoAAAAAFBhdGgAAAAKdmVjdG9yTWFza25hbWUAAAABAAAAAAAATHlyIAAAABMAUgBlAGMAdABhAG4AZwBsAGUAIAAxACAAYwBvAHAAeQAgADYAAG9iaiAAAAACRW5tcgAAAAEAAAAAAABQYXRoAAAAAFBhdGgAAAAKdmVjdG9yTWFza25hbWUAAAABAAAAAAAATHlyIAAAABMAUgBlAGMAdABhAG4AZwBsAGUAIAAxACAAYwBvAHAAeQAgADYAAG9iaiAAAAACRW5tcgAAAAEAAAAAAABQYXRoAAAAAFBhdGgAAAAKdmVjdG9yTWFza25hbWUAAAABAAAAAAAATHlyIAAAABMAUgBlAGMAdABhAG4AZwBsAGUAIAAxACAAYwBvAHAAeQAgADYAAG9iaiAAAAACRW5tcgAAAAEAAAAAAABQYXRoAAAAAFBhdGgAAAAKdmVjdG9yTWFza25hbWUAAAABAAAAAAAATHlyIAAAABMAUgBlAGMAdABhAG4AZwBsAGUAIAAxACAAYwBvAHAAeQAgADYAAG9iaiAAAAACRW5tcgAAAAEAAAAAAABQYXRoAAAAAFBhdGgAAAAKdmVjdG9yTWFza25hbWUAAAABAAAAAAAATHlyIAAAABMAUgBlAGMAdABhAG4AZwBsAGUAIAAxACAAYwBvAHAAeQAgADYAAG9iaiAAAAACRW5tcgAAAAEAAAAAAABQYXRoAAAAAFBhdGgAAAAKdmVjdG9yTWFza25hbWUAAAABAAAAAAAATHlyIAAAABMAUgBlAGMAdABhAG4AZwBsAGUAIAAxACAAYwBvAHAAeQAgADYAAG9iaiAAAAACRW5tcgAAAAEAAAAAAABQYXRoAAAAAFBhdGgAAAAKdmVjdG9yTWFza25hbWUAAAABAAAAAAAATHlyIAAAABMAUgBlAGMAdABhAG4AZwBsAGUAIAAxACAAYwBvAHAAeQAgADYAAG9iaiAAAAACRW5tcgAAAAEAAAAAAABQYXRoAAAAAFBhdGgAAAAKdmVjdG9yTWFza25hbWUAAAABAAAAAAAATHlyIAAAABMAUgBlAGMAdABhAG4AZwBsAGUAIAAxACAAYwBvAHAAeQAgADYAAG9iaiAAAAACRW5tcgAAAAEAAAAAAABQYXRoAAAAAFBhdGgAAAAKdmVjdG9yTWFza25hbWUAAAABAAAAAAAATHlyIAAAABMAUgBlAGMAdABhAG4AZwBsAGUAIAAxACAAYwBvAHAAeQAgADYAAG9iaiAAAAACRW5tcgAAAAEAAAAAAABQYXRoAAAAAFBhdGgAAAAKdmVjdG9yTWFza25hbWUAAAABAAAAAAAATHlyIAAAABMAUgBlAGMAdABhAG4AZwBsAGUAIAAxACAAYwBvAHAAeQAgADYAAG9iaiAAAAACRW5tcgAAAAEAAAAAAABQYXRoAAAAAFBhdGgAAAAKdmVjdG9yTWFza25hbWUAAAABAAAAAAAATHlyIAAAABMAUgBlAGMAdABhAG4AZwBsAGUAIAAxACAAYwBvAHAAeQAgADYAAG9iaiAAAAACRW5tcgAAAAEAAAAAAABQYXRoAAAAAFBhdGgAAAAKdmVjdG9yTWFza25hbWUAAAABAAAAAAAATHlyIAAAABMAUgBlAGMAdABhAG4AZwBsAGUAIAAxACAAYwBvAHAAeQAgADYAAG9iaiAAAAACRW5tcgAAAAEAAAAAAABQYXRoAAAAAFBhdGgAAAAKdmVjdG9yTWFza25hbWUAAAABAAAAAAAATHlyIAAAABMAUgBlAGMAdABhAG4AZwBsAGUAIAAxACAAYwBvAHAAeQAgADYAAG9iaiAAAAACRW5tcgAAAAEAAAAAAABQYXRoAAAAAFBhdGgAAAAKdmVjdG9yTWFza25hbWUAAAABAAAAAAAATHlyIAAAABMAUgBlAGMAdABhAG4AZwBsAGUAIAAxACAAYwBvAHAAeQAgADUAAG9iaiAAAAACRW5tcgAAAAEAAAAAAABQYXRoAAAAAFBhdGgAAAAKdmVjdG9yTWFza25hbWUAAAABAAAAAAAATHlyIAAAABMAUgBlAGMAdABhAG4AZwBsAGUAIAAxACAAYwBvAHAAeQAgADUAAG9iaiAAAAACRW5tcgAAAAEAAAAAAABQYXRoAAAAAFBhdGgAAAAKdmVjdG9yTWFza25hbWUAAAABAAAAAAAATHlyIAAAABMAUgBlAGMAdABhAG4AZwBsAGUAIAAxACAAYwBvAHAAeQAgADUAAG9iaiAAAAACRW5tcgAAAAEAAAAAAABQYXRoAAAAAFBhdGgAAAAKdmVjdG9yTWFza25hbWUAAAABAAAAAAAATHlyIAAAABMAUgBlAGMAdABhAG4AZwBsAGUAIAAxACAAYwBvAHAAeQAgADUAAG9iaiAAAAACRW5tcgAAAAEAAAAAAABQYXRoAAAAAFBhdGgAAAAKdmVjdG9yTWFza25hbWUAAAABAAAAAAAATHlyIAAAABMAUgBlAGMAdABhAG4AZwBsAGUAIAAxACAAYwBvAHAAeQAgADUAAG9iaiAAAAACRW5tcgAAAAEAAAAAAABQYXRoAAAAAFBhdGgAAAAKdmVjdG9yTWFza25hbWUAAAABAAAAAAAATHlyIAAAABMAUgBlAGMAdABhAG4AZwBsAGUAIAAxACAAYwBvAHAAeQAgADUAAG9iaiAAAAACRW5tcgAAAAEAAAAAAABQYXRoAAAAAFBhdGgAAAAKdmVjdG9yTWFza25hbWUAAAABAAAAAAAATHlyIAAAABMAUgBlAGMAdABhAG4AZwBsAGUAIAAxACAAYwBvAHAAeQAgADUAAG9iaiAAAAACRW5tcgAAAAEAAAAAAABQYXRoAAAAAFBhdGgAAAAKdmVjdG9yTWFza25hbWUAAAABAAAAAAAATHlyIAAAABMAUgBlAGMAdABhAG4AZwBsAGUAIAAxACAAYwBvAHAAeQAgADUAAG9iaiAAAAACRW5tcgAAAAEAAAAAAABQYXRoAAAAAFBhdGgAAAAKdmVjdG9yTWFza25hbWUAAAABAAAAAAAATHlyIAAAABMAUgBlAGMAdABhAG4AZwBsAGUAIAAxACAAYwBvAHAAeQAgADUAAG9iaiAAAAACRW5tcgAAAAEAAAAAAABQYXRoAAAAAFBhdGgAAAAKdmVjdG9yTWFza25hbWUAAAABAAAAAAAATHlyIAAAABMAUgBlAGMAdABhAG4AZwBsAGUAIAAxACAAYwBvAHAAeQAgADUAAG9iaiAAAAACRW5tcgAAAAEAAAAAAABQYXRoAAAAAFBhdGgAAAAKdmVjdG9yTWFza25hbWUAAAABAAAAAAAATHlyIAAAABMAUgBlAGMAdABhAG4AZwBsAGUAIAAxACAAYwBvAHAAeQAgADUAAG9iaiAAAAACRW5tcgAAAAEAAAAAAABQYXRoAAAAAFBhdGgAAAAKdmVjdG9yTWFza25hbWUAAAABAAAAAAAATHlyIAAAABMAUgBlAGMAdABhAG4AZwBsAGUAIAAxACAAYwBvAHAAeQAgADUAAG9iaiAAAAACRW5tcgAAAAEAAAAAAABQYXRoAAAAAFBhdGgAAAAKdmVjdG9yTWFza25hbWUAAAABAAAAAAAATHlyIAAAABMAUgBlAGMAdABhAG4AZwBsAGUAIAAxACAAYwBvAHAAeQAgADUAAG9iaiAAAAACRW5tcgAAAAEAAAAAAABQYXRoAAAAAFBhdGgAAAAKdmVjdG9yTWFza25hbWUAAAABAAAAAAAATHlyIAAAABMAUgBlAGMAdABhAG4AZwBsAGUAIAAxACAAYwBvAHAAeQAgADUAAG9iaiAAAAACRW5tcgAAAAEAAAAAAABQYXRoAAAAAFBhdGgAAAAKdmVjdG9yTWFza25hbWUAAAABAAAAAAAATHlyIAAAABMAUgBlAGMAdABhAG4AZwBsAGUAIAAxACAAYwBvAHAAeQAgADUAAG9iaiAAAAACRW5tcgAAAAEAAAAAAABQYXRoAAAAAFBhdGgAAAAKdmVjdG9yTWFza25hbWUAAAABAAAAAAAATHlyIAAAABMAUgBlAGMAdABhAG4AZwBsAGUAIAAxACAAYwBvAHAAeQAgADUAAG9iaiAAAAACRW5tcgAAAAEAAAAAAABQYXRoAAAAAFBhdGgAAAAKdmVjdG9yTWFza25hbWUAAAABAAAAAAAATHlyIAAAABMAUgBlAGMAdABhAG4AZwBsAGUAIAAxACAAYwBvAHAAeQAgADUAAG9iaiAAAAACRW5tcgAAAAEAAAAAAABQYXRoAAAAAFBhdGgAAAAKdmVjdG9yTWFza25hbWUAAAABAAAAAAAATHlyIAAAABMAUgBlAGMAdABhAG4AZwBsAGUAIAAxACAAYwBvAHAAeQAgADUAAG9iaiAAAAACRW5tcgAAAAEAAAAAAABQYXRoAAAAAFBhdGgAAAAKdmVjdG9yTWFza25hbWUAAAABAAAAAAAATHlyIAAAABMAUgBlAGMAdABhAG4AZwBsAGUAIAAxACAAYwBvAHAAeQAgADUAAG9iaiAAAAACRW5tcgAAAAEAAAAAAABQYXRoAAAAAFBhdGgAAAAKdmVjdG9yTWFza25hbWUAAAABAAAAAAAATHlyIAAAABMAUgBlAGMAdABhAG4AZwBsAGUAIAAxACAAYwBvAHAAeQAgADUAAG9iaiAAAAACRW5tcgAAAAEAAAAAAABQYXRoAAAAAFBhdGgAAAAKdmVjdG9yTWFza25hbWUAAAABAAAAAAAATHlyIAAAABMAUgBlAGMAdABhAG4AZwBsAGUAIAAxACAAYwBvAHAAeQAgADMAAG9iaiAAAAACRW5tcgAAAAEAAAAAAABQYXRoAAAAAFBhdGgAAAAKdmVjdG9yTWFza25hbWUAAAABAAAAAAAATHlyIAAAABMAUgBlAGMAdABhAG4AZwBsAGUAIAAxACAAYwBvAHAAeQAgADMAAG9iaiAAAAACRW5tcgAAAAEAAAAAAABQYXRoAAAAAFBhdGgAAAAKdmVjdG9yTWFza25hbWUAAAABAAAAAAAATHlyIAAAABMAUgBlAGMAdABhAG4AZwBsAGUAIAAxACAAYwBvAHAAeQAgADIAAG9iaiAAAAACRW5tcgAAAAEAAAAAAABQYXRoAAAAAFBhdGgAAAAKdmVjdG9yTWFza25hbWUAAAABAAAAAAAATHlyIAAAABMAUgBlAGMAdABhAG4AZwBsAGUAIAAxACAAYwBvAHAAeQAgADIAAG9iaiAAAAACRW5tcgAAAAEAAAAAAABQYXRoAAAAAFBhdGgAAAAKdmVjdG9yTWFza25hbWUAAAABAAAAAAAATHlyIAAAABMAUgBlAGMAdABhAG4AZwBsAGUAIAAxACAAYwBvAHAAeQAgADIAAG9iaiAAAAACRW5tcgAAAAEAAAAAAABQYXRoAAAAAFBhdGgAAAAKdmVjdG9yTWFza25hbWUAAAABAAAAAAAATHlyIAAAABMAUgBlAGMAdABhAG4AZwBsAGUAIAAxACAAYwBvAHAAeQAgADIAAG9iaiAAAAACRW5tcgAAAAEAAAAAAABQYXRoAAAAAFBhdGgAAAAKdmVjdG9yTWFza25hbWUAAAABAAAAAAAATHlyIAAAABEAUgBlAGMAdABhAG4AZwBsAGUAIAAxACAAYwBvAHAAeQAAb2JqIAAAAAJFbm1yAAAAAQAAAAAAAFBhdGgAAAAAUGF0aAAAAAp2ZWN0b3JNYXNrbmFtZQAAAAEAAAAAAABMeXIgAAAADABSAGUAYwB0AGEAbgBnAGwAZQAgADEAAG9iaiAAAAACRW5tcgAAAAEAAAAAAABQYXRoAAAAAFBhdGgAAAAKdmVjdG9yTWFza25hbWUAAAABAAAAAAAATHlyIAAAABEAUgBlAGMAdABhAG4AZwBsAGUAIAAxACAAYwBvAHAAeQAAb2JqIAAAAAJFbm1yAAAAAQAAAAAAAFBhdGgAAAAAUGF0aAAAAAp2ZWN0b3JNYXNrbmFtZQAAAAEAAAAAAABMeXIgAAAADABSAGUAYwB0AGEAbgBnAGwAZQAgADEAADhCSU0EBgAAAAAABwAFAAAAAQEA/9sAQwAGBAUGBQQGBgUGBwcGCAoQCgoJCQoUDg8MEBcUGBgXFBYWGh0lHxobIxwWFiAsICMmJykqKRkfLTAtKDAlKCko/9sAQwEHBwcKCAoTCgoTKBoWGigoKCgoKCgoKCgoKCgoKCgoKCgoKCgoKCgoKCgoKCgoKCgoKCgoKCgoKCgoKCgoKCgo/8IAEQgB8gICAwEiAAIRAQMRAf/EABsAAAMBAQEBAQAAAAAAAAAAAAADBQQGAgEH/8QAGQEBAQEBAQEAAAAAAAAAAAAAAAIBAwQF/9oADAMBAAIQAxAAAAH9UAAAAAAAAAAAAAAAAAAAAAAAAAAAAAAAAAAAAAAAAAAAAAAAAAAAAAAAAAAAAAAAAAAAAACdG08kdmz87+neaeTin6ZO5P0foHz80yH6O/iJx+o+ODnH6jzNGYV6XJcifq83816o7mB0HHjOj/Pcp2rZ6y/UgXwAAAAAAAAAAAAAAAAAAAAAAAAAAAAAAAAAAAnUQAAAAAAAAAAAAAAAAAAAAAAAAAAAAAAAAAAAADzkfyb1dKc0PT0v3mXMvnNDelOaDpvkBLOlOaG9L95lzL5zQ3pTmg6b5ASzpTmhvS/eZcy+c0N6U5oOm+QEs6U5ob03yAlnSnNDel+8y5l85ob0pzQdN8gJZ0pzQ3pfvMuZfOaG9Kc0HTfICWdKc0N6XXx/WPM4B5QAABPJ9Zyb6Kp9XG9exyXNTn0ZDHXw7mOS5LUy6edO9yXKTBvTU7mKatyXJZGoePadLkuUmNZxsXQy6muS5JBvZNbHJclpzHTyE13JcpICuY6SfSc35dSW81v9NRvclzpmk2cbMlfJrHZ9CSKa1IqdZyfWPO4B84AAATyfV80+gkcPalw1OQcKSOATrUlI4Ulw1OQcKSOATrUlI4Ulw1OQcKSOATrUlI4UJ1qSkcKS4anIOFJHAJ1qSkcKS4anIOFJHAJ1qSkcKT1nM9K8TwHzwAABPJ9Zyb6OZX1D1VHJcpPz7iaqlFtJclyWoT4yotOS5acG+Eys/Hsa6TWkI+vn6Ci5LlzVtnooa8O5bsO7KzKTtKLiXJdJ6/Uhz6lyXOiZ1GWz5U5npWaMO6cY9Eiiiq5LnXFh2yEb6EW0p2TXjMnzB6c7/Wcn1jg4B84AAATyfWcy+gkcPalw1OQcKSOATrUlI4Ulw1OQcKSOATrUlI4Ulw1OQcKSOATrUlI4UJ1qSkcKS4anIOFJHAJ1qSkcKS4anIOFJHAJ1qSkcKT1nM9M8TgHzwAABPJ9Zyb6Pjyue9dlyXNT8+yje6TWHJck+JzY03HJcpPj7EZV0RrI7NpgMosl7DY5LlZ15MKbnuVVU7Jrmp0fZXstpclWdkaa59e5LnROfRCZQ2Sqo/PowHo5qwmo5LloT8jpsvi2muS7IeTndiLvWcn1jzuAfOAAAE8n1nMvoY/O4exLhrMi9Q3BpcAnWpmVW8alw1mTLQGy9zgMdFSZ7tQpLhrMCaA3G5wE2upOL7sFCdamR9mwEuGmSdXDG5w0yUFJme6A1LhpgzUwn6nDTPtUyaUgT1nM9M8jgHzwAABPJ9Zyb6IZ8T2VXJcJDE3aSazHJdmZ7IrSq5LmpPMYtkS2OS6Wzcc9SN7kuakx4GWydRU5LpydZztFldLkqCH9TbclykhCLpzvQsel2Mcc1SZTclyki5BbItocl2dnog/GX+s5PrHlcA+cAAAJ5PrOTfRy56Q9g5LhOLaNn0AY5Lkkn3TGDkuamZTCXUAdCupTJ1bBo5LmxfVIZOog10ewlMfVuGuS5LZC7YkclykyK4Rq/oHYN6WQN1EYOS5WGbaGSqoNdj2JZC0VRh1nJ9Y8rgHzgAABPM9Nyb6DjB6eva3I4DPgK5N2N1qM7NBK9lJuRwGTGVyTQbrUTE0yPubqbkcBOSVzBpbrUT00CPsbRUJHExTLDcjmgnE2mSt5rUYU7iX9bTbkcBjzlQm7G61Gdmgj+mVum5PrHlcA+eAAAJ5PrOTfRmrrD1jkubn5jqRkewDXZ9CWc6+2MHJcrHzfVDIN4GuhXUp5urvAclypUPqxMuoCnTKaWcrXpjHJclXKHVjmOS50Ty3UjOa6L2DpNZJytKwJHJcuXI6UTEtgp0ymlnJ7rwk6zk+seZwD5wAAAnmem5N9Bwke1zcjkgkU4SGtQlLhIpzcjkgkU4SGtQlLhIpzcjkgkU4SGtQlLhIrWoSlwkU5uRyQSKcJDWoSlwkU5uRyQSKcJDWoSlwkU7puT6x4nAPngAACeT6zk30eU6rBver65Llc+qvjc6Pvz6dXc70WBzh3U6hjkuXDg9Focvb/AD6dmcj1stxndFOorGqarllWPrjQAehvG9nhcY3QyqqnRbSTjrL3o1OS51j4LPlEjoc2lTuQ6+UiRdzUG+nJcuPH6XK54rmLat2bSk51tBbnR6zk+scHAPnAAACeZ6bk30HCR7XNyOSCRThIa1CUuEinNyOSCRThIa1CUuEinNyOSCRThIa1CUuEitahKXCRTm5HJBIpwkNahKXCRTm5HJBIpwkNahKXCRTum5PrHicA+eAAAJ5PrOTfRTi1fXr0OS5uXDSisbVkVx2LbhZj9qami5LnTJNox0PrwrrXTKcgwWpW1O5yXOk3I6Y51t2TW6Ow7pacFCTQRZS5LrE+fUuPQuS52TEt8+nTXh2jRk15Gxd2XQ503Jc65ZdbClNadRa7LqxE/wC4tDnb6zk+scHAPnAAACeT6zmX0Ejh7UuGpyDhSRwCdakpHCkuGpyDhSRwCdakpHCkuGpyDhSRwCdakpHChOtSUjhSXDU5BwpI4BOtSUjhSXDU5BwpI4BOtSUjhSes5npnicA+eAAAJ5PrOTfRV5xeHqruS5ScruYT0WmVVa7LqxHj1JSjpHJc6Z8rZCaO2RXa7Jr5pNLRB3FVyXLzZsUxz6dsqq6Ow7oqdLIFNllLkrxs53w5da5LnVM+hJZo3RbBoy6orNHrnbCajkudM2dMdF/VDuKdn0Tg+c7Sc7nWcn1jg4B84AAATyfWcy+hm86x7EuGsyL1DcbnAZKCkz36RSXDWY81AbN2OAz7VMwu0DUuGsxo3Dc3twGSgpOL3qFCdamYmaRqXDWZPGkbM2PGGfapmH7tGpcNMaNw3E9wCdamYjaCes5npnkcA+eAAAJ5PrOTfRCal67DkuakXAZ0ZHsNcl2JjyIMtuS5SRfPM6Ug3muS6Emuc7XbrclzUkf4myTKanJdCTXIji2lyVBBE3nJcpIcwzpyPYa5LpCaJytQrOS5STDET1JCuqcl0JNckTjqOs4XunkcA+eAAAJ5Pq+afQweKQ9aXDTJLtBL3OGmCopMh1Ealw0n4LQSKLgJdlTIuveNS4aSUWAl7nDSfVUmLopAJ1qbOw3xiXDW5JNwJuxw0xUlJhvqglw1s7FZCVvcBOrKZJRdDD2nM9K8jwHgAAAE8n1nHPotJGp69rkuakzz2WDBvU5Lo6KRKoKa5LhJP8MpmfQpyXSk7yc9upyXCTHmZVMmtTkuwp0EXcUkuS0JXlldyXNSEkrEisPS6SygSvJXdm0iSd9KBN1t2pZJTSJDG0+s5PrHkcA+cAAAJ5PrOTfR5mjVHqHJcqdD6cTKqgp0C+lPN2dY0clzeZ+3xODeC3Q7iUc3TogOS5UDH0omdRBbpFdKJDKY1yXJby/rphA5Llp5jpxnM9H7B0ewlkBHTDEbUuVF+0wi7NwOh3Es5jZbGHWcn1jzOAfOAAAE8z03JvoOMw9mluRzAzpbuMbjWoxJ2mJ6nNyOYGb43UI+t1qMKNxPc3U3I4DJ8bsM3s1qMKdxMc2koSOMQ3a3I5gJQ3aYnmtRmTpMylbm5HMDMpu4zezWozJ0mL43d03J9Y8jgHzwAABPHdjyb6MNlIelzkuXhlVMyF1s2lboN6aiXXXrb6clyuQT1Xxy+P8APp2dEtz0SahoGOS5XPz+jW5opJc6Om0sacGh7muS5LeVLo47XJc7J5XqsSYfS59g7n+gxknxZzpbvQ9fO6NudMrpM2lTec6TEmM/T6Zu6zk+sedwD5wAAAnmem5N9Bwke1zcjkgkU4SGtQlLhIpzcjkgkU4SGtQlLhIpzcjkgkU4SGtQlLhIrWoSlwkU5uRyQSKcJDWoSlwkU5uRyQSKcJDWoSlwkU7puT6x4nAPngAACeO7Hk30YT/Ox6NjkudMMmnnQi1Ooqdz3Qykyb+DeOcly+b87vLlp159Dq7nuhmok0FbWanJc6R07c6Cmh63RLc1E3R7YyqlyXTlvtT441XJc7ZOe6aSjBuNSacK7OVgzbBNDbm0ukA2+U4acyyPg9BLJnt/tNTrOT6xwcA+cAAAJ5Psh6ONOyHfjXdYM407Ibxp2QcmnshnGnZDeNd1gzjTshvGnZYiAnrHM407JbeRd0vtnIl+m3jTssxzieuUzljslt5dPXMZxp2C28m7rFs5E7JbeROyDk09kM407IbxrusGcadkN407IOTT2QzjTshvG9Y4cAB5wAAAAAAAAAAAAAAAAAA57oQ4yX+j5TmsHZtPz/z3O8/Pvv6AHEx/04Pz53Y6jg536aHB5/0QOMm/oofnNzqg4Cf+nhn0AAAAAAAAAAAAAAAAAAAAAAAAAAAAAAAAAAAAAAAAAAAAAAAAAAAAAAAAAAAAAAAAAAAAAAAAB//EAC4QAAEDAwQDAAEDBAMBAQAAAAMAAQIEEzMREiAyBRAUIRUjMSIkNFAGNWBAcP/aAAgBAQABBQL/APFPIVPx0beXj+j+O8hCrpK6uHTU/wCpg+6nrIzE9SJxB8g5WeoCxi1IBTJ5EEPI0lVeiKoCaEaqnlKoNCnD+rHZvvg1ZIw4C+kDhqfK0oJznEY/H+VHWkB5l5k+qnt+T8sKieu8hIFR46rjW0/+m/5D/wBNan+qUk2B4w5YnRmpxeeqNP0aHzl8hT5KN6IQ/MSiSph88PKvCc6CncBvINTBH4TzlPOr8VDzgNkaYNT58ZWj4Pa36T5qno6SWkZQ8bJh+XpfJU3kPJ1M4P5P/kW39O8/5X438J8vwf6utpIVcP8A1kn0b6RL6RL6RL6RL6BL6RL6RL6RL6RL6BafSJfSJfSJfSJfQLT6RL6RL6RL6RL6BL6RL6RL6RL6RJ6gTL6RL6RL6RL6RJ6gTP8ASJfSJfSJNUCd/pEvpEvpEvpEvoEvpEvpEvpEvpEvoFp9Il9Il9Il9Il9AtPpEvpEvpEvpEvoEvpEvpEvpEvpEovq3E2HhDrwbDwfDwn14F7cDZvYc3CHXg2Hg+HhPrwDh4mwom7b455SplDqjRlOFNq1SmwosXkOlfSrT4V5M07I+in1VXvlUU8oyEi9lWEe/Rv+0jZk4mesQc3opXuKHX1UG2KL6xbDLXbdJGkE1qsT4Za7aNybqJ53lPq/8AuyLCLjrEHDxNh9UwbA1DqqmEyCphTFFNhRYXBjDK8nwqqoxHgODQgp9UUZHmATCGi9kYTykAVqKNmQhbCoOb09I+ih19Fp5E9NhXy6hEKTFT4UENuYhWyqfVWZNOlAQHoOHibDwh14Nh4Ph4T68C9uBs3sObhDrwbDwfDwn14Bw8TYrpFdIrpFdIoEntukV0iukV0iYk7V0iukV0iukTknaukV0iukV0imSe26RXSK6RXSIhJtK6RXSK6RXSIpJsW6RXSK6RCJNy3SK6RXSK6RQJPbdIrpFdIrpExJ2rpFdIrpFdInJO1dIrpFdIrpFMk9t0iukV0iukQcXE2FGm8IgM85qHX1SVLVPpsKMRhCEQjzT4UU0mKEjFEp9aypamEQ07lOW8FF7VJmANzTeNOW9BGzGKwoDqIypKM/0ADmT1LfS9RLVQ6olS0agtVsdNhNNxwlVuNBNJyp8JZ2x/TOMhmleU+pJbBwPO8KqiWqQcPE2FVRnCKi09Q6qqFIwqGBYnTYVXDctLTxb6k+FVMdamkaTUyn18hF5UMv2aqhg8KZF7VTa0xDTDT0jQYKNmJ0DTklSeNjOFMHMjRd6yQNrKHVVUXc9QN3k38NhqSuEUoXACe7Vp8JyWhBLtVI+8qn1LO2Me46pwlHXIOHibDwh14Nh4Ph4T68C9uBs3sObhDrwbDwfDwn14Bw8TYtRrUa1GtRqDw26jWo1qNajTPC1qNajWo1qNO8LWo1qNajWo1N4bdRrUa1GtRojw3ajWo1qNajRdl3Ua1GtRoWy7qNajWo1qNQeG3Ua1GtRrUaZ4WtRrUa1GtRp3ha1GtRrUa1GpvDbqNajWo1qNBxcTYVKTRjCcSRUOvoZIFZNh9DLArJ8K1bUZhkdT6ydosQwxNGTTii9n/DSJCEIu0mRsxJwHGMmlGLtJg5ldHceTR9Q6pzDYkqoEZJsLvo0CjnAZRlZPhQyjIwywJ6n1QyjIoFHOSDh4mwozQk1Hq1SodV5LX5g6tWJsKro76WEpy8inwv/FOKN8bRLVKfXysGlRThOVTTFvCRe1fBp0ru68f+BI2aotQQAO4fF/8AXhzIw4SVQXfUqHVVUISap/dqE2E7DlCp3NPTTyKfCdoSFJo/XHWPkVPqTbbrNwphZxlQcPE2FEHEkRCiP1DqpxacRCgP02FTi04iDAXp8KcA3QqYYvU+pIRIMgIEUYtCKL2nFpxmAcojhEcUbManGZxjYbChEQw5lGjFF5jjP1DqvjFuYcbibCSESRanFtECAnT4ZxacY0wmYYIDdT6u2rDpxjcdOMckHDxNiturbq26tuoQfbbdW3Vt1bdNB7Vt1bdW3Vt08HtW3Vt1bdW3U4Ptturbq26tuiQfdbdW3Vt1bdFg7lturbq26FB2LbdW3Vt1bdQg+226turbq26aD2rbq26turbp4Paturbq26tupwfbbdW3Vt1bdBxcTYeEOvBsPB8PCfXgXtwNm9hzcIdeDYeD4eE+vAOHibCjEYQ6AhSQUOqq5yHT0hd5U2GX4iElQRhSnGrT4X/iNQSKpSykRT6miWUwmLUKjJIgUXsWJZSFUz+agJItGjZjRJJ/onaoiOWAcyKQozVDnFFQ6qqIUUyVMnImwlmwxxqj2hPOFUnwzk0IU1RORKM5S1Kn1d9GFUlJU0lQ8zIOHibCjBgZUdPY9Q6qqE5hCHO+mwq0aDUgyC9PhXz7pQEVyKfWrGcs5DNdpRWhIvasgcianiRUIHp6VGzVkDzZwk0phSg4cyIExI26n6FDqjhMWJKcm1m0ZsJgwNH4X0EMl9PhMKBoRoYXQUtqqU+pRxKN6H94YSXEHDxNh4Q68Gw8Hw8J9eBe3A2b2HNwh14Nh4Ph4T68A4eJsVx1cdXHVx1Cb7bjq46uOrjppvauOrjq46uOnm9q46uOrjq46nN9tx1cdXHVx0Sb7rjq46uOrjos3Ytx1cdXHQpu5bjq46uOrjqE323HVx1cdXHTTe1cdXHVx1cdPN7Vx1cdXHVx1Ob7bjq46uOrjoOLibCjlYIxzefqHV3ZmarG4QnYk02F/wAIdUMkQmcvp8JJxGNqqOoqlpzU+pT7J/XHbB3lFF7GMw3+qDwAVjQRsxisJfVG0OTzYOZFqIDNKri0lDqj1EAzlUfupsJyMEV/aMJ7k0+Es2GOJ9YBM5fU+rvo0auDoVS05oOHibCq5oOKklqVQ6u2rP8A44ZxNXJsLszszM8APH6E+EpIiHOcKyECwOdT61lXEMttLFUTycKL2qSxggOwZ0P5ijZqgsRtBh7KN3dBzIkDwqJSi1ModVUwPEh7cXjro2GtaL05/wAwFOBq1PhrGaVLN4SYDx+hT61kHJSE/rFAsDnQcPE2HhDrwbDwfDwn14F7cDZvYc3CHXg2Hg+HhPrwDh4mxajWo1qNajUHht1GtRrUa1GmeFrUa1GtRrUad4WtRrUa1GtRqbw26jWo1qNajRHhu1GtRrUa1Gi7Luo1qNajQtl3Ua1GtRrUag8Nuo1qNajWo0zwtajWo1qNajTvC1qNajWo1qNTeG3Ua1GtRrUaDi4mw8IdeDYeD4eE+vAvbgbN7Dm4Q68Gw8Hw8J9eAcPE2FT/AKvcOtdF7tcEe2Ou1Nh8lF9tW244H1Cnw1YwqsK7UQXaQkX8wLH5SwHAJPRe04NTVFL/AB6P+CxqYGryghEqDmrahgxBKPwUH4moda+Eygc46SPiXj6bCbUs9kKhU8nkBPh8hKUKMz/PGniwqpT6yZpMCmESoEOEa1Bw8TYVOmjN/UOpRMRPS/vt/CbCYTGiSn3ThFoQT4S0u88xXKdm0ZGZpDhSxZBpWHL0b+YUsYqFNGMvRs0xNIgqS1JBzL5YWwiYfqHUwmLEQrbiEw5JsJaaM3JSRm7NoyfCSDEh80UMG2an1UANAFPTWGQcPE2K26turbq26hB9tt1bdW3Vt00HtW3Vt1bdW3Twe1bdW3Vt1bdTg+226turbq26JB91t1bdW3Vt0WDuW26turboUHYtt1bdW3Vt1CD7bbq26turbpoPaturbq26tung9q26turbq26nB9tt1bdW3Vt0HFxNh4Q68Gw8Hw8J9eBe3A2b2HNwh14Nh4Ph4T68A4eJsKJveNGQpfUOsn2xp6h5ioqiVQ6bCV5MOBSRPSnkWafCR5RHfKIwDzcin1M5tz1rvAWrwRe1SayMRTmp6UrlgjZjEYQxVRSBpyvNw5kOokSo+qUiKHVTqpXKgxhemwz3PFqkzREQl9Phnu2inUTKAhpVKn1m+2ATzcgKpzVaDh4mwqp3/OAbCCodVGleY6MJBGTYTynEVG02enHKJ0+EryiMUTSjTheJlPrUbncUCgakG4xIvY9PcJCNUGjpm0EjZjAukHTkhSUQbSDmUxkmOVPNhqHVEp526oZCs38NhJrseml+miac6lPhf+KEchUtCOQ6dT6maUhRpdyDTTHWoOHibDwh14Nh4Ph4T68C9uBs3sObhDrwbDwfDwn14Bw8TYrjq46uOrjqE323HVx1cdXHTTe1cdXHVx1cdPN7Vx1cdXHVx1Ob7bjq46uOrjok33XHVx1cdXHRZuxbjq46uOhTdy3HVx1cdXHUJvtuOrjq46uOmm9q46uOrjq46eb2rjq46uOrjqc323HVx1cdXHQcXE2FEnEcRFiVlDqomHKAjQL6bDOTQgI8CvEsJET4XdmYdQIiFUiLJT6knEcJVIosOcSQRe0naMfoHaHOJIo2YpYia/C2IkSxDmT1AmJMsByUOqJViGpVQoyTYZyaEWqBvAR4FdPhlJoxgcc0I0COp9X/AAwzjIh1AiSQcPE2FV+Ol1aqUOsotOMm/tA6xrE2EzwYb3Zv49tlanwmeERT0+0X9wdT6+QuTVI/73jv8dF7VtycqZ5SD4/8DRs1VBplk5CHpHfcHMoboUx7n0KHVF/drqjQyb8M2HyP+LVbmn/PkU+HyGnxVOsXE041qn1qotOmqrxIi1iVBw8TYVKLSiOEBxUOqaEWYY4CZNhnCJIjpwifa25PhTAEzQpgQkp9XbVphFOLMzMi9k4RuOMWjFGzThEkbY7cIxhEOZWh3Hi0vUOq2tulS08nTYXZnaAhwiMQxMnwoYRjYYhj9T6oYhjUBDg6Dh4mxaDWg1oNaDUGht0GtBrQa0GmaFrQa0GtBrQadoWtBrQa0GtBqbQ26DWg1oNaDRGhu0GtBrQa0Gi7Lug1oNaDQtl3Qa0GtBrQag0Nug1oNaDWg0zQtaDWg1oNaDTtC1oNaDWg1oNTaG3Qa0GtBrQaDi4mw8IdeDYeD4eE+vAvbgbN7Dm4Q68Gw8Hw8J9eAcPE2FV0niKjK0qhQ6y12sQkaOjnqdNhLGUxjj/dUcdahPhmzvCRXpyUruxVPrXFlsk5JxpnjISL2rd7luta8bJ50KNmrSOxBs8w+Pk8hBzIw2erqYSH6h1RyuxKpyxqE2GulKNOSoaLia1WJ8NY840xD7HCaH1qfXyTkjTka9WQM8mopSlSBw8TYUaDzgEWySh1Xy/tiFJipsJ4zmKmDMLUorAE+Ekd8PmcjwBK4p9T0wjNGmkKABWoIvYo5vKNILSjA1NTo2Yw3m7U0mQBW3DmUBbaiNOaJlDqp0ryYwbkk2E0HIOVJcYQpMVPhLC4P55SQwyYin1qRXglDNzRpXEgDYQg4eJsVoitEVoitEUBz22iK0RWiK0RMOdq0RWiK0RWiJxztWiK0RWiK0RTHPbaIrRFaIrREQc3laIrRFaIrREUc3LaIrRFaIhDmxbRFaIrRFaIoDnttEVoitEVoiYc7VoitEVoitETjnatEVoitEVoimOe20RWiK0RWiIOLibDwh14Nh4Ph4T68C9uBs3sObhDrwbDwfDwn14Bw8TYSTaEY1e6mAV5zUOppuOEqtxuE0pFTYTnmNTqZajk0xp8NbUtSglUT3gIxgqfUxpRNMxGnTlvCRexivGf0zVOW7BGzFcjIdXOY6ct1BzJ6r8yq3b1DqpVTsiVco+mwmqWGQtTKMp1bqL7ovhqalgPVVLARTzYopsURPxAdU009VIbiPNyIOHibCojnGlpv66lQ61JXCKUbggvcq02Gs0mw3IBUsHFTJ8PkKcsow3U56KEh0in1qYivBaYC0MXiBF7VYovUjhIRKNn2o2av3PS1Mbc6Nn3hzJxy1eMmAodVUieaI0oii2kWw1kXk83cJIRlTRBHYF8PkIvIPkIvKmlJw1VENxUk+sNR1H5qoDk5jIOHibDwh14Nh4Ph4T68C9uBs3sObhDrwbDwfDwn14Bw8TYt7Ley3st7KEm272W9lvZb2TSa1vZb2W9lvZPJrW9lvZb2W9lOTbd7Ley3st7Ikm3b2W9lvZb2RZNd3st7LeyFJru9lvZb2W9lCTbd7Ley3st7JpNa3st7Ley3snk1rey3st7LeynJtu9lvZb2W9kHFxNhUZNJRk0vUOruzNEw5wGSBWTYZlHB5lHB/T4ZSaMXkzR9T6kKMSc4YwhOM4ovac4ji5INCMmlFGzFMMS+qn2jKMrBzK6O5dGxFDqnKNiOUbTTYXdmUpNFTMOEk+GUmiiGGNPJosp9dW1gUZEMwyOg4eJsJI74+Pgz0Xi20pVDqaMJjiOByUzXKhNhrIbxzaJqOnk0wJ8Plp7x+QJdpgvqJT6mhOVZGRKktMW6NF7VFx68e5z0XRGzVZbNP8A4VDSitBDmT7rRNXGodVU7h01Q8h08OjYa6DXfIjbXRpPTavTvh8nBnjU7IPVgt0SJ0p4QgacG+wbRLVIOHibChjiOIxxHFQ6nDA45UYpQGGI/TYSU4ySnTCm7NoyfCSESQmOMxt+GU+pQwK8qcbtCLQii9ijiRPTj2DhEcUbMQcSRIOJYoOZfMLe9MJ5qHVPTCckqcUiJsMxxmiDiRFphFknwkHEjTpRSLIUJDU+rDhu+QOgqYYvQcPE2LYy2MtjLYyhFtuxlsZbGWxk0WtbGWxlsZbGTxa1sZbGWxlsZTi23Yy2MtjLYyJFt2xlsZbGWxkWLXdjLYy2MhRa7sZbGWxlsZQi23Yy2MtjLYyaLWtjLYy2MtjJ4ta2MtjLYy2MpxbbsZbGWxlsZBxcTYeEOvBsPB8PCfXgXtwNm9hzcIdeDYeD4eE+vAOHibCTdtpGIako3e6odTRlOESWS+Pcu9Nhr2eMJlkUgn3CT4fJmnZPP9yllKVMp9aqbyqhPfJQylICL2rdkQjppMGgeUgI2aultcJ5WPGPJ6QOZSPshdebqHUm7bCZHojTkCVHLUrYaxyRLWQ2w/cMgS3hfD5ByxauZ2jNtQU2/wCcnQBJQME02q6aZZV6Dh4mwp6WbUwITHFQ61MJkEOm/bpqWFORNhIIjzalcbCgwhp8NVRiPBqZxzANghU+pRScjUjjenFZEi9qgV5qsEzoTTaKNmOJ5yjSDVJTxphBzJ6aUnnSvJlDqvk/tnpHm4gvErYTiuqdOV6mdMR3i22L4akN6ExkufHOMo67Z9WA1xqEDHHRiHVIOHibDwh14Nh4Ph4T68C9uBs3sObhDrwbDwfDwn14Bw//AEHqRAcRIFH63NvISAlKcYv91Pu9XxsSEt7XoXFKUYKEt7J30YJImEmnGUlOcRw/1UijpfIyMKRo1E3hcPdlIwhEeBaqqg8qgc6eM6SBoBDUfPVR0JTjOznpiGuCqYRpJEiSYjbpb6iVHdjKoBL5aQZpTN49hU1c0zRAScz0NPtsf6uAYxOMLQMWFwdPTMGfGzH6f/Q//8QAKBEAAgIBAgUFAQEBAQAAAAAAAAECESEEEhQiMUFhAyAyQmJRExBg/9oACAEDAQE/Af8A0mn9CPqptnBQHo4I4KBwUBaOBwUB6OBwUDgoC0cGcFA4OF0cFA4KBHRwaOCgcHCzgoD0cEcFA4KAtHA4KA9HA4KBwUBaODOCgaj0I+kk17NF8WVzWSJdCCpC7kk7H2PUTapCIiT3H2Jq0R6EeiIKjueom+hL/kE02LuKLsfYayiKpESma34r2aO6dGSVmTIryZHeDJkjZkzZkyRukZM2ZJWZMivJkd4MmSNmTWXSv2aL4svmokMg21kXcbe4fYm2lgj0Pq6E3uPsSdEehH4kXK1Z3JORInfYg227P6KTsfYk89SDtC6G54Nb8V7NG8MvwSfgvwX4E+uC/A30wX4L8EX4L8F56F+C/BF4WC/Beehfgk/BfgvwJ9cF+BvpgvwX4IvwX4NY8L2aL4sbzRIk6VkXYu45Ux9huiLsuotilmj7EpURdoXxFJncfqUSJOhN2LuKbY+xKVEXZHob3dGt+K9mjaSdlx6kpL+m6P8ARSihSWclx6jksZN0WJxXQUo0XE3K+pcTdETi45LiblfU5CUl/RuD6m6IpRycg5LGS4ilFEZL+nIaxppV7NF8Wbs0SG6Iu8i7m8fYcqIy3CdIjOz7DnQnasj8RTTwdzeSJS2kZKQu4vUTH2HJJ0RluyRP9Ea34r2aL4s2q7JDViVC7mwfYasSoq0KNOz7GxCVKhK40KB3NhIasUaErsUEh9hwT6iSXQXQ/wA0jW/FezRpNOyo9KJRX8GooSixRWcHIOKxgaihKLEopCUWbVfQ5BRixKKiLazar6HISiv4NRQlF9hRjk5RxWMFREovsRiv4chrEklXs0XxZtzZIlHcJULubB9iUdxFUU2sChTPsOFuxKkL4kYUdz/LySJR3EY0VdigPsShZFUJWqF6ZrfivZo1aZtJRNptFHqbRx6G02kYm025NptIxwjabcm0lE2m0UeptHHobTaRibTWKkvZoviyEaJEo/8AGrTRGLTH2JQbuhDjfQgqO5sf/NraRBUNW3RGDVWSHF3aIKlRKNkI0x9icW3ggqI9BQqsGt+K9mjunRzErOY5hXk5h3g5jmI2cxmzmOYjdI5jNnMSs5jmFeTmHeDmOYjZzGsulfs0XxZ9iRK+xC6yf0V4H2JdcEL7nYhd5PsSbsj0Fe3BHdg7nMSPUvsRu2LuKx9hrJDoLoJyNb8V7NHdOjmJWcxzCvJzDvBzHMRs5jNnMcxG6RzGbOYlZzHMK8nMO8HMcxGzmNZdK/Zovizc91EicqIuz+m92h9iUqItsuokZNs+w5u6Iu0XUcCnbO5/oyRJtdCLbLq2KbsfYlOmRd9RdBeo7Nb8V7NG6TLRKRuRuQmslocuhaE0iMi0bslo3Ii1tLRuyWiUjchNIUupaHLoWi0RkWjWO0vZovizfmiQ5URdoXc3j7EpbSLsukKds+xvyJ2rE6iKdnc3skSltE7Lq2L1LH2JT2kZWXSsfqGsdxT9mjaSdlxu7JSX9G4sTihSjnItqHJYHtYnFCcWsi2I3K+pyCcUqE4uJyI3K+pyEpL+jcX1N0RSjnJyDksD2sTihSi0chrGtqr2aL4sU0yQ5JdROy6sUkx9jeugnYnSNyeD7G5CdkcRFNM7m9EhtIUky6s3ofY3IUk8CaRvRrfivZovixQokShYlRV2RhQ+x/nm0JUqKtEYUfYfp5sSoSuNG3Nnc/yJEo7iMaKuz/MfYcbsUaYlYvTNb8V7NGrTKRKJSKQkslIcehSNokkikbclI2kUtpy/025KRKJSKQorJSHHoUjaRiikaxUl7NF8WRjVEiUW2RVIauyMWmPsS9NuxFWiMWmfYcG2RVIXxwKOTuf5skTjuIxplXY4ZtD7Di7wRjTKs2M1vxXs0awyvJJeSvJXkS65K8jXTJXkryRXkryVnqV5K8kVjqV5Kz1K8kl5K8leRLrkryNdMleSvJFeSvJrFhezRfFkU8EiSd4IJpZGrsgmuo+w4ysj0KtEE7yfYks3RHCPoRUrydzbIkTT7Ci7GrscX/D+Di8kE7yU+wozNb8V7PQ1H+SqjjvyPW32OO/Jx35FrfBx35HrfBx35OO/ItbXY478nG5ujjvycd+Ra2lVHHfk43N0cd+R62+xx35OO/Itb4OO/I9b4OO/Jx35Fra7HHfk9fUf6qq/8L//xAAUEQEAAAAAAAAAAAAAAAAAAACg/9oACAECAQE/AQQf/8QAQxAAAgADAwgKAQQBAwMCBwEAAQIAAxESIXIQICIxMkKSwQQTM0FRYXGRoeFSI4GCsQUUYtEkQ1BTYAZAY6Ky8PFw/9oACAEBAAY/Av8A/FJs+zbsCtK0j/XdUa1s9VXvrSkSJz2ZTTq2ULa6GOkTFszHkirSw18S+ikqJjra2hd5esF53Vyv1Cg/UBr/APvhE15TpM6sGoVo6CRKUDpIJNZg0f2746ozZfW/hav9oCzZ0tGOoM1KwvQyy2yK1tD29YnM4RBLmFLpgbV3+XpBaVNluo1lWrCqs+UWa9QHF8PNmmiIKmEmTP8AHTl6M9KPaBPDE+TNsy0lKrdYzU1x1jTEWX+RN0db10vqtVu0KRKXrZZtvZrbGj6wXdgEAqSY6XZUrKkUNs7wPf8AESDM6I8vo09rMuaWF59IaZ18qwpozWxQGEUDrZrEaIOoeJhOj9H6OekdIZbdm1ZoPWOtVShqVZT3H/w/SsMDo1P0D/1f/wBtP7j/AAvSZlRJlzJlpqaqkx/npiWrLJLpUUjoTz5a/qSQAbFavW6DaUsv+uNQO++Jr/42XYkp0Z1mkJZFfD1j/wCHMD//AIiDI6f0Z5n+R60miobbX6wY/wAgplpLmi8VlF3YDvruiP8AGzZyLSb0dQGsVq91P3jpNFZ5K/5Emaq963RMnf4xLPRh0dhMKrZUnuj/ABk5JaicZ6Vel+uJ8qVtkVA8aGsS5cuVOfpVwMgIQRHTP9RKWYBKS5r4/wAb1qIZdt6zJillS/wj/JS//rpuWLj/ALe6Ogu0iWvR1m6dJd1KRqqpj/Ms1yrYJ9jEub0qdYCPSRIsnX+Rh+lqjH/GLOXraG4v+XpCstNKal4774To8txLmzNcwitgeMKOhOZksG9iNZ7/APxiLMLAI4cWfEf+7STqja+I2viNr4ja+IOlq8o2viNr4ja+I2viK2rvSNr4ja+I2viNr4itq70ja+I2viNr4ja+IGlr8o2viNr4ja+I2viL2+I2viNr4ja+I2viCC1/pG18RtfEbXxAAa/0ja+I2viNr4ja+IOlq8o2viNr4ja+I2viK2rvSNr4ja+I2viNr4itq70ja+I2viNr4ja+IGlr8o2viNr4ja+I2viARqznwnNmYeYzWxDnmriPLNl4eZzf4j+s18RzExDNmYeYzWxDnmriPLNl4eZzUwjOfCchsUtecabFjbYVPrkmYeYyWVcp5iJyozNJUDaatGyNiHPIwRrLHv8ACJktWmWAo7Sta+Vci4jyyTUkGjKlpm8IX0yS8PM5JYCTmlhST1bWb/WsApWz5m/J/Ef1kkyhbIapIQ0JjaY0JGlrHlkfEciS5bzQEFt/1WPoMiYhlfSfrRNCjXYpd+2SZh5jL0lnmFZydmtrup4d8A+MNiHODYpa84nVcl+usWv3pBlhnKFLWk1b8i4jyg2aV7qx0oM9tg91dWoR0lZj2rLD+skvDzMXR0tGmaV1DS5boRJbu2j+paavpkTCM58Jy2a10ifc5JmHmMhWXM6tjvUrFktLsDUFSnPI2Ic8hW0Vr3r3R1s1wzgWRRaZFxHlkeqJbYUt2b4CqKAeGSXh5nIHlTLJpSjCoiyPXJ/Ef1kV0YK66iRWGqasxtE5HxHJOetTMNfTImIZXQTB1LtaIs3++SZh5jK69aeqmbSkf0cjYhzyTUtbb26+EGZNcO1LIotMi4jyyTWrXrGtel0TnrXrDX0uyS8PM5J7I9GmUpdquihmIw1sbBq371yJhGc+E5szDzGa2Ic81cR5ZsvDzOb/ABH9Zr4jmJiGbMw8xmtiHPNXEeWbLw8zmphGc/pG23vG23vG23vG23vD6bavHzjbb3jbb3jbb3jbb3hjbatR3xtt7xtt7xtt7xtt7wpttWp742294229422942294TTbV4+cbbe8bbe8bbe8bbe8XO2od/lG23vG23vG23vG23vDgO2vxjbb3jbb3jbb3hAXbX4xtt7xtt7xtt7xtt7w+m2rx842294229422942294Y22rUd8bbe8bbe8bbe8bbe8KbbVqe+NtveNtveNtveNtveE021ePnG23vG23vG23vG23vCemc+E5NBC7E0Ah5bqFmJroajJMw8xlmWVICtQE9+RsQ55GdtQEFZkqzdUEGoyLiPLJ1ctAzBbRq1LoSYuphXJLw8zBahY0qFEKkqWGYraNWoBCuBSvdk/iP6gsQT5CJXVyrRcVvNAP3gmzZYGyR55HxGLRqfADvhZ7aKlbUCZZKVJFD6wmIZEkhSa1vhrEq1LVrJNb/AGyTMPMZJcoKSWNCfC6sTSErLlbZrfkbEOcVVC58BExZsujqAaKag1ugy5qBHAtXNUUyLiPKCwUsR3CGWbK07NsBDarAlTUCMRaFGrkl4eZhmoWp3DvhZc6WELCq0asTJKjYFbWRMIznwnJaWW0xtQCiHOmZjXszIV/vJMw8xksK4W++orUeEdJ6ylC11FpW7I2Ic8joK113RakSzLl2dLRs1ORcR5ZCZwm9XYovV1/etIlCZc4F+SXh5mJ6qCSVNwhZhVypl2dFa0gWhQklqeprk/iP6iaBeShiSiS3tFaWrBIWKS7fmWUgk5HxGG9I6JpBLCglXWt8Um67Td1O+ExDJ0YgGgtVMTFEtj0gzCyPZ1X+OSZh5jJ0UgEgPf7GOkVWb1pP6dmtk+Fe73i/XDYhzguEaYfxURMajtPqrH9MjUdQrBmBXChLOktK5FxHlDPZZ6bqipMTJzpNecRsiW1w8BdBmTA/XEaijAKPC8ZJeHmYZrJag1LrhmJeXPZaL+maSxF9mwJQFQhHefPImEZz4TmzMPMZrYhzzVxHlmy8PM5v8R/Wa+I5iYhmzMPMZrYhzzVxHlmy8PM5qYRnP6RstxfUbLcX1Gy3F9RstxfUPotq8fONluL6jZbi+o2W4vqNluL6htFqVHf6xstxfUbLcX1Gy3F9RstxfULotSp7/SNluL6jZbi+o2W4vqNluL6hNFtXj5xstxfUbLcX1Gy3F9RstxfUXq2od/lGy3F9RstxfUbLcX1Gy3F9Q9VatfGNluL6jZbi+o2W4vqEorVr4xstxfUbLcX1Gy3F9RstxfUPotq8fONluL6jZbi+o2W4vqNluL6htFqVHf6xstxfUbLcX1Gy3F9RstxfULotSp7/AEjZbi+o2W4vqNluL6jZbi+oTRbV4+cbLcX1Gy3F9RstxfUbLcX1Cemc+E5CWIAHeYtIwYeIOSZh5jLWW6uPEGuRsQ55ay3Vx/tNci4jyyEVFRrgiXMRiNdDXJLw8zFWNAO8wOsmIldVo0gMhDKe8ZP4j+ovi27qE8SYqpBHjkfEYtTGCr4k0i0pBU94iqmo8YTEMnV9Ylv8a3wKkCtwyTMPMZOrMxA/41vghp8oHwLDI2Ic4qbhFpHVl8QYrLdXH+01yLiPLJWW6sPFTWD1bq9PxNckvDzOQ9W6tTXQwVR1YjWAdWRMIznwnIomU13AnWY6SJgAckNRdX/7dkmYeYyUHe6j5hxMsFygNpRS70yNiHPJMFQPXVCVlmWOqNxI8RkXEeWTpku+ybNb/KEeTTqpQK2h3+WSXh5mJpNdFTdEppcyWCsvU1+vy/aLRFDUg/scn8R/UTa1uU3ftHQggBezWhuGqHB2hMao8L65HxGFmzdzVD9ZVbbl7AOryjo+AQmIZB0eQL7fWMfxvr7xImOs1aTaKtg6qHJMw8xkfo8kfqTDaY/j5xK6Pu7b+gyNiHOKTaWSRrMTxMABfq7lNRS1F3fKv98i4jyhhNpYNxqYmjpNlEeVS5rqA9/vGmAtqXRLPeAe/JLw8zDWzRaX30iqgKOpZZVj0rHRg6petlbO7d85EwjOfCcllxUQbPfrJNSckzDzGQqwqDBs1qdZJJORsQ55CrCqnWI0AanvJrkXEeWSZUdptX64Fi3dqHWMR7ZJeHmYZHFVa4wLVajUQxB+ICqKAZP4j+oKtqIoYVSDo6qEgiLKCgyPiMKZgNV1UYiKC1/Jif7hUQUUXCExDIbPWCpqaTG/5hbQrZNoeuSZh5jIzDrAWNTSYwr8x1lNOlmvlkbEOcFXFQYZbNbVxtEmCUBqdZLE5FxHlBVhVTrEMKWrQobRLXfvFVBrqqWJyS8PMxQ6oqoPheSaRVQa6hUk09MiYRnP6Ru8Qjd4hG7xCN3iEPs6vyHjG7xCN3iEbvEI3eIQ2zrG8PON3iEbvEI3eIRu8QhdnWd4eUbvEI3eIRu8Qjd4hCbOr8h4xu8Qjd4hG7xCN3iEbuobw8I3eIRu8Qjd4hG7xCHOjr/IRu8Qjd4hG7xCEOjr/IRu8Qjd4hG7xCN3iEPs6vyHjG7xCN3iEbvEI3eIQ2zrG8PON3iEbvEI3eIRu8QhdnWd4eUbvEI3eIRu8Qjd4hCbOr8h4xu8Qjd4hG7xCN3iEJ6Zz4TmzMPMZrYhzzVxHlmy8PM5v8R/Wa+I5iYhmzMPMZrYhzzVxHlmy8PM5qYRnPhOQs3t4xN6+loTCLu7JMw8xkdk1j4iYqzOulqBR7tfhdkbEOcGgqfCOkiqdYr0XwFwgyTMM0WLRJAu9si4jyydLadT9IVCj0hKzrVVqQVpw+OSXh5mNGb1csDWNdf3iStvq6oWLKNd9BGntBip/Y5P4j+oWw9hO8jXA1NNZiqf7vOJTuaswqcj4jCiW9hd498aUyidbYM67V4+90MbVtQ1Ff8AIQmIZErNBZ3oJQ/GDM6y+3RZYFxH95JmHmMletFosAkr8hE6zNsdW1ALNV/kaXZGxDnBdtQjpBmUDiYFUfjWn/MGU7mYCloEgVyLiPKCzGijXHSDPoiLQgeAicJlyUUoPfJLw8zFTqibQaHV2pY8YlqJvWhktPq0DdkTCM58JyLbromooxETbybT1GkTkmYeYyWQaGoPsYabMCqSoWimuRsQ55OkmVYtzGqte64RR0S+8vbqSfbIuI8snSrezOFPiJRm2AJeqydeSXh5mFC2DJ3lLUtfGqJc1Fl2gpUpau96RZN7EljTzOT+I/qFWXY6vfBahPxCtNSw6iyOrmHV8QktjVhrvrkfEYVZNkLv6VDEkhJSmUbktXavSJjPSsxrVBqEJiGQy3KFLVbffr8IMx1lPTYFsiz8a8kzDzGSZKJQy33jrX9onS0sWJ2sk3i75ikNiHOAJlaA1uJEdIo22wZasTqprgzZwQGzZAU1yLiPKLEwVX1pE63aKPSg6xomTKmyVAFXJyS8PMwUcVU64mEOwVpVjbJPfEozAiiWKCydeRMIznwnNmYeYzWxDnmriPLNl4eZzf4j+s18RzExDNmYeYzWxDnmriPLNl4eZzUwjOf0jd4RG7wiN3hEbvCIfZ1fiPGN3hEbvCI3eERu8IhtnWN0ecbvCI3eERu8Ijd4RC7Os7o8o3eERu8Ijd4RG7wiE2dX4jxjd4RG7wiN3hEbvCI3dQ3R4Ru8Ijd4RG7wiN3hEONHX+Ijd4RG7wiN3hEINHX+Ijd4RG7wiN3hEbvCIfZ1fiPGN3hEbvCI3eERu8IhtnWN0ecbvCI3eERu8Ijd4RC7Os7o8o3eERu8Ijd4RG7wiE2dX4jxjd4RG7wiN3hEbvCIT0znwnIXYE+QjSlsmKnLJMw8xFSaCGmitlWs6tZhkKsjreQ2RsQ55JrLWzL1mOxmICK1an/ORcR5QzuaKoqYpMV5ejaFvvEBSjoWFVtd+SXh5mAio8x6VovhEvq1dzMrQDy9YqVKnwOT+I/qFWyzu2pVhCis5fUo1xaWovoQe7I+IwuizMxoFWA4ViS1iz31irIyeTU5QmIZJco7czUIOg9gNZL9wOSZh5jJLVtqYbIEMiSpkwrrpTmcjYhzhpjVot90M8yU8sDxpf7GChR0cCtG8Mi4jyhnbUoqYZ3lPLUCtWp/zHYzEBFatT/nJLw8zFTqEaSugK2gW7xAUo6FhVbXfkTCM58JyL1tqxaBJXuiZ1bW5F1lrVq/vvyTMPMRffE49y9JtH0tQ7yiGQSwtoepyNiHOKG8GP8AIBg9m1fY17IhR0aYXlWTb07VDdTIuI8oZ3NFUVMTWDoZhlssuWGFY6L1TBrAJanddkl4eZgSgyCa35GgHnEis1rAU0mB6Kb77/GNOu0bJPhW7J/Ef1AV3MsMO0uoIkPMIWUOsUObq364muNl5hIyPiMAOxQNdb7lhetL9UJpKzQaVu1k+8TaNalBtBq1up4wmIZOjtMWWXabrD+Ru1RP6OWHXNMNF77zkmYeYyK7rLYtOWhtnV3DVHSSrzF6TrVS1Kml1B3wK64bEOcHrLdiorZ9YmdQ5mSVsMTatb3jBeUwZVl0JHrkXEeUTA4cqRfY1xMWU7zejmWbdhrR/b5hR0aYXlWTb07VDdTJLw8zE5F2mQgR1fRpjTGaUwcWq0u+I6L1TBrAJanddkTCM58JzZmHmM1sQ55q4jyzZeHmc3+I/rNfEcxMQzZmHmM1sQ55q4jyzZeHmc1MIzn9I2W4vqNluL6jZbi+o2W4vqH0W1ePnGy3F9RstxfUbLcX1Gy3F9Q2i1Kjv9Y2W4vqNluL6jZbi+o2W4vqF0WpU9/pGy3F9RstxfUbLcX1Gy3F9Qmi2rx842W4vqNluL6jZbi+o2W4vqL1bUO/yjZbi+o2W4vqNluL6jZbi+oeqtWvjGy3F9RstxfUbLcX1CUVq18Y2W4vqNluL6jZbi+o2W4vqH0W1ePnGy3F9RstxfUbLcX1Gy3F9Q2i1Kjv9Y2W4vqNluL6jZbi+o2W4vqF0WpU9/pGy3F9RstxfUbLcX1Gy3F9Qmi2rx842W4vqNluL6jZbi+o2W4vqE9M58JzZmHmM1sQ55q4jyzZeHmc3+I/rNfEcxMQzZmHmM1sQ55q4jyzZeHmc1MIznwnJ0idMlXJMP6ldJQPxyzMPMR0drRp1o0Yc7XSJl0uusHy8IFdeRsQ5xLa0bPWJo/vE/8ASM6ksUp/2zfCG1aqov8AHIuI8oM2eLd1lVPLzg9GmTlExJWnpXk01QhU1FNYyJ3aPMx+khQCW2l/6hpHQzKWhe5j+V1b8v8AEf1EmwrDXWYf+5dqMdFnTJdkv/3A17Ejv8ssz1MdHm9ctKsFS1quiWsm/pBe0X7wK31yJiEKttUd7gWNw84CK3Wfr0s1274nrZ6sWhSX+N2SZh5iLCLaqwqPKsOvVSpMy65dk1846SBNEw9ZWtddwyNiHOOlM0q2JZoGtUK3bvnHS2cWioojHWNGsS2OsqDkXEeUTCta6ronWZfUzDLqAhqD5+sAdX1RZTsmob188kvDzMUYVB7jE50RZYSstSgpf3mFHRlACCkwjv8AD98iYRnPhORtJrDXsnccszDzEJarotaEPNWfNVm9LviPHI2Ic4CtW4hrvKCyu6WtqzS+AqiigUGRcR5QJvWzFYCgpSg9xDSnZiGFCe+AMiK14K0PuYW0zzAuyG7oU9ZMewKKG7sv8R/UJpOVTZU6hC6TFUvVO5cr4jEtzWqVpBKz5ukanZv+MiYhksgttlwe8GGNpmZtbNkmYeYihqKGoI7jDG0Wc62MTCK6bWjkbEOcNpOofbA3oajugYUYL3xQZFxHlBVtRhusZploWdLwi2XZ2AoLXdkl4eZyNKVmFa6XffChZ0woN0hf+MiYRnP6Ru8Qjd4hG7xCN3iEPs6vyHjG7xCN3iEbvEI3eIQ2zrG8PON3iEbvEI3eIRu8QhdnWd4eUbvEI3eIRu8Qjd4hCbOr8h4xu8Qjd4hG7xCN3iEbuobw8I3eIRu8Qjd4hG7xCHOjr/IRu8Qjd4hG7xCEOjr/ACEbvEI3eIRu8Qjd4hD7Or8h4xu8Qjd4hG7xCN3iENs6xvDzjd4hG7xCN3iEbvEIXZ1neHlG7xCN3iEbvEI3eIQmzq/IeMbvEI3eIRu8Qjd4hCemc+E5szDzGa2Ic81cR5ZsvDzOb/Ef1mviOYmIZszDzGa2Ic81cR5ZsvDzOamEZz4Tk/TZVP8AuWsOXKFAaKVWlckzDzEE0J8hE15oCWGI9onWks2WoB30pkbEOcEy1tP3CDKm2WNi3VBE4OlmwaU/bIuI8oYotpqXDxgJOsNVC2gKUpEoPYImoXFkatX/ADkl4eZj9Kwq0qWaOjm1LldYtol9QgWmVj4qLsn8R/UVpVjcq+JiQyBAXWrMdQ/aGtUtKxU01HI+IxaN/gPEx0e5RMmkjyFImI1Lcs0NO+6ExDI6idIWj2QhGkfmD1bSrnshCdJvHJMw8xkYIZVzWQjHSf0h5lE6tSBQ629MjYhzj9MgN5isTmbq2VSEUhaVb3gyp1gmzaBUUyLiPKNAgN4kViatuVZS61YO17w6M0tkTWQtL/fJLw8zDNroKxKD2CJqFxZGrV/zDywP0wtQfG/ImEZz4TkmdUKzLOj6wksalFMkzDzGSYswslZxcUpfHSC7MQzXVpfdkbEOcMZSW37lrBM2VMExtp2p7XGOkswudgR7ZFxHlDFFtN3CuuJlpHSe606w0ovpfEsrI6myKObtP2yS8PMxQyROkkXrdWv7xLrLEygOraW/VUxRtZYtTwqcn8R/UdYJjqwFBSnMRIkojE002BWq+kBRLaWB3NTI+Iwj9Y6FNVmnOJSupmEMSRWhHoRExiLNtq0rWkJiGRpPUhavW2tKa9frE2Skvbe11l11+SZh5jJ0iSkvtWrb8K+MOhkhm/7c0U0YvvhsQ5w1m9qXQkodotD+9awZryzLAWyASMi4jyyIH29besDrBSYxLN6nJLw8zDqhssRcfCAqyj0cWaOykVaLVtzL6sLfT2yJhGc+E5szDzGa2Ic81cR5ZsvDzOb/ABH9Zr4jmJiGbMw8xmtiHPNXEeWbLw8zmphGc/pG7wiN3hEbvCI3eEQ+zq/EeMbvCI3eERu8Ijd4RDbOsbo843eERu8Ijd4RG7wiF2dZ3R5Ru8Ijd4RG7wiN3hEJs6vxHjG7wiN3hEbvCI3eERu6hujwjd4RG7wiN3hEbvCIcaOv8RG7wiN3hEbvCIQaOv8AERu8Ijd4RG7wiN3hEPs6vxHjG7wiN3hEbvCI3eEQ2zrG6PON3hEbvCI3eERu8IhdnWd0eUbvCI3eERu8Ijd4RCbOr8R4xu8Ijd4RG7wiN3hEJ6Zz4TktOaCDYrdrBFMkzDzGRnDiypoTBsk1GsEUORsQ5wWc0UazBCk1HcVI/uHlq1XTaHhkXEeUVNwEGy2oVvFLvGLKk1pUVUiuSXh5mCzmijWYQknTFVoCSYDIaqcn8R/UEsaAQkypKvs0Bqf2i0hqMj4jAL1vNBQVi2bQGq9SD7RVDXuhMQyWC19aarq+sIrtQuaDJMw8xkNvrBS6vVtT+oKltWu40HqcjYhzgsxoBDNWgXXaFKQQhNRrBBGRcR5QWY0A1mGoaWbzaFIota+YIyS8PMxfGifO8EViyjX6xdr9PHImEZz4TkQd5mLQ+BrHSA5DPom0BQZJmHmIKteDE4LQAdJ9haEOhbrNAG0QKjyyNiHOCZtLAvNYfpMtNKzYlqf7MT16t10FqWprvyLiPKHM3YpfdW6FM0o8tpbUu2V84ScBSUg0P93nkl4eZhgZTNJC1uI1x0W0LNej3V/aD4dY9OI5P4j+oC9UzyaVayRf5Xx0ALoPZNGa8aomDvExqnxOR8RiQOtKEEkUGu6JSl7kmlbdNejE9TfZelqm1cITEMjMXrScf0yoodOJMybIe311Beuqhu15JmHmMkuXuyx1h9e7nD9GkgaXaMN37yNiHOD5lR6XxO6wqzUlklRQUtRd/wClf75FxHlE2oqCKRO6+kwmQdjRuiX1rK5Mo0KilNWSXh5mJqsaKVIJiUFsdk5Fg1qLMdG0xMDL4DRu7siYRnPhOQhgCD3GLMtVUeAFMkzDzGQ0UUOu7XFJaKg8AKZGxDnFl1DL4ERWXKlofFVpBagqdZyLiPLIwEpAG1izri0kmWreIXJLw8zFDqgK8tGUagRqigFBk/iP6yWDLQp+NLoAUAAdwyPiMWZihl8CI6uwtj8aXRZQBV8BCYhk6ywtv8qXwKgGl4yTMPMZC1BaPfBLSJRJ7ygyNiHOKG8QVSWiqe4CKSkVB/tFMi4jyyES5aKDrsikHq0VK/iKZJeHmch6tFWuugglEVSdZA15EwjOf0jabh+42m4fuNpuH7jabh+4fSbV4ecbTcP3G03D9xtNw/cbTcP3DaTUqO71jabh+42m4fuNpuH7jabh+4XSalT3ekbTcP3G03D9xtNw/cbTcP3CaTavDzjabh+42m4fuNpuH7jabh+4vZtQ7vKNpuH7jabh+42m4fuNpuH7h6s1a+EbTcP3G03D9xtNw/cJRmrXwjabh+42m4fuNpuH7jabh+4fSbV4ecbTcP3G03D9xtNw/cbTcP3DaTUqO71jabh+42m4fuNpuH7jabh+4XSalT3ekbTcP3G03D9xtNw/cbTcP3CaTavDzjabh+42m4fuNpuH7jabh+4T0znwnNmYeYzWxDnmriPLNl4eZzf4j+s18RzExDNmYeYzWxDnmriPLNl4eZzUwjOfCci3lVtC2w7hE2XLYvLUAg1r85JmHmINilrzjpBMyrLMIr5V7omqhfqwBQTK1r+9+RsQ5wVRrBPfDykeYZVjSq5ub1ia6tM6pdAAuTXxN+RcR5QQpstS4xNss5Cyix6yt58qxLq04Wl39T/8ZJeHmYaVJNJlm0T+IjogsznXq7TWGpXV3wOrtUF2kanJ/Ef1ElVWay3lurNPmBL6Pa6xiRpmpXxrElmJLFdZyPiMSZYt6dahNZp5wR1s2yjG0N/0qIepJAcgWtqnnCYhkly5bzQdt/1G1e8WhNcz2fQFbvSnpkmYeYyTtJ+sVwEpWwBdr7vHXHR9KkszKUHfcdeRsQ5xVKi8VI7hW+Hl9HmFkIWjWrVKtQ3wZYZyhS1pNW/IuI8ocy9ryh06JMMz9ItW1bvhJciYZiMpJ0rV92SXh5mC0trIFPXXDSizhVQHRYi81iT1zTCLB7OtSQaVuiU0wgsVvMJhGc+E5KK5Rq1Bh3drTtrNKZJmHmMjrb2pnWA01GsGZMcM5Fm4UGRsQ5wyy36tjvUrSLJaWV8kIP8AcLLrap3+ORcR5Qy1IqNY7o/6hw9FKii01wjTZgfq9nRp75JeHmYa3LQsRS0VrEsSHCWFs0s6J86RTXUkk+ZyfxH9QrS5lkjuIqD+0fqokxqk1ZYWUKXazSlcj4jCsrWXXUaVi0s2k21aJpcf2h2JtO5qTCYhkmTa1tgD0pDzeulljqtSzcPDXkmYeYyTEEwCVMNWFm/3iUa06trXrdkbEOcFQxQ+IiYZr1mMAKgUpS8QZk1w7Usii0yLiPKGW0Vr3jWIYzZumVsBkFmkdZNcO4FkUFMkvDzMGXWle+OslOEazZNVrCmRMAazZNpa1gIL6QmEZz+kbDe0bDe0bDe0bDe0PoNq8PONhvaNhvaNhvaNhvaGFhq1HdGw3tGw3tGw3tGw3tCiw1anujYb2jYb2jYb2jYb2hNBtXh5xsN7RsN7RsN7RsN7Rcjah3eUbDe0bDe0bDe0bDe0OQja/CNhvaNhvaNhvaEJRtfhGw3tGw3tGw3tGw3tD6DavDzjYb2jYb2jYb2jYb2hhYatR3RsN7RsN7RsN7RsN7QosNWp7o2G9o2G9o2G9o2G9oTQbV4ecbDe0bDe0bDe0bDe0J6Zz4TmzMPMZrYhzzVxHlmy8PM5v8R/Wa+I5iYhmzMPMZrYhzzVxHlmy8PM5qYRnPhMFm1QJglm0XsBa+cOjrZdPA1yTMPMRVULnwEOs2XSYKUCtUGppDSpiBXUBrjUEZGxDnD2ZVpEW0xJp7Q3UyrYVbRq1PaFddTCoyLiPKC5Fo9yjvixKlhiFtGrUhJi6mFckvDzMJLlorMwJvalISWJamaRaOlcP3pAelO4jwyfxH9QqItqY14BNIRVlfqtXRY01QSRZYGyR55HxGB1ao3jaanKEIlC1MaiC3cR46oeq2XRrJFYTEMhNj9IP1dqt9a01QzdX+irWC1q/wANWSZh5jJMewOplmjNav8AaJrCVWVKNGa1f+wyNiHOJaWSSzWfSJvVy7YlbWlT2hzKl20QVY2qed0AjUb4XEeUKLJZiQPSpgXFjd/dIZJUq3YW01WpCOuphWEr+PMxOojUl+V5/aP+ol2AVLCjV1QizZYS2KrRq5EwjOfCciMUeqTy9KX0qf8AmJ02jBSFUWhTV/8A3JMw8xBcI0w/iogvR2n2ldv0yLgdQrDzQrBLAUWlpXI2Ic4eVNlzLO6Uqa+3OJvXI7PMRToLUVpSJSHWqgZFxHlE91YNWXZCWKn9r4LzFZrUtdhDrFYlK+0FvyS8PMwDOkdYtmlqyW+IlPNVypVluBazfURpChZmanqcn8R/US5kxLcsKVIs18O6JU0o/VguAAKlQdV0TGIK23LUOR8Rh1l1tNo3d1Y6M6qxSWaEKK0FInzCCA71FRTuEJiGQ6M3/Udba77Gv21RO6NYe00w0Nm6hPjkmYeYyT5Sicpc3AbJ86x0uR1blphNghbjUeMAeENiHOJFkE0mgmOlixMbrb1srXupE+WUdi6izZWu7SEQ7qgQuI8oSyCf1FN3rFFBJtLqxCJzFHYOooVWt8SUbWqgGJeHmY6W5RiLqUGu6JnWK4nOhVFMtgE/ekdH0Ji9WCWtLTuyJhGc+E5szDzGa2Ic81cR5ZsvDzOb/Ef1mviOYmIZszDzGa2Ic81cR5ZsvDzOamEZz+kdmvzHZr8x2a/MdmvzD6C6vPxjs1+Y7NfmOzX5js1+YbQXWPHzjs1+Y7NfmOzX5js1+YXQXWfHyjs1+Y7NfmOzX5js1+YTQXV5+MdmvzHZr8x2a/MdmvzGwuoePhHZr8x2a/MdmvzHZr8w+gpv847NfmOzX5js1+YTQUX+cdmvzHZr8x2a/MdmvzD6C6vPxjs1+Y7NfmOzX5js1+YbQXWPHzjs1+Y7NfmOzX5js1+YXQXWfHyjs1+Y7NfmOzX5js1+YTQXV5+MdmvzHZr8x2a/MdmvzCemc+E5NEg+kaJB9MkzDzEVJoILJMRlHeDFZbq48Qa5GxDnADuqk6gTrgB3VSdQJ15VxHlFWIAHeYtEgL45ZeHmYHWzESv5GkB2mywp1G1cYtIwZfEHJ/Ef1FqYwVfEmLZdQn5VugFSCD3jI+IwOtmIldVo0i118qzqraEVlurj/aawmIZOrtrb/Gt8WLa2/wAa35JmHmMnVl1t/jW+AhdQ51LW/I2Ic4vIFY0iB3QFeYisdQJyLiPKNIgesDrJiKT+RpFSQBkl4eZggEVGuDYdWproYIlzEYjXQ1yJhGc+ExZqR6QUvUW21YooNQdv/wAskzDzEfq0sC++Js+YKSSBSt1ad8TOkC5GAUf7qd+RsQ5xP6kI0xlsvU6hDno4VmeWA1o30pEtlrQqKVyLiPKJ0thMCKldg0Y+sMhWaJay69m2kaQh8u/JLw8zCNLmSwVQ3Nfr8v2iU6NLRkDihv76VpBJFCGKn9jk/iP6iSEsjQY6Qr4RJSWEWyZle8WvH5iYKAFXINNVcj4jDuLyBd6wx2mUVP8AuMAG9zex8TCYhkZqfo9fW3XS2vCJxAHU9dUvXSuI7v2yTMPMZOmBVtVYtbBF33HTtG1aqbYYXXd8CuukNiHOOjvfXrREhzUnrUp5Xx/kLfp+1mJVrXZFYXEeUS3NaiYlB3a4ayoafNFkL4/USgzFilhdd2sZEw8zHTVY0S6pJ8vGJauoEppZlpZOv1hHk06qUCtod/lkTCM58JyWUFBWsWUFBWuSZh5iLE0VX1pBV+sZT3GYx5xol/5OT/eRsQ5xaYGuo0YivrFStLqaJIrFBqyLiPKGRxVWuMGWwqhFKZZeHmYBatR3hiD8QooRZ1WSRFlRQZP4j+oFqt2og0MBLNANVDQ+8WUFBkfEYo4qK1iy4qNeRMQyWrJ11pU0r6RaoddaVNPbJMw8xktlb9eu72i2Vv777j+2RsQ5wtoVsmogWxWhtD1gs6mpuOkRX1yLiPKKOKgGsGYbYc3VVyIsMCV8zkl4eZhzS99rzgiyaEWb2Nw8vCBYt3ah1jEe2RMIzn9I7RfmO0X5jtF+Y7RfmH011efjHaL8x2i/MdovzHaL8w2musePnHaL8x2i/MdovzHaL8wumus+PlHaL8x2i/MdovzHaL8wmmurz8Y7RfmO0X5jtF+Y7RfmNtdQ8fCO0X5jtF+Y7RfmO0X5h9NRf5x2i/MdovzHaL8wmmpv847RfmO0X5jtF+Y7RfmH011efjHaL8x2i/MdovzHaL8w2musePnHaL8x2i/MdovzHaL8wumus+PlHaL8x2i/MdovzHaL8wmmurz8Y7RfmO0X5jtF+Y7RfmE9M58JzZmHmM1sQ55q4jyzZeHmc3+I/rNfEcxMQzZmHmM1sQ55q4jyzZeHmc1MIznwmDYpa84o01q9Y1W7yK/ETwrM0kGiljW/vyTMPMRZVynmIn0LvKWgALV0/AfEdJE5rTB/2F2RsQ5w8y3NrZ0Albj5/cTB+qbCrfKNKXVr5whtWqjX45FxHlE1JBoypaZvCAHaZZ6qo6uta+dIlM5BYqKkZJeHmYEmk0gJapLNO/xiVLM1yoQk0Nkk1pfGmalWZa+NDk/iP6gzHt6IuCuVr7RLE2c9176RvPrFSSVtGwT3rkfEYkirWC2lYrXV5RRSWdnKyw2v94HWMXa0wqfWExDIztMb/UiZsWu614enfDzCZy2ZlLQ2VANNXfkmYeYg2KWvOFBmNaadYLd9LUTpau1miNe1SKm+kTlUv1YpQPWvzfDYhziRRqIZgFB3xNmtNev/AGwppQ846SXd1eUABZagBs1hHO8oMLiPKEKvZS2urWb4eYXm6tBZdbj4/wD9jr505qWBTq2oK84l9d2lnS9YSmuzzMdK6+ZclD5C6JrT2sy+qDhTuiph+sqFMsMqeF5yJhGc+E5OqlzrNWLE2fPVFljLsjUESlPnJMw8xBWXM6tjvUrAlzhJeWNS9X9xNZAotnuWlMjYhzhjLm0Dawwr7RSQ9gWQpqKwqLsqKDIuI8oeqJbYUt2b4tSGVNEKRZqLoWWNS5JeHmYDy3CvSl4qIRpMyy6g1LLWtb4C1r3k+JyfxH9QgrQBg3rSFAmBUGtStbXzH6jKT/tWmR8RhHRgrpqJFRBM5EmuxtElYsLTWTcKQmIZLLTayrVqyRf7+EOlsdS5qy2b/fJMw8xk6sPpW7Yamo1rDNMmfqkqQQtwp5Q0yYwZ2AFwoKQ2Ic4l30sPajretT/arJWz8xMszQvWDT0P6vgAahdC4jygLWlGDexgtLm2aihDCvtEvq5q2JYoiulaeeuBaIJ8hEvDzMTmejLMpokQZnVy7JWzZsCOuREXRs0C/ORMIznwnNmYeYzWxDnmriPLNl4eZzf4j+s18RzExDNmYeYzWxDnmriPLNl4eZzUwj/5kBy1o7qqWPsIDy2tKe/KFvqb9ULbNLTWR6woYgFjQecUtnXS1ZNmuLVlKFwGFPnVFRX9xSDLvtClRQ9+QWiBU0ior+4pkqYSZLNUcVByMAQSuvyyFnIVReSf/Fzn6Syy1mKth2NBdW6B1rP0XopDFCD1dtq64m/6jpE5OkCQhlraIq1D3d58oPRWZwyVnE13aXD3/qOj9XNnEv0Yu5Lk96VPtWDL6P0mZMk2pND1hahtGtDHVmbMAl9IKIzTDo1lXX+sWG6MDO1C8WgKUs018ok9b0icZn+o6ltM0pSGWdPbqgJipbbWai7zMSpnSJjUp0cs9sjxvJhR0vpU1JdJv/cK39ZdEtphYTG6m13VubXBeb0npH+psfqy1bZNf/tiYJkxh0dJklgf9QzUqTU2o/6zpEyXJrMst1hWrWz3+lLo6VOmzZyzZXR0ddIrfQ30if8A6jpE1J1qiSwda2fx8Nd8dCImT7MzopLUav40pXVriZKlznEotKpSeX1sQdKOnq0wg21p1kwmuiPGJM+XNmtOafMl0LkgjToKfsInqJtv/p2aYonO5r53aPpCdW1pKXG1Wv7/APjJk0VtTKV/aJky0zM/j3Dwhlqy171NDDuXeZMegLPTu9M4Tr7Vmx/7i//EACwQAAEDAwQBBAMBAAMBAQAAAAEAESExUWEQQfDxIHGBkdEwobHBUGDhQHD/2gAIAQEAAT8h/wDxT5FpPdFGQxuN4b/E98ggSXAij0dEIHwEA9HqyaC0kS0RZvWeiIKIQXIGJG59ydJ8EFiBQtRNTIpFgBgp9tECCioQP/pUF3qXoBQXaeAAJp6z0RH7RACGSIqmqQqA90Ae4Q3auARuBunCuGQNNzOToSEhT+EMRsmnyopi7UfJBsndBNoz0RCmmMGG1MoT85RQBdBAYCJQEwaAjkbWT1H2uiIr4NBE7FZNhEGpt/qNe0yIBLOSTJMrGOo/4fj5CO1QPePolQciRGkIqOEwyIarGUBYBDoKyoidkJiMt5A6AiK0oEfayNAQi4GuhIQY3qEJNTAVKDhiyMipJ3MdsJ2TQoPOQyj4TnNndrMwlHy4Blct0MZxMAM/SwLIA3ckMgCwAFgcHa6C1PxYTONXfd00QamYVQMQgw3DwHIAE7KCIAUIhkWcFGWAVGjTlc4BQGf+f0UUAoO4hYSHvlAQOR+AQA7LkgxhJNWRuOYFga5F/X/jHNwMAse3/bQRgA5XOS5yXOS5yQMCFJzJc5LnJc5LnJTKIs7lzkuclzkuclEqizuXOS5yXOS5yRECNJxJc5LnJc5LnJFKMPUuclzkuclzkm2IFjJc5LnJc5J9iRYSXOS5yXOS5yQMCFJzJc5LnJc5LnJTKIs7lzkuclzkuclEqizuXOS5yXOS5yRECNJxJc5LnJc5LnJAnBBx5cpb8XHC28XC2/E4p8YePKX8OUv+LjhbeLhbficcpby5S2lWjsNIRwRvdBY/DgrKCQ4pZ5ZNKQSVjgEzRtOFtoYyxgIdHSBpiInFzUamNOFtoBeuDbWgDJ+0RJiXJDw4bcBSOcGoZ3RLTkJiB3BJnSnxhoKGERgGYO4atxRPGDHQffHdr6cpfRwhALj1D6n205S+oJQ+KCw9wPpesv7ePEm5JfAEAIxVeqxeBXC2T4wbEKL42AjC0FGaVYGMAWqfUacLZMZcD5R8KegG02wRbqhDYCJga8OdB9nRxRtrA7AhLd5eCLpoSXppylvLlLavNe7Zqh/3w4s94gCAjgGJN+S04W2gwMugzFGIrMNALPDmYGnC20A0OcCQLMCgPAWABh4cAIzBB/ZxOUBnJkkTuSXJ+TpT4w0cdGGAxqCHFgqwdZM5OPjTlL6Oy0aKAAG05S+pooIu0uQHXx48FjXICAzEOQPa6AYMKLhbaCJOuBlbgj4IR99GCgfJ04W2jF0magP8WyEtbYA/zw4iNrk4s90OBPMANcu/zTlLeXKW/FxwtvFwtvxOKfGHjyl/DlL/AIuOFt4uFt+JxylvIiDAsQZf2XZ12ddnXZ0S7A8SsXZ12ddnXZ1QgCd1iuzrs67OuzqpAE7rBdnXZ12ddnQLMjzK5dnXZ12ddnQoAJqrF2ddnXZ12dDgADAAK67Ouzrs6PAAiCCV12ddnXZ12dEuwPErF2ddnXZ12dUIAndYrs67Ouzrs6qQBO6wXZ12ddnXZ0CzI8yuXZ12ddnXZ0RJiXJEv7eXKW0HyAAED1J2CY9oQcAaEFhY7eHBIAcwAn/aNFgX/enC20PbF0wqcBONtQrBLBjpwttBVRI6HEBoMwVQ5wvnXglxZbg1Z2CCoRhT1YoBE3C2ILEfOlPjBFuIBIFJYOr4TQNt2G9k+DjduwZ05S6Yy5ADkmogFsBCrQvU2BBiH+LlL6CmBNSAQKZRZjNOqbkMkD12Phxt5Ewf2FFAhABWhAMBpg304WyFLygDeJP8RAEOpJMYsN4ogfQhNUVYacLZDUZwbklRSjS9BZqCXITud4aQGd4EyNeKc67bn0BPOHNsWcGAxkIxJnWwlyCB8acpby5S2j2ULkPuW2ULhaUx2AZQeHDaSQpXuAirGXFGGQ5MacLbQFUiYATEsQWf2QcgYEnLDQRO8504W2gZxEB53csq2rCFwwgIj414FiaAHJRkL7MkeBeQJ3QtMUiqHGfvSnxgiDpAQBUlkaUGKgtSAH9kJAYCXJEklwNOUugJEA5JIGggwrmQ4cUR4wHQDyryuUvoaqG0ECBVAfchiHOB2gXD3v4cE9jJAUCntgxagAULqo5kLmXC2QBOUKJKMMKOYbAMQZRpXeM8S9DO2nC2Qww4IdBACjVIbD2SGJzPBEIPe+vG4qmnLACemtGOMOQATlNMjFwg7Dkp305S3lylvxccLbxcLb8Tinxh48pfw5S/4uOFt4uFt+JxylvLdUf/ABdGToydGToyQW5jZhdGToydGToyfBBbYLoydGToydGT4ILbBdGToydGToySWxjdhdGToydGToyNXsLZhdGToydGToyHIDrsN/RdGToydGQ4AZZxv6LoydGToydGSC3MbMLoydGToydGT4ILbBdGToydGToyfBBbYLoydGToydGSS2MbsLoydGToydGTZUb/ADy5S2k2RiRgEKFe6HhwSAHMALbuLIP1pwttBIAcwAjQKVIP404W2gHAJQPIVDAgZD114KRAnJGARoEVAu+VSggRwdKfGCIEJAASSVjgUA+UEmCQBcHTlLrCjkCFqNCOCg0Q0gC4K5S+n8wv6I0BwpCzm3hwLFGhC72QszggiECCHEgrhbIIxQCSTsiAW1EIHujAOQSFnxpwtkJADmAERj6oID4QMhRMWGfHhwQAvBkW9VQU2BPq05S3lyltHYcS0MyE6IzM4ghgxvJ48OCaZL29CCNcJqzkk5xgkT86cLbRXXgSbFNCc0VUCJA7FHF/3pwtkByDkPuEOc5o4nLzmqEoAZQMtDAb514O+woOgm5R2CoCUhLCIudGDSBUcgLfGlPjBOlYWwsDknopkJ4Ggl5uNkBgzBUIwDE6cpdFAan5MQNymTiMsGHc3yc6I5S+hkJGHNwTcnFh+NiYaSSW9h6+HAAkdTVWb2WdQc1Ae5/mnC2R09EMAl4HynuWKQRYn2QArW2GIf06cLZCRhtAJQAphIimOhjD7Q1bAicAMJkN7zrxSZ08wDedlEclicm57CKqUVGZBqMS8IsNOUt5cpbQ3dE2Y3B2QNkvIh6gmfDgNKEQUVIdwa9zOnC20BpCMShT+aAJZtZzOnC20TNgzSDGZHY4FiAPcW14bRJijhPUBCzErOQQoFEBpT4wQDHOBcFAcBE/RAiUN7gq5JuTvpyl0Z5KSbL8FFpzBuvyRTIJsO7BcpfQ2bUkCbobN5XaMI/0+HADvqvHsgJhIJONBf8A06cLZAFK4FBHEIulSLOS6i0NyS1A5J04WyBpCMShTyISWGxyMJ742SQLBzA14AQAJQQd07CIDI1YOYHootwQIFgJj205S3kDiuf8Wfmys/NlZ+bKz82UHLL9RlZ+bKz82Vn5srPzZTMf/EZLPzZWfmys/NlZ+bKZj/4jJZ+bKz82Vn5srPzZRcsP3GVn5srPzZWfmys/NlHhP+IZWfmys/NlZ+bKz82UMBkdQb+qz82Vn5srPzZRwGA0Jv6rPzZWfmys/NlZ+bKDll+oys/NlZ+bKz82Vn5spmP/AIjJZ+bKz82Vn5srPzZTMf8AxGSz82Vn5srPzZWfmyi5YfuMrPzZWfmys/NlZ+bKBhWH+eXKW/FxwtvFwtvxOKfGHjyl/DlL/i44W3i4W34nHKW8uUtps5QAqWwCMBQzQDCPDjbSJseT7Byji0gdKTvABb504WyGSGoOKHTRyZCFz1NSouVCE3YCArPxpwtkcCYObI6I0G0Vs6BzGN94kmh7nbXgKqQQgl7BDI27YcOIcBwQAap9tJ2EOSB/1pT4wQmhyRQTOzOCGqiTNCMwYS3paSpnyjNpyl0DQ8SEA4gOCE3AAbQIj2foRbATiQbxFXHsuUvoNAVYmlWju022RQ0gISCwDtL38OAo22YFQAvDvXAUyepBA3DNqhbLhbIXVhOUJGIx/wDUyNxSSAXYiABbThbIPcC5HZNXie3gTOUAwCasgHdktrwAhAAkkoRUfeyIBPq38QMZgHoAilTBmNOUt5cpbQIycgRB9QU7e4noG1d/DhsoAr0LBY4hT/SJQSXJIF7acLbQD3ncy0CYwUKIShHno6cLbQTfA0BqgQKYaEyi8hpDR6TrwMNvImVixfZMSzGODghvQsiPoImhyE/3SnxgislqGK4KFsgAkCxwjSwyBA+H05S6IyQaiMLAgFkW81iImIVYxmxRFAeDvABX2XKX0NlADsgOAgz7O6Bnfi8IHo/3eHBLIQZhWDGLbF0dX06SgDDf0EIIUAZcLZBBEALoCMhMDI5K0yCWR8I2YJ7c5LkDGnC2RwhwGCkJqE6THCQhi83ZMOcKE3Du7n014YXNgdnCEWtSSMO6TSUaaSciXhpcBhidOUt5cpb8XHC28XC2/E4p8YePKX8OUv8Ai44W3i4W34nHKW8iY1j/AIsfNhY+bCx82Fj5sIuGH6jCx82Fj5sLHzYWPmwnY3+IwWPmwsfNhY+bCx82E7G/xGCx82Fj5sLHzYWPmwg4ZfuMLHzYWPmwsfNhY+bCHCP8QwsfNhY+bCx82Fj5sIYBA6k39Fj5sLHzYWPmwjgEhoDf0WPmwsfNhY+bCx82EXDD9RhY+bCx82Fj5sLHzYTsb/EYLHzYWPmwsfNhY+bCdjf4jBY+bCx82Fj5sLHzYQcMv3GFj5sLHzYWPmwsfNhE5rj/ADy5S2gKACBuEksP6hRh9iJ/kdeDIIEkmgT2nMnGj3KAJgMTsaGCRsdOFshACSQAJJKJcRyGILB4TUSwgjT8EdOFsk6ABTdXNBBUwT8Ij2DQRFmJuK68AOoo8XFyESlooYI3O4UQyXrbj4JGlPjBBY8CwdhUyQLJ4yiGNFXcgBkxSQAYkCxB05S6ZFDEc/LBGmrKwxyW2uj0ldnHfsVyl9C+kkYG2Sgc6woExmq9Yp4cFnMFf30RAzReYgP6GnC2QNpCcKj6IxKvflsHEAFKhuS3gkacLZHf3jVgjSBeTHsSaiWEEafgjrwI5AAOSUYDhBwYUk1/rIj2DQRFmJuK6cpby5S2kEIHBoF3JsmicAeFuMBEvtrwBoAFihLV6MsAlHuoiuCXGfldOFshkEAMQaFEkCMBsyMr7iAMgYNY04WySBkER/EkIIkkDcx6J6EqptMbF/5rwGyrgiBuf+IU5O8whITUf9TvIoagvO+G0p8YJ3bDQEGzmH9kUwcJOAgvVjKMTkz3EB/1pyl0+o6i5kmiHpbwnl8og4ZToEA0jD5B3XKX0cB3JhelYAHJTIZe6lBazF/DiKTRDAaFGUR7omgVgUUq+62LCWXC2QWbhVgMn0vhGGnTpEEOLE+wp6J1ty3DlzP7acLZG5gA2N2VLXHYwwIky1CvuIAyBg1jXj9kIhCaYkBlYuNzw0b2T0JVTaY2L/zTlLeXKW/FxwtvFwtvxOKfGHjyl/DlL/i44W3i4W34nHKW8t1R/wDF0ZOjJ0ZOjJBbmNmF0ZOjJ0ZOjJ8EFtgujJ0ZOjJ0ZPggtsF0ZOjJ0ZOjJJbGN2F0ZOjJ0ZOjI1ewtmF0ZOjJ0ZOjIcgOuw39F0ZOjJ0ZDgBlnG/oujJ0ZOjJ0ZILcxswujJ0ZOjJ0ZPggtsF0ZOjJ0ZOjJ8EFtgujJ0ZOjJ0ZJLYxuwujJ0ZOjJ0ZNlRv88uUt+LjhbeLhbficU+MPHlL+HKX/FxwtvFwtvxOOUt5cpbRwkiEotggxs9RUoTI14cqIgIFDW6hIzTYowCpQAA3ASbnThbIawggUJbJuvS4lunnehiYUHHhuFdOFsg+0UlONydCoMhsg3z/wCoZQgMRwdAZuXEHFQgTwM3Nvg7bwS5Q3j0asrri41p8YIpBYNiSJMxm9oQs8GCZUKW9k21MFGADftSabEQoJFyf8QlmQ+9OW2A05S6e4lmC5KyNAZiACQeW9xMwoEQDFaDLRJBprwyVKxYMAlSnUQQAjmJYLH4TqWQ0TuI2d9OFsgbGghgTsO59tkSxgKgLAIsXLqo6z1bThbJODgBvkgR8qCROqwA6BF/2i7EuAhBExG/NTOvBWIMxA4KYTs2cPm29ii4H7qLMN93enKW8uUto+ASsm92H22PhwbcBpq4WyQizwFg5MEDACSzc76cLZD0gPVBOEA04MH7Lg/pB3AgWA04WyAGt4O+gCTlDI6YoJ/Zv0hDKANoFgFQHcIKszIZsLNsJi7oigHEDD7D+6gCIMg/xI+D3c4WbOfclFl1OmcpEPuanXlLonWzKSGlHc/Lgn5M9OUvoBMogFIcEmIyUVsGjlqUAGvAOUgK8DcIZFmwXLUEABEzIzF2Aj404WyEVpMWGg0w9IhkYxyNgARFnpEIAIAIGnC2QF7jYoHJmSvbBVAYBAG6xMhYMBYeHAacZsIaSJP9WKYQPqzv3pylvIHFc/4s/NlZ+bKz82Vn5soOWX6jKz82Vn5srPzZWfmymY/+IyWfmys/NlZ+bKz82UzH/wARks/NlZ+bKz82Vn5souWH7jKz82Vn5srPzZWfmyjwn/EMrPzZWfmys/NlZ+bKGAyOoN/VZ+bKz82Vn5so4DAaE39Vn5srPzZWfmys/NlByy/UZWfmys/NlZ+bKz82UzH/AMRks/NlZ+bKz82Vn5spmP8A4jJZ+bKz82Vn5srPzZRcsP3GVn5srPzZWfmys/NlAwrD/PLlLfi44W3i4W34nFPjDx5S/hyl/wAXHC28XC2/E45S3lyltBEDxkkFvQEKc5vI6mSYfXimJ9QoQLPzQXFRxRFbgEPmdOFsg/W8FgSpUUAsULMxJ9lB8obmIGfnThbI0A3Os71TAGbcKCJJetYUv6BCNBkvlGvDQGAg7j0YEfKEYs0iANkVJRGyK0L0DnSnxgnEaMK2k2lVD4Q5/wBo1C5qsBqNOUujgBKgamoApC8iQTK2eaXVRkYGEBcD3XKX0HkDOAIqad322RGmJGsyWIF7vtt4cF7TZGGdzxvsaIaxCkz7VAxWjacLZBaXccPhwivF5T4gHdAJ/qFPMh8BDsQxJx86cLZBMxt5k+HH9Q2kBEL0NWw/qFoYAub5arb+68QwXDBup/0CEaDJfKEISBt/MH9I05S3lyltIGYMpRCEYwPwHhwKauKTHh3BjCCXUTtEwPbThbIx2xSBz6lSuDIabACMExwNL1DR/mnC2RkPjZO9UWz2cUkBhFk2GkcbEVTMudeBEp8DDsgGR6bTTI4AQQ0ewRNDJm4LaU+MEQReRPifUUJiWA2cQD6/1AjFQYicwTpyl02TqqK7sBTdUawprBPvuUUTJTbgMBJ3MLlL6WoIxs4O8MVRGs4gWOc53ceh28OAKhhEhrkncF6YUlKAwJiplwXshIEE4CTdcLZCEwsEy52QANwNk1ECnJdP1oyEy5oTjThbI4EQHNkANjcbvMuUAmAbvI+vD7tRfNBRzeeGLo2Z3u5Ru0hCzQmgAUg6cpby5S34uOFt4uFt+JxT4w8eUv4cpf8AFxwtvFwtvxOOUt5ExrH/ABY+bCx82Fj5sLHzYRcMP1GFj5sLHzYWPmwsfNhOxv8AEYLHzYWPmwsfNhY+bCdjf4jBY+bCx82Fj5sLHzYQcMv3GFj5sLHzYWPmwsfNhDhH+IYWPmwsfNhY+bCx82EMAgdSb+ix82Fj5sLHzYRwCQ0Bv6LHzYWPmwsfNhY+bCLhh+owsfNhY+bCx82Fj5sJ2N/iMFj5sLHzYWPmwsfNhOxv8RgsfNhY+bCx82Fj5sIOGX7jCx82Fj5sLHzYWPmwic1x/nlyltClgokFIxAh6gz4cFlDNkCKosO8TE9IM6cLZB7BXJsmq2clLXYAh8GDF1NOFshkUAOSdlKQSXvmbZUhawYFw4n214AMFcmyMxQAwuwDoASYCNKfGCCkCck7BRjeBegx0EuHTlLo/IQRSJ9AmagsBQcEHPwoZALnBBBsQaLlL6PoBp7pNtj4dCAMnc+HFJQnXRqwRuQJAE87gYe+nC2QNIJySnpRXen7CHUWhuaAaFiBpwtkFgCclAEMIrEiYF52yi4rAdjrXDiRrwQISAAkko6x6MjFw4keifYJCQwAuRo9NOUt5cpbSY0PDQTgTiFXOBCGgNMxffXgUG6CKKiiIsFlLUDCpjIgCNx76cLZPY9xhOy7LAsS5ebEYymZfEMeXSLE104WyCKBEiJYuhAIBMEBATkDEqcxYRZxqyzU14Fx3vk7XciBXpSxIAMcsXfpiq0Vk9OhT4wQsPd0WxOEboR8kDAAFAd3uKIHSWjoYuSPnTlLozpNa5wqYFUaMA8wfYw8kUUTNogbhocU9lyl9AE4gCYId0O8gibKPhhkwEQLjU0/Q8OJLLUuRb/T4UPhokAa+pBAAAUELhbIYYIoh2JrE4BZDTktAaSHOTVAgpMFqPw/3ThbI8E1BFqw6N/ssQYHS8mr1xRCIHBsABc8l3ica8EhAwDkBrIzRvAKIDQNJEJquU1IBUyWoN9tOUt5cpbSLIxA4K3UWyD9eHABBKSA3Kut+4sg/WnC2Q1KlXQKiPLMC/SAQACAYk6cLbRT7VAB6kJh6gYI99eAEACUEHdUHImR6AhIIEACg0p8YKoQsMaEJD2UWRgBgNOUun4dsiFiG0H6IIBFAMAuUvoSCRxiH9lWmZA7G/hwAiCAxZJRSnOSBKAADCAFwtkMggkEGhVXoQ4B9kYEySAu+NOFshAIYyCqGJAXfCzrjLvjw4IEXkyD+qov7MH1acpby3VH/wAXRk6MnRk6MkFuY2ZXRk6MnRk6MnwQW2S6MnRk6MnRk+CC2yXRk6MnRk6MklsY3ZXRk6MnRk6MjV7C2ZXRk6MnRk6MgwA67Df1XRk6MnRkGQGWcb+q6MnRk6MnRkgtzGzK6MnRk6MnRk+CC2yXRk6MnRk6MnwQW2S6MnRk6MnRkktjG7K6MnRk6MnRk2VG/wA8uUt+LjhbeLhbficU+MPHlL+HKX/FxwtvFwtvxOOUt5cpbRqTIiGO6X22lEml863eVRH914+MGxEuOrgwAjJnYXTjo7Ayd8VNOFshhMICHIUKGE2XIAc4h39lLOG3kLg7x7acLZHtYQYdjdkBx7hw97F2iicOpXuRhID/ABYa8AyN/svqaD/xOGByYyZjuFyap2hEJOAIMgkua6U+MFQpulsGALhd67IPMyII0MnE0+k/bQSOTpyl0I4wRwABSQao3FEVAIpLA28J3BcVQcDI0Ng3P6yzLlL6VUkhE+A0JP8AChQFUAmGPdZg5z4cEucw3Cx7lX6TJCC30qXtpwtkJiQdYyd8Op1MYcgCfYozSrAxgC1T6jThbI+ewVqAeSPZ0yFEJxgEUJfYmPRClI6TYEJNKmNeHZMcRVANhECf0PJAqPRAaetwhW36QNBCCXK5S3lyltG8gANxcbhHADdhhhQATnw4Ik8nYmwEetEFcGjgCTRzfThbI2zTD+AhcUihgbkk3VUqprOJcnThbJsp51jkCiFIUApQYvJcocIAIEOOQzykt6a8R40AEEYaOCd6IRPvugHEuuIRzpT4wTTbEOgjdwlO7uJFMkvGE7qbBIvpyl0EUSXGJEgj/wBQOUG/PszF1GbdUSywYUAgey5S+jpPAg1DvsqjSpEYkfDg9whLpVZ3+FYKkz1A3704WyEBxiK4KMERw3PQBzvNUffRgoHydOFshgpYMDt6CBxw0oG4kzT4QyUErMCH3MwNeLfah6EFOj2g5DuNxco8EQnasJLsCJclFXIbjuSXK5S3kBIgHJMN7Ls67Ouzrs6BdkaJWLs67Ouzrs6qQDM6xXZ12ddnXZ1QgGZ1guzrs67OuzolmBplcuzrs67OuzoUJEVVi7Ouzrs67OjwAJkEFddnXZ12dDgABJJK67Ouzrs67OgXZGiVi7Ouzrs67OqkAzOsV2ddnXZ12dUIBmdYLs67Ouzrs6JZgaZXLs67Ouzrs6AgRDECG9vLlLfi44W3i4W34nFPjDx5S/hyl/xccLbxcLb8TjlLeXKWROCAsHR3nIuouEnaiDPbOGRBoQWGdeCl5QBvEn+IMUM6IZLDfCqOmnD7sLacLZD5F2Iq0JPwi2QcXch2Bi5b0RUHE9A6cLZCTvUBIxrbGQC7AQXMFOxNwB2fXibc5hANYG6LjWB4EGyb2QxBG5I3AsR+tKfGCCuBLAACpJY3GyJAZBxhA6S7GKNG6mxN27BnTlLoP6uLfgk7d0SABLzQIsigG9CB2Bg+hC5S+hQxTX6QUfKY0TcodxhQHPhwyRiLQqzKD1TTVISgEwSz3CBcOKLhbILoKIij7lNQhOZco7A0x6KD4sxyRAGLx6Ic/AxcLZI4hwoDDkoGDyQYUAMhKCIIBNy7AQXMYVOLD6FGC4AESgjFoOSHhAhk4ticghgxb1Tp0zbDYwGM505S3lyltDCBUMjJwN4cgId7imZOWM6uAE5QokooOewNgYApKMOcYIZOSYM204WyEUcg7QOxoE+hEJNApheEUoqp7fUDThbI5/h1AGkEKj6WRCzjORYMHaoQgmAZY214MP4AGJehEH5UmWJgRSBNEXEzyqgEI/WlPjBEHjKKZJBwqIP6T2oNSIGCWj2hRr2BYgUDj205S6AQGzHIExPw6crAYEQwCw9kUzdLxgB29iuUvoQ7SjCCk8j7p4G2B1l9kDw4Fx6k77TZGQ+2UDbtAIADAMXqsEGXC2SlKEDsGMp6FY6gS1hIgSN08xxlAljSRAkbotefABcLZAYVDIHgC6mzWwPRBnN5qJwQWpsv2RUNpwU7LcEt23RdwZwAjcmOYc+wRCAhQcQSxprvTTlLeXKW/FxwtvFwtvxOKfGHjyl/DlL/AIuOFt4uFt+JxylvKyecey7f7Lt/su3+y7f7IuGa+UMrt/su3+y7f7Lt/snZinsyXb/Zdv8AZdv9l2/2TsxT2ZLt/su3+y7f7Lt/sg5Z74Syu3+y7f7Lt/su3+yHCbNYyu3+y7f7Lt/su3+yDAZmSbvVdv8AZdv9l2/2RYBEyDd6rt/su3+y7f7Lt/si4Zr5Qyu3+y7f7Lt/su3+ydmKezJdv9l2/wBl2/2Xb/ZOzFPZku3+y7f7Lt/su3+yDlnvhLK7f7Lt/su3+y7f7KyaMe3lyltATgHIcnlAnAOQ5POvBkECSTQKtEIUge627iyD9acLZKL+zB9Cov7MH0a8LZCYRnJGARuGA5IsAPVAghxI14HEAoZd8quINAegUJlSjoH30p8YJuHbIBZ+gAfJTZGBHB05S69DCLvlZAbE9kYByCQs+Fyl9PcvD+iIAxnIIf08OAgGcghd7Ks3gEF6DThbI2zBg5qUCBcCAcs5NAqWITBPppwtkBOAcByaUTCggC75WaIEsNeAcwUAMhGMPst6qhgQMh66cpby5SyCUgjUmx+UNBY82LAoQjgYGB7teDwTANzCC8oRQFusl+PWyMCF7IZjv9xpwtkCHu0NgtHvhGTeUahF5wj3kcKqmnC2QxhM8FYxAMw/voqrDMFFLQBnf0QRjsQoIPwdeI9CgSkJYRFzog2AMvNA4RB33RhEzahJA4+NKfGCErsAkgAuDs4czfdS8vKWREA+UPubIgxn03VOHpXTlLogdRFygD5ZRIkTbl+ynv8AuO1K5S+hEFu/+Io8Vpsja4DTEpmXqf28OJUcBRQwO7I2sgQBmdg4k7jaLJ+GOuFsjpEmYcwINAiDQAwJjCERcQREsP8A6iIVTeplwtkKAQByEZa6KuqRIj+A8lBLFiuTFtBcbkSkI/04G5KS0cnBgSKGgQyEoAZQMtDAb505S3lyltK2QY7yS5VbIMd5Jc68EhpyCQC/hRZA9GeqGSSSY+3HThbJNSChCzDPunCCkZQ2BAMj1QAAACABtpwtkbYBijhSegu2QAAFBGvAQRiDJWcgVBimIqB6gug0IO2lPjBBwF0iAPQiUS+EuRAHcsm6G2BNXc5OnKXQs0AY7SC4Va5DHahcfsacpfQ7wH9qpM/sjM3i5Km5cx+PDgzMeQQc4ihNBKKCHkFhggo9B99OFsm0ozUIQIWA5KAXCLAAgACwAsfdCKUXC2QXbAMtILhBSBAnOB6FBYyIMpMFxNdeAmeCUwDIAeJEm5US/RHY4FiAPcW05S3ldNOfZdP9F0/0XT/RdP8ARByz2whhdP8ARdP9F0/0XT/RMzNNZgun+i6f6Lp/oun+iZmaazBdP9F0/wBF0/0XT/RFwzWylhdP9F0/0XT/AEXT/RHhFisYXT/RdP8ARdP9F0/0RZDMwRd6Lp/oun+i6f6IMgiYAu9F0/0XT/RdP9F0/wBEHLPbCGF0/wBF0/0XT/RdP9EzM01mC6f6Lp/oun+i6f6JmZprMF0/0XT/AEXT/RdP9EXDNbKWF0/0XT/RdP8ARdP9FdPGfby5S34uOFt4uFt+JxT4w8eUv4cpf8XHC28XC2/E45S3lyllVo7DSEyzYbQOAf8ACYEEQnYBMkU/evBWUEhxSzyyj2RgMycxlDmGkDcEsMacLZI95jcLjIP6Iim2jIRcrG4RNKJtQaloYQq2nC2QF64NtaAMn7TbewFutarUZ4qjIiJAJbXgJHNvJJYKhRjD7ohJ7iCNgdpR0CPqq4A0p8YJ498c2EhuyayxMUSetwAiiWhuXIJOnKXRSQDwMkOZqqtRAE+JhgG75jM0uiYEEVixhcpfRq4wmali2D3QHelE+0BdVdiz414q0dhpCOdlvdyC1oTVtAeAKAIy7CE/E2dyQXxU/a4WyFh+epA1KMEbGL2gZ5E3TAcWEYBFhWTui158gFwtkjNGbgXD2TLCGgBVLmrtYt7JAQTKhjUaIjKDMfBKfTSM6DCIzVAyLItbaA3DMf4n12GEgD5jTlLeXKW0LXndECR3C9XQ2SAAY/s14s94gCGKA+YxvJJiORAEwwDf7pwtkZg9ircyDftMHlAU4DOJEsg3sB6Q04WyA0OcCQLMCggvJpEczAENUoopIGc1OvAAydng70cIEoBaLzocbygASNyQKhcn96U+ME6jzQzyO38T/cOeD1MEYTAc0Egt6EnTlLpwEVADVw4/qbmIgbOQBALsICOqs0ynLj4ouUvoZFHrhzuBLdsyAERN4FyA6hON/DgMI0AWMKN0KIWAzlxIm53T00i3A+zm53XC2R1til3Z4R8JgINhcQwzlFBuxWcsz7EeqHHwMXC2S52zPQKPZYRKIbeQYoR5UkEhgDlAINwlgH2nTjd4pwIDe6GZs0R3Ln9oyhEBwxcu73bTlLeXKW/FxwtvFwtvxOKfGHjyl/DlL/i44W3i4W34nHKW/wDpKWAcM1dglsoa6jDUgYtDVaM03QwoxE7lQJgyJJkmdh7AqxnqsZoS99SyYcgx3MgsghyJCgtQqDEowZpN/DoMIaAXNSaBBZBDkSFBah0EegA5TMSWzODTQwcmEGpnnQQ83JgAhI/4oPld2aj6PL+6P5HpybkQzkhiAauYKJowOSfY1GFHshFBPKTc56yPRXXGoLwoLyCIAf6n6r5KSgnHAgje19oC5zPe7bo/ahpq5uGzNe6kksoePAgCm1ajZMkXCSw047BjdGDkC6tkAc1T3BrgAgYkDsKD2Rraq+Vg/wARhgym4oJILhr4hzLOmVN0AgSREDcgHdBAI2zCGzKtA68QgCuADR44Ilg4MYUTCJexwbc5EuZFwyK1r8rCA8EGulqVUvC9bMAplmgkItBDEoBAKpcuH9tkxqXYlQLVQC7QDdmIEQddr2hEZYrtq93/ABhFmAgaCTN8o4WMHbE7AwpJ+VQHWiHoUIL0mM5gwAbnbyJHLJs2YkH/AD/sX//aAAwDAQACAAMAAAAQ888888888888888888888888888888888888888888wMM4EEcwYo4wo888888888888888888888888888888888888888888888Rwwwwwwwwwwwwwwwwwwwwwwwwwwwwh888B1AFpAIARIAEAVgAAAUAAAR8AUhRgA888IAAAAAAAAAAAAAAAAAAAAAAAAAAAAE888BUAAoAdAABRtA5AAxA0AFQFhAhIAZA888AAAAAAAAAAAAAAAAAAAAAAAAAAAAAA888BcABIAdANBQdAgpB1A0AFlEEAJhBJA888AwARgAgAQARQAghAQAgABBBgARAARA888BMAEJBAAIAEIAJIEJAFAENFIAEIFMA888BgAQBAgABBRhAAhBAABABgQRAhBBhA888AJABAEAABIEBAAJAIABAEAFEANAAFA888BwAQhBAAAgRBAghQAARAAQQRAhAQQA888AAAAAAAAAAAAAAAAAAAAAAAAAAAAAA888BMA1pRRAYA5BQBABhR1AEoQxABIBBA888AAAAAAAAAAAAAAAAAAAAAAAAAAAAAA888BAAgoRFAJBElAsgBpAlAEJEpAJpAkA888AAAAAAAAAAAAAAAAAAAAAAAAAAAAAA888BAAdJAYAFpVsANIE4AYAFMElAEhUBA888AAABBRAAQgQAAQBBgAAABBBhAABABA888BAAJAFNAAAFAAJBBFAMAFBFMABABAI888IhABgRgAQBAgAQgARARABgBxAAhQQF888EBABIBEAFJAAAFAAAAAAFBEIBBEJMA888BwAhBQwAQgBhAAABgAQABwBRBhQBBA888ABAEBBBAFAFBAABBBAAABBFAAABFBA888QRAFgBUAhIEoAgpRxABAVAUVBIoRoA888AAAAAAAAAAAAAAAAAAAAAAAAAAAAAA888QUAIgAEAgBA1AkoBcAUAlBFsAYB0cA888NNNNNNNNNJFNJNJNNNNNNFNNNNNNNN888888888888ssU88s8c8c8sc8888888888888888888888888888888888888888888/8QAKBEAAQIEBgMBAQEBAQAAAAAAAQARITFRYUFxkaHB0bHh8CCB8RBg/9oACAEDAQE/EP8A0hwTCiunbpCoE4Urkrp26V07dIkmJhlQWV07dIEgOY5UyV07dK6dukKck40rkrp26RZOO1rK6duldO3SBCSduldO3SDoOcKXsrp26QqBOFK5K6duldO3SJJiYZUFldO3SBIDmOVMldO3SunbpCnJONK5K6dukcExr+N4iTMDHhSjMeQpkHRGCp83ARAkD77VT5uCiWapIqX+nyUMRaaMmR4RGB9FCQAK2wTIlmc/4hPkOUAASUZjyP8AhQMvZQuc3AQIP9N1Pm4KMSD6CMwb+VJ/T5KaIDYmL3z+C3v4OCY/YJ6Rr6RNkJjG4snpGvpPSNfSN8AnWwsnpGvpG+ATrY2T0jX0npGvpE2Qmcb5J6Rr6RLcBI45WT0jX0npGvpHLCQx9J6Rr6QL8BIY52T0jX0ibITGNxZPSNfSeka+kb4BOthZPSNfSN8AnWxsnpGvpPSNfSJshM43yT0jX0jJpj9h+N4jCA/xSjMeQjIDgOU8Zo+VPm4CGAYQU+bg/wDICJAlEkGmj5KMYT9BkZMjwikXLBuUZIOnNaiKAEG3ghPkOUE7V4EFKMx5CIADUPKCHyadgb/MEaEfo+IKfNwU2ADERx3RMf8AfJQKWRBNvrre/gwaDxT6tu0VppilRdPq27T6tu0d4k7UF0+rbtHeJO1DdPq27T6tu0Vppmlc0+rbtE2xSNLXT6tu0+rbtHnJCnafVt2gb4pCl7p9W3aK00xSoun1bdp9W3aO8SdqC6fVt2jvEnahun1bdp9W3aK00zSuafVt2jF4NH8bxFA4CpRmPITtQiBGanzcBHAMIbqfNwUcgAJ9I4OU4Rg/kohMvvskZMjwikQ3zsmAlEQJFAjCARMP47QnyHKNP9XRSjMeQji4RhAyCJnCvARhm+j0p83BRDFEcC8wiYsz5KBnBKa3v4GRNFR4g/8AEzEExjcImgQQJgQn8CdbBPmIP/E/gT4KM0Rsg7EBojCBImfJQGXBCLeCRxyRPMjZAQYEIcBCQQHIjZB/BIY5oEAwI2TMQTGNwpiB0QBIhEECRPgIEC4I2T+BPgolLkjZAmBCZyTPlAhIjZPkeP43iIAMalGY8hAAkoIsRsc3AQAtAxU+bgoTXQAcKIM8T5KCbAfQ7RkyPCATEIQgxRMBZ4BHWffVkhPkOURDwMPvsVKMx5CADlFCBgiAJGvARAAD6PSnzcFBBYoAMUn9PkoHZsVvfxvETQYqUZjyEAGKEDBT5uAgAIIKnzcFBn+wQ0D8Gp8lBQMmR4RISTF0MQSCY3YBABf6nhCfIcoiYuVKMx5CGLFAIkIBAa8BFHH3zqfNwUTcENZBBIGp8lCSW9/ByB4qPAfJMxBMYXCmQCDOANE/gT4CAKQGifwJ8FEmIGiDuANE6CBM4XKJMANEW8EjhkiALEDRAHAGiGCQJDBAZgBog/gkMM0WYDRMxBMYXCDOQFJg0QDiB8AgHgMNE/gT4KISxA0QRwGiZyTPlB2A0TZGj+N4i9cozHkKuRgip83AQaXf53U+bgo8BMEVzl0CIJonyVGh9LpGTI8I0Z84PChCEkADgE7d0J8hyoHablSjMeQmzOydk1Qga9BFBd/o3up83BTl0zZOJYv5KIC7/D+re/gbqtU2+p7QGxmMTUJt9T2m31PaE806mgTb6ntCeadTQpt9T2m31PaA2Mziapt9T2iDZyOJsm31PabfU9oWNIYlNvqe0AfOQxN02+p7QGxmMTUJt9T2m31PaE806mgTb6ntCeadTQpt9T2m31PaA2Mziapt9T2hsq1/G8RDL/TUozHkIpeDv0gm6+gEYk49/T/inzcFYSc7/wCIGEUQanMf6jiYN/gRlyPCDzgQ/wA6z/4WOZNwiuJDIgBNAcoxQ6+spRmPIRkpfX+o75EeBXhEIT/sVPm4Kd1Gk/7oiAQUDlmfJW4CfvmW9/AxTH7FNUNPaBoiJjC4umqGntNUNPaF8QnSwumqGntC+ITpY3TVDT2mqGntA2YmcLm6aoae0Q3ESOGV01Q09pqhp7QzwkMPaaoae0A/ESGGd01Q09oGiImMLi6aoae01Q09oXxCdLC6aoae0L4hOljdNUNPaaoae0DZiZwubpqhp7Qg8x+x/G8RBIfff4pRmPITJBQyrR8oFvtAjjRZ9mM1Pm4KMsDuPijIFMeZ8lF9LfxGTI8IGMFmwzCex0QDiYI3O/unaE+Q5RIV30+gpRmPIUAIcQ7f6vJwE2QC+HL8KfNwUYigLScUZBtfyU5E2fi63v4OCY/YJ6Br6RNEBMY3Fk9A19J6Br6RvgE62Fk9A19I3wCdbGyega+k9A19ImyEzjc2T0DX0iW4CRxysnoGvpPQNfSOWEhj6T0DX0gX4CQxzsnoGvpE0QExjcWT0DX0noGvpG+ATrYWT0DX0jfAJ1sbJ6Br6T0DX0ibITONzZPQNfSMmmP2H43iIAwf70pRmPIRZRgUYHM0CzvpBBoImZ2i31FPm4KMQZCHKJmIDxPkptH6XaMmR4QzQ+cdogCUCCZmHCMxhLbP6qE+Q5REHam/1lKMx5CEDEihBkixS6CMYfp9KfNwUaFL/fpI4HEiYyL+SiGNTf8Ava3v4G6rRRnY6HpAbGYwNQiTA6HpAAYA6HpFECDOhoLIBgBsekJ5p0NCiaY2PSkQb+HpAbGZwNUBRA2PSINnI4GyJpg6HpAGB0PSKAEYUKA4gbHpAHzkMDdWdj0gNjMYGoRJgdD0pENj0hPNOhoEAyGx6QnmnQ0KJi5B0PSAgwB0PSA2MzgaoBw2PSGyrT8bxEA+pRmPIQ5wosiY5uAgRIDKfNwUGIyTN2QE5NT5KhTIyZHhEAQIkm4MUznJOAGmhPkOUQOWldSjMeQhg5ToiiGRdBAJgPo9KfNwUEmKAJbBB/Q/koAMvpK834GRNFOwGqZyTHkKZkaoIwI1RDDusETTEQun8QnWxRRiRqpMRqiwEJnyUUQEaot4JHHJEkXJGqHgIYXQwCRIYoOOCNUH8Ehjmi6ZvNM5JjyELYhqgAkgiN0QQITrYIAC4O6fxCdbFEZyRqoMCNUYAkRfG5RBF33RIS/BMW6JADFSjMeQjrIMXCAvGvARBgp83BRAXTQAcILxqfKBjJoyZHhERYoAOETBNAjYAQnyHKbx+6upRmPIU9REgYICZGvARGjc5uCiN3MkQYhjHEnyUDllvfxvEMhGXTKUZjyEQ4mCaRUtfgJy7/TU+bgohFMf97TQGCENc+Snbv8AQ6RkyPCASD6XSaMmOocKGJ8zIT5DlMwNvr3UozHkIYMU7JdCAvwEYnB+L9oGICvBQZkw3lRR67lymT0J5RBEn4RW9/A3ValXjqe0BsZjE1F00WJ3PaBg4J1PaCJE41NBdA0H3PaE806mhumsTqe02p1PafBOJxNc0Clgdz2iDZyOJtdNTO57QA4nU9oICTgMT2gCLDce0AfOQxN7q7ue0BsZjE1F0RTO57QNI7ntPIjOpoLogmdz2hPNOpobogmdz2mVOp7TCZmcTXNArRnc9obKtT+AcJqikVA3hSjMeQnAAG+sjMFFEBXgJwH77+qfNwUQJ5jtAwinMip8pwE/QRkyPCOCD9DpEACgJETNwmLAIfaIT5DlQWf7T6qlGY8hGBh86OYk/OTyi2F+AjEviBHKBmX4KfCyLcpyIoNnQhGhPIQCYgM79YLe/gxaLRsn1bdIrTTFKiyfVt0n1bdI7xJ2oLJ9W3SO8SdqGyfVt0n1bdIrTTNK5J9W3SJtikaWsn1bdJ9W3SO2KQp0n1bdIG+KQpeyfVt0itNMUqLJ9W3SfVt0jvEnagsn1bdI7xJ2obJ9W3SfVt0itNM0rkn1bdIweLxt+AfNQRcJCfxUozHkIiF/U0Zo+UYAAx4CLEpPm4KNM4FucIICABmiTIqfJQbg+gjJkeEV0RCwCmJACgQQmRjwhPkOUf581n7spRmPIRReg8IUS0P99IgAK8BEEmTOc4zRBEX0CjDA7tzdAOBufsE4xwE8oAh8DVb38OUR7twvh/SYN5+l8P6Xw/pMEnHf0vh/ScIOG/pfD+l8P6TBvP0vh/SLg8vpfD+l8P6TRg39L4f0gwvL6Xw/pMG8/S+H9L4f0mCTjv6Xw/pOEHDf0vh/S+H9Jg3n6Xw/pMUBrvx/4X//xAAUEQEAAAAAAAAAAAAAAAAAAACg/9oACAECAQE/EAQf/8QAKxABAQABAwQCAgMBAAMBAQEAAREhADFBECBR8GGhccGBkdEwULHhYEBw/9oACAEBAAE/EP8A/FP/AHPeQmDN/DpRJF6crynGgYaDkmNE5SGL/OsTMCAokVjSmdIfxybG1rAkCiJbqtVDkxlAfxG2n+tA8m1Vjk0DA8i6BCtjJycOhO3RZfFeDxqeWc9TMgXM21Wc+sYJLcBNyIluiL6PByK27YM7muOKB+VqIY86+Dd8hE0YcnjWO0J2B4OXgOXQJiIxmHSy8rtBusH8hZWIARPK/GjkcYduzbM/nRBdkkq5OVxLvrF+w3lbwYPygzTzfFApVPjTQHDG8SGVGWiONtDhS+cAFkoY186AjtuxDOmQwtyagfuSE4KIPBvwxU5mlDYGhWhjKfjVkJpFmImH/Hj/AMQ9umU7+KmzhTz5dCESFoGkBZTT0AkSIIADKUKI6xjKvoXRYgD2TIaH9ENc7IyqUPl085DaBuzBu4uN2Y1gGloc+TsfioLHmUZM5uaZDWIHLnWDY2iIgWAAewMhpaRLPHhlB2Hw8XVNeKEFF0O6zb7K+ZISsd6YIWENPeKrluHlxPl0hkh4FiIIXezbbcfJKakC1TDZ3MxzqpQUVyFl0CAAw5GEoPSEeApseNDj0ooyMQpwamkMvOe4YdPvVuzlf4DUbI1KBS3UhZ8MumGT4TYeYCMKO6abBtkYRVN8SfGrzS0OphKZCSldUZz52Qo1a2nHH/jGZ5SCiho8s7Pyf/rVzpJNgy69f+OvX/jr1/469f8AjqyI8CFDx5TXr/x16/8AHXr/AMdev/HQxaAtgtnHw/1r1/469f8Ajr1/469f+OkmwgbhJePk/vXr/wAdev8Ax16/8dev/HUkR5EKnjyOvX/jr1/469f+OvX/AI6mqEbjCCceE16/8dev/HXr/wAdev8Ax1QMQbCYeNev/HXr/wAdev8Ax1AMQbi4ONev/HXr/wAdev8Ax16/8dWRHgQoePKa9f8Ajr1/469f+OvX/joYtAWwWzj4f616/wDHXr/x16/8dev/AB0k2EDcJLx8n969f+OvX/jr1/469f8AjqSI8iFTx5HXr/x16/8AHXr/AMdev/HS5wkm45O71nl2/Uf97Bg+4/5Tb3nl2e88O36j/vYMH3Hbes8O71nl0DBigBQpWG8LDFcU308Tg9AZ+MBAwbGOn1HSzkXABCMsKUvFus+TNGtbY3RWPjJ2YEqM1tPIPPjSm1g8S33OTy257MDI2J5NKDZzHgF4qCECrvjp9x0hSiUgEsOC5/TRe1GSFEDQiZXsbYSd+nA4m2vALmKvi7sh5TWG5pGu7r3nl0OuYxBUmpFE+I56e88OpftZG2Juovwjo+o6wi6XWkAQRyJGckw7hGJ4pemC5IojLD8zOkWq7Bxs8Enh0MZ9ppIqxMFgm2euBVhFwkUYwzLvrIkLrIgC5HivOWqnJWBGuKMKvK+Ven3GrYClyYvzoCCJVUeV2FuWszoKuG24wJ2gQIOMHT1nh3es8uv/AKDRwyu2Hz0+o6SnkBkqZApl2tp96pQQiXKtdzeVzezAJvpVQ0R/rGyY50aqWJ4qTqclCG3ZgX30bzwYaQmTbRfqkcHgNun3HSBEI6lozM/LJhHEhsd9nv5iY427G2TY0eZASZMJkOKaiAKOcximAACrAy79PeeXTaTiZgu9uy8b7dPeeHVEjBTWzmDW6QUuya+o61zYykxDLTJWWJdAQACAcdcD11D5VxVbA8XxrHwMF1XClXdswY7MH6Kih3bzuN9fjc72Da3lxvOn3HSCkqHLlZfy40k4AGU3mSzwhAMTXrPDu9Z5dv1H/ewYPuP+U2955dnvPDt+o/72DB9x23rPDuQcBBiIte2fvXtn717Z+9e2fvSo9JFoxpnDF/vXtn717Z+9e2fvXtn70pDglYGpb8H9a9s/evbP3r2z969s/ehANELIRLfl/vXtn717Z+9e2fvXtn70qHWQKsa5ywP617Z+9e2fvXtn717Z+9CJ2ILKi7+Vde2fvXtn717Z+9e2fvQOeQgBY317Z+9e2fvXtn70jnkIRGN9e2fvXtn717Z+9e2fvSo9JFoxpnDF/vXtn717Z+9e2fvXtn70pDglYGpb8H9a9s/evbP3r2z969s/ehANELIRLfl/vXtn717Z+9e2fvXtn70qHWQKsa5ywP617Z+9e2fvXtn717Z+9IOQk1VHd6zy6Np8tBbsmEVY+IqGgFBJ5tBOBEJPw9PqOkycBVXAaUIchlCEhB2b0jzOzAJTJjfAHlYHzrCWrUViiDTGaZFj2YDYWJEKAsnBgxlMatBilEBc9PuNQLz4yJpiBSr5wLBc9TeBhgirsSYW6DAhFCuIngJ1bUb/AOso/BN1waSkFWEBxZtgZOdo6uVj+2xDCmyMMPG3T3nlposW5kMH4HLACqGsw63xtQxl4MZ1koUi7k4M8jjbO+veeHQB0lRGlFMsm2Dzxrd7uvCASoY4PAzOvqOkr748qwLMgGDYapgVg2coTn4CtHMuhoJs9MDUAG5ACvAtVwAuoyCsxxVBmqJuXWVdAhLuJRMk5M564CGZazMA/mV2DPGlLF1EwhWBwJG3DHswh2ACZDwI+en3GqYOUrmNg3XWMUeRHwAcVN86QCBTsoJmKFu4kx09Z4d3rPLoxEGB18BQZrF4mdC6ImmUCGIgFhlyq6+o6VrJKyt0CRxc7U50zydgAPhQkzkc8HXABJLLZqiLhab6eCpSlZwUBedgrx1wDYqKzoP4Py83Q5wZBQbTCyWYvT7jUyEpCE2A309cweuAKLeZMcaGZsMiy+QA/PVsd2i6hgAaHY+hIaqTdsK7oZ1VI7BqExVbQlwbQ17zy0ggAAb40WXYoJEDiqg3Mdw0c2DmhWoqjubYQzu+88OlDgANZVxYzzoVkoOTgIhcBZgxdfUdJ/AO0YqpsVDPOtmv4d58wvw42DXxsPBeemCLmhh1nA4N1m3nbVl71Y7lQBBarXfEWnqcVAJgDMmfjrgqHcghgAPt4M6AuVRocsrml3WsAAmgloaMIVYrdG0Dp9xqkC0KW+BuukLLH0ZQseaKgGAs0TJsQOA2lWiYN3XrPDu9Z5dv1H/ewYPuP+U2955dnvPDt+o/72DB9x23rPDuQRrkgxlc9owYMGIhQCFqbJxbPPaMGDBlADCiyuBHbz7v2DBgwZQKwgEjkV38e7dgwYMGApRSAobLzbfHaMGDBgLlwwsYDfxP/naMGDBgxKVCFqoX2DBgxYtKlAxFJ7RgwYMRCgELU2Ti2ee0YMGDKAGFFlcCO3n3fsGDBgygVhAJHIrv4927BgwYMBSikBQ2Xm2+O0YMGDEMaYItZHPd6zy6AHKIB5VwacmSAGnFKdPqOkycBVXAaQgjQw+KnswMnAVVwGm7hBQfFT2YBbiRGXJTi6/Bf9xwFnPT7jUv7AgBuq7GtgMYn40XjR8Ip5PhMdWwhGoQA5dEWYEe7tkzPGhsPBA+E6e88tKQRBMF2KoaH1lPB5ExoXFwQPhNe88OiRWLf91frU5Qw+VF3cOOn1HSjZuettE3602b1WHhFpok4CiOE6YBuzTgPKuqLAwbb0MxplSwgvCp64GTgKq4DTqPiAfKnVsIGo8NM6fcdJVEwdfiFmvrBX6Bp/PT1nh3es8ukvhmLgPy4sztZjTVHkbLICrIRxPPT6jpSrBKgWiOWz8OjNpWZGEQjZVRnHZgwaFIyAVmAhX51ckk0JmXAsZucDrghKBKZPxoraL5WG8muboFLsbMrzvnbANma+41T9zsyEDlJjgtliFi9Cv8GBHkuHRmDOVSF8FT1bW625SKYbzebXVi3kqUBEJiitTG+sxK3V5TzBji8g4Ne88tBxl1Ks8A3djC5Zu6RJKAChzLABikyW+o8a954dC+gqNwpCtBAti7BqGUycGRxGUFgdH1HSXuI0ooVlkAHyEAGFUFI/MB/hRfIzl1tt0wCjAthZ3i2Mc7R20nQzQKWqiXUaCQrHToIHFvhv8AiP8A864BpCZaEEWm7DfO3Opm4aRRRWCAwGBaKy6RhFogEgICKvT7jVjkJRCmWRsuaTzqmzsbTwSAqCLc5DSsItHQJiEN2BDGenrPDu9Z5dACqIFQNARQxERND15T4bVqnFcdPqOkGRIWE0q2YDgWC7BWFhXz2YE3yJoO46QkAQUbUsGYWHZgJCpMsENkmMYmklzxiklMBtjH8dPuNV8k0tG5SP8AWkJrLJb1CYMLLnRkkgsB1bZbuIkETH86BiQOAJlAxhznnUYCuSQaoanlVXp7zy09ix03Cks43/3TW3rwaYQD4GajGulB8qv96954dB7VybbVBDecamcLIIAcOcYHHT6jpDo1QteUA/8AmlcVAlQCLN8m/XALMvlRo/kYiZHOpsKsPYnQVhcXUIEAzchIXBZ1wMvkTQeHSMuB84IfgM501ZJboNGcBgh8dPuNRa1QKB3HR1BZ4u4sYjEGA40BIT8iMAcGAGDwdPWeHcgUo8sN3a+fPnwIvIIky54GO18+fPhZOrcGOTA39na+fPnysnFuDPJg7e3tfPnz4EDsNC5ccjPa+fPnyKHByWwc7Mfz2vnz58EmJBDduNHY+fPkkxKIbNgp7Xz58+BF5BEmXPAx2vnz58LJ1bgxyYG/s7Xz58+Vk4twZ5MHb29r58+fAgdhoXLjkZ7Xz58+RKUeGmzu9Z5dv1H/AHsGD7j/AJTb3nl2e88O36j/AL2DB9x23rPDu9Z5dLBJG6FnlKwNRQdnhIFmZXLl6fUdIeiSoooJ80hzNABJPKAsQFgpu64FurjSoYK4L86kvq4s4Bhpnd8Gx6iWj9oEFAlKy3rgSDEKBlfGq6XrQKeAq7Xbxp+LSQIWF3UbAq+dfcasgC1tOYBM+V8TJwQ6MiIQK8LkCas8MaMQvkD+Xq2NqWIhYiORRdg86RCa8KJDiGLEMbhqcaQinzCHT3nlrHlAIBg5B3UYGDNA8ZWZImRLyTIszoDQLdk4jyAA5TXvPDoDuhLNGaJBTcjBw6L+yzspWaKqAHhBuvqOkDUvKKinlJRIG+adJQzQIpUFQ8FzoaFm3D0wLjtAVfABuuADK6AYtIBBB8sjbUTbRa4DEWsRlGLlz1wLnS1AG+nlldG+mcAU4caRSvYfyxuApxtven3GolC0IAaMRKUIrlub4cDsbotO7BJ2Majl8mHp6zw7vWeXQscwaGlBOym+kVsktYQ2+VcrirCa+o6SM1sa+BOWD/edSEonZkCHYGzOW9mCDEJJZMrJQCjjO+nOV41vIR/EYAATbrgM45mwZ2P6i6P0vS2doJiuWSZxnX3GoCtutzc8NQmUcYRjPcboldHYzFLip8cIIpFeDD8HVtccTBzgwd15TGOYktBj2x8IxODOisQf/QwG2AD46e88tMvtX5t5s1lDabiM6P8A65gqn7MUXVBDKIFXJYVdte88Oj9uqocKDAI/NNBBjMtJd0jetmELdfUdJq3qDcwLYaB2tSqCpkUxzCNlLBedIoohXLOmDIpmdKNRxXnfPBre2MmDIGt65al2ANlIFDIbg7Jib564HSIkcpDQcIO+kFTQXe03shqhTAokTabKbyu8ZZmSt19xqeVmr+BRH71cZpG2lYQGCwagOXEM/tCBFQcspnGdes8O71nl2/Uf97Bg+4/5Tb3nl2e88O36j/vYMH3Hbes8O5ApV5Kbu18+fPkROSQLhzyM9r58+fKycGYM8GDt7e18+fPhZOjMGODA39na+fPnyIPZakw44GO18+fPgUerlt052Z/jtfPnz5JMCKG7daex8+fBJgVQ2bJR2vnz58iJySBcOeRntfPnz5WTgzBngwdvb2vnz58LJ0ZgxwYG/s7Xz58+RB7LUmHHAx2vnz58iUq8ENnd6zy6Gk9iJgCoZRummtNYVfh/7U6fUajebTgfK6W1hhsQA5oBZoEPp7zBYPA4TjrgEsVCAGmJheILcskd8XfaKQc2eDIQhjcht/HXAAZRJYBXV2vMEjkwSlUS7afXtFIq4CUkMdt+n3Gp6BWFkyhMtAtc4w6xbEX4pIrDnfGqrEqPNM7xvhd/46toGsjeGQgLud0C6SKVYW5vQYa74zrALbNlAUojsp8vT3nlpzGEFYV3AAKqh/Yax8ykQqLgEq7JnOhIzJCJvhT+bjbbXvPDok6gowC7mDCHK/hiCDnVIp4UJEDzv0+o6Sf5RRVcVkwpX5NGPq2gUMizO3J1wL0GAMOApl/OnBpRapQDIsMzKaT6zLMADIom9E264PkceIVn9aUrBugFxZschog5s8GQhDG5Db+On3Gpd6GMAZXS6fnxUESQRgU430+vaKRVwEpIY7b9PWeHd6zy6UafG2RvgoVMm+CoDb8CryAA+bFT4NfUamj7uFHTilgaxU/gr/GtqTMDQGFBFm3VgV7Qug4RHQ/lrFM4uLLq/KegphUtccIbY64C5MJLA/GqPxjLkjtYcMObo+LFVBj5RbMcsY6fcauN/wBueqLzBlSYKiOEkyYgkyIIOGZNJyJkAYM80ZcmeerbCgoqAZXCFlQxmdb1wSiUebdgpTcNMtBchjB8KkeTPT3nlrBiEhAUySsyiKTkEKjD16SIgiMFCQ08WqW7cJUmBV8XGveeHTD1hOAgJqMi1t3JTwJOOf3MCTBHOOn1HSFYUNAeFcqrVY4BXVzIwrR4MMgY0kwDE7B56YCOs0siVeMMM5aFIMRnFCcy0yYFztkWg8IYoJS0p564IYC4N2ZPBV5lg6qemK2iBEqOIGNrflPQUwqWuOENsdPuNRCUC8pA/nWTiR5rNUeYGDhwPixVQY+UWzHLGOnrPDu9Z5dv1H/ewYPuP+U2955dnvPDt+o/72DB9x23rPDuQRrkgxlc9owYMGIhQCFqbJxbPPaMGDBlADCiyuBHbz7v2DBgwZQKwgEjkV38e7dgwYMGApRSAobLzbfHaMGDBgLlwwsYDfxP/naMGDBgxKVCFqoX2DBgxYtKlAxFJ7RgwYMRCgELU2Ti2ee0YMGDKAGFFlcCO3n3fsGDBgygVhAJHIrv4927BgwYMBSikBQ2Xm2+O0YMGDEMaYItZHPd6zy7fqP+9gwfcf8AKbe88uz3nh2/Uf8AewYPuO29Z4d3rPLpIgkCzB2IyDRwN0gCCJic9PqNVAe3h3XksEuDxzohH1QZgmFisfNWholpoRwZeuB+GUGZEm4khsJc4m8CX+6QIra/BtTL8AKx9t+uCjbSEObCNomTODYHRMjGmcuzWFckM1F9/gYHCdHFdU9zIaLhRMkRmFTslWgOg8ViINh4hrXL56miKeDjWeBNrEIVWLQAxu08Ja5cpvVwpExOqjiIvALUzGci6KVJoOQje6bHAShoEMzxXAGFNe88NCFGNKbzBgkOVDm65RyxeLYxcwgyx0JSZgXLkkQBJvzTp9RqNuozawrxBHC52dbMZAo3MZdoIYWleFbCUf5oAcEnHXAM+KA6b5xUocK7AsiUGrPyFEzr7npQXrgyn5kBuqdkEjxpiGKaFgMoc5puZgx/TwWhtIyITIx0+41PfoIA7iO5oOSClwChsWaM+R0dBNoGpm1lLkuej1nh3es8ug3fJXwNyAxQB5tbtt0+o1KuU5CkgNHGXx+dYYSQGNr7kg5ctdM2giRfkwD+g64CkllAod4cUL8aOSJ2CEMkMxUM5wQhAh2BA64IJg6JywC5GUxtjTiQLIEXAr+nxpgFELzOh2RSwgI/3qlYWNVZBVJWpzldJMI3oJiCsxUs56kyAETc1Ou+OqCIggKGB/BoVXdcY1AUABA4CHX3nlovpEUVmbPG0mt5RHfyFDgLg2nT3nh0HUaMOGomKIkY3ShTirDQQADYA5d1en1GppxAhtlhLvuIlEboI2g5KsBAVkDdXfUZYJkMLAYh3ueeuDC4q0+QoeRJJ4NBUcZRFqDyIZi4NEoDA8B1wMOZMUY+EyPhMmmQdIXO5UxVrgzjTd6L56LyDItcb9PuOkuDjSCBkoqYxjnOlBKQzkOULa25Lvc3XrPDuQKUeWG7tfPnz4EXkESZc8DHa+fPnwsnVuDHJgb+ztfPnz5WTi3Bnkwdvb2vnz58CB2GhcuORntfPnz5FDg5LYOdmP57Xz58+CTEghu3GjsfPnySYlENmwU9r58+fAi8giTLngY7Xz58+Fk6twY5MDf2dr58+fKycW4M8mDt7e18+fPgQOw0LlxyM9r58+fIlKPDTZ3es8u36j/vYMH3H/Kbe88uz3nh2/Uf97Bg+47b1nh3es8um6DhBG257Zv8eLfQQWxPlgeYvJ0+o1SSbY34A0S4BzOdyO9mNJBGgSgs8IqYm3F64C0ghrDMrwbvMMXU/c2cATaVuQ5iTGgKX005CFL4GDau/XA4dKPiYKwfnSpjd4ZmZCZyG2kzYGB3BheAyNs419xqFWjsabFLOVTANlcH9V9KDHjMVyaEqFqKuFOCct3+OrYmd1SIKfAwq8AvGj3QduhAFLcbAMuxo+ezWBNKg+FY0zL0955as9540KuV/rfjSMD4DVcAqEkWrsTQCIL6oKFTAwrEcuveeHRRziZs4DAmU8tYTgDaxiEElU3Fxr6jpA/ssbkoRCgGjwumoVGQwWAqgSVOKPXA9qxDI5wT71kw5UxVwwKZU2TO6yMVAZAd1ybCdcCKjLJ5zQji8P520ezgKKi0UQuTMcOpHrtyw28Qv4Hnp9xq/OkigsNNGwMDuDC8BkbZw5sPjlSMzNhjMuydPWeHd6zy6VoAaFJGSgZnOoOjy/B0+o6ToIRjKkDKNFoXW0P7rDXKNGMELOXpg4wIB2MoEN3OiGAWmNyQVhPKqquJ5FGTnDjKMzrgSk+zeIVg/OsiecfUxgXeVcvwac+MpgZGBgj8ZZr7jVJmIEDQozP8icjhhurTKSAnJm1Mmp+QvQRT+BNsW9WxmdrhyWQLgUTB+dPioYBG0g4Es3axpkdJkt8r6rVatXy6955aMlLGKiMFZgdwXy6tguR7KRMhbkBTAHKOZgKUa0rXLu7vvPDowHAYsD4jZ2OVmmngpU6RTfhAxkZmvqOkSND/AKwoI2hDtkZk9rxQjMxQqlEDBqClCErz0wUpouGHDON5vodKeDHJ+AL83QIWq3bMQMAzXODrgUBBit3UwfEGSzim686x6ABCUUoyh+Dp9xq+Wm2KP4GawNJwAAT3LCPxlilLuksdMAQgZYqYNes8O71nl2/Uf97Bg+4/5Tb3nl2e88O36j/vYMH3Hbes8O5ApV5Kbu18+fPkROSQLhzyM9r58+fKycGYM8GDt7e18+fPhZOjMGODA39na+fPnyIPZakw44GO18+fPgUerlt052Z/jtfPnz5JMCKG7daex8+fBJgVQ2bJR2vnz58iJySBcOeRntfPnz5WTgzBngwdvb2vnz58LJ0ZgxwYG/s7Xz58+RB7LUmHHAx2vnz58iUq8ENnd6zy6AMQCouVgAZVUAMrpqrJP5YMGIlMmen1HSqQlPgF5nxrEm0SNxMhjGRj1wLhAzAGh1BFmtqBPkJomcMTsuTtWONz+TrgU6B6AMq6uPpK4kvxU+dEPjxJ6kHbNGTydPuNSFysYBojjiqkYdAJWYuhfjwye3q2eNN6AZV0mHIctS4E8CuMGXQDEIIJkYiORERHI9PeeWi0hItigCrgeONJLO+IoAM/Cukb1BFW4Ar4Qde88OhN42D7DiXSKsmMmrSIsVlYT/3t/fT6jpLyvwtcBpWRFG4ui50dhCAJcmEb9cHFlIwaVJgAUmFNlmYzxdQgRcuwJHhk+euBnXmYAqusMj/JnaR2OGMOdArmbQtgL8hT56fcahCNQgBy6z0VYVZY28ZoyZzoh+IWtgGQykyeenrPDu9Z5dDj/E5ArnYlLQpaBxESlTBagUtVA426fUajJgiO5pRRt7ZZRwwvwazDr1AYCOCEp+XXBKeNSJoRb4QnzOdXb5kjoCGYhozKKBFFTBYufLVxdnYl6YFA/KSNwGktI6AcZoxkKhEbAkmXVIDc0CAbgieVXaLr7jU5gXyTaLvhDVH5ZxCu0YJFM4Fs3mYPK5DhcE+Ora42JCbgKnCluDyanaxCzAhXAmQEzjVBnOxEDgsSsRKyuveeWjvdIMJAFASUbmGHTgWW2zQTHl4U2uNXWxxaLLIVqQMDGNe88OmHslpYUm6AAymKpurFC8pckgxLua+o6Wyvy+Q38T8gtEmLkkAyZIgG5u4ARDgR8HTAB8qmxf8ALgTmTFuhEklM2JhIjVPEzIBZTa3f9T1wBHTZYUZIwLVjg1KnBEKRW6KVI9EZtOUkHcJoMiZ6fcaneYiSYoMs8c7adIlfg7XJhyzzjScSfiIbgDyC1cunrPDu9Z5dADlEA8I4dZQ3uQeYA6fUdIIiGAW55Lzd9IURpYfMB1wKPURpmlGnjSVhomDxQYwaJGQSAWC7sr/b1wIIiEkzzoPey1PgGf51Vcec4jADsp/PT7jUGtUCgdxNTDcTWIUIYxjQnJhwPAHVsgggiRHnQLhCWG0RCfjQByiAeAMHT3nlpuiBXJNsNNLFNguU8YSfxrady/4gY17zw6CgqHCeMLz5082ahxiRdmKU8vT6jpDgAcwLBd0K/i6TuBQDuqmXOiRgIAYDpgE7MOg8I6+0iEsCOnUbAC8oDrgZGAiJhNM0TCnHIC63My5g+YL0+46SKhpd+YC76brn9wgC7u/T1nh3Aa0yUKyuO0YMGDAUogSUN05tnjtGDBgyAFpVJHABv5927BgwYMgEaRGVyCbePd+wYMGDEQoIQ1N14tvntGDBgxEy4Y2MDt4n/wB7RgwYMWrSJQNUGewYMGDUpEIWILfaMGDBgKUQJKG6c2zx2jBgwZAC0qkjgA38+7dgwYMGQCNIjK5BNvHu/YMGDBiIUEIam68W3z2jBgwYArXBUjI47vWeXb9R/wB7Bg+4/wCU2955dnvPDt+o/wC9gwfcdt6zw7vWeXRAd7LdwMiwiQVpLqosFSzAi4sa5i4hr6jVckURlh+ZnV7XTgADigDkaBAiLdFNyELijNnrgMy2C25QeZY8OcyascUaKC3U2A87Lk20tctlNlhnk89cAGEhzxjIWeLp83heHOVu4VjVwHOFyZ2iruB2xjX3Gq4iFFkP9g/JXZaPDpABhH8JpnOp0Fj3BjQo3fjE6tsylQnBAZnEi+e2nD2IPM5CcMoqBjdB2QoR8rv0955aT85Kc48iy+Bc6sJW1DY0iIEUQFtXFSyo40+RnyGbr3nh0VM61gQKQ2tsEJiNy6U15h0ELhaYmvqOkmRlYhY8OXgKTRzik0Gj4KIGOVcB0wVlm5aAfEpeN+Nc7LhKzk4OUE4aaGM+00kVYmCwTbPXA+JJAsQJHJQw5NRS+ij9dTkXKYFzYSxLOBGpQQMMOdfcagwqStmQ8Itd/wAaRk1FoiosDBxV0HLN48TuAZd9vGk1NqCGWmPzMXXrPDu9Z5dC49BpSyhTZKU5NQ+Hh4pQQFWVauen1HSPwbwyKKwIu1PGhrZL7mBKu5eDbrg5QhG8kozLM4301lmUFraTlaVXfQLw3mggrKq79cG9pC+42GyaiMJoQJeAJiGXHiEEIVQatwYBlxtNfcakhv29iCKXFpnVtMTWRVKsW5ZW6aOqxLLTjKw4OranQmBBwYkw3Fd7p9N521MhmUC7Bl309uEG8pguXHLt0955ac8xaSFAUcOA0M8LNJzWnnMiDIS3fSG4eU4UowAbq/OveeHTjsRc2FuapsaGidRvHEg2uKuVYTX1HSYA5yuZlAflCsdoQ8QPCcsTnc7bdcDmyTQCJ+TETkpqGoWqejsOqr8ax8DBdVwpV3bMGOuBAd6YcK0qb6Nu1ygkS2YYNIdGGmpI0TRoeAz0+41clN8LhKeJvonnk45JCSPIjdtSYGVIGB0t5nbQuZbvoJjyq69Z4dyDgIFVVr2z9a9s/WvbP1r2z9aFDpAlWsMZYP8AWvbP1r2z9a9s/WvbP1oSDBKyFWT5P717Z+te2frXtn617Z+tKA6IWBiyfD/WvbP1r2z9a9s/WvbP1oUesA0axxhif3r2z9a9s/WvbP1r2z9aETlQ2QE28ia9s/WvbP1r2z9a9s/Wkc8hCKztr2z9a9s/WvbP1oHPIQAM7a9s/WvbP1r2z9a9s/WhQ6QJVrDGWD/WvbP1r2z9a9s/WvbP1oSDBKyFWT5P717Z+te2frXtn617Z+tKA6IWBiyfD/WvbP1r2z9a9s/WvbP1oUesA0axxhif3r2z9a9s/WvbP1r2z9aQchIiIO71nl2/Uf8AewYPuP8AlNveeXZ7zw7fqP8AvYMH3Hbes8O71nlpMwg0SqAAVVUAOdREO+IhweRYMzLy+uHO2qiRgyGR/PT6jU1ABuQArwLVcALrjWC4otDFG4bl1OWgqECJMLET++uCy8hLhUaCBWoMF8ZSrWEk8wGUZC+K6kXkKf8AvrgPLRGQQrmMAFWYDXA+3ZSCx8B5dG6NwiFj8m3T7jU04tiDW11Mxph4pYw5EqITztNJRDlVaz4V+Tq2RXiGbgIbBFV/KWWQKeU9MqGQHGlZWqz2MwpsjCiMOnvPLTAZFRMbTJ5u0+bhWJGCyEhipkuMZ0b5IcQAwKKBhr3nh0q3yAmSdmHLlzNNbd8yJGBRFhgs6fUdIVI4orFghTehww2roykVRCiALaZl0BIKKJz0wAg7CSqMJcMDP40fHfPVLo0IcozLppatSg4AVjlGZpYoaeRKdMBaWHHEZIZsN1Pyj0n9oKEEMuDd4JUh+hIPwOG5jbOdO25t3AudOMLh4DVjOiKRjwXOJy+DWVedwKa5hiNy7Uc5mt4KbiA4RvnHT1nh3es8ujORn0cobAG5tdBNms4sAjAKGz0+o1Rc0MOs4HBus287aKxLTt2aBgbqq76wcPbZwSAcpleZ1wDhyCyERGCMUyPCGCRRIlZTMOYZt04YspyEf/XXBdvFK2AGWZrYRmRHSzt6dFkqzfJrfc497L/Czp9xqqugYwLILBJ4mMUIie5CEvhsYkfOp6L3BKfmi+Hq2nu+MoIFwGzGvkBbuH4kEZcShEIwuXB6soZKBjkvT3nlpsq2RA4/hK8TSmrY0SEqDlBQzNBBUmW1KJXAgzXvPDolWJa5FfxlXefDRGf71Z3M0aKNJHHT6jpS+hwWV+b4d4O5VVFDmIMBVGPN1nGxvzCdMG8IIo6qbG2dJGyaaghU5ARt31DZ0HlBO65BG3SqVi+UD9dMCxiyUILHAVXg1vuCVRCw8Ar4DQ87UzhkbyhYZc40DYEF2Ap/d19xqYdJ98AJuuMc6DP2YRYImMiYKbsFSgIkoKyrRDfJ09Z4d3rPLt+o/wC9gwfcf8pt7zy7PeeHb9R/3sGD7jtvWeHcgVAHVs5dqtWrVwCAUIcF8M/XarVq1aIABiDyO64++1WrVqwUAjUDkN1z9dqtWrV0CgQYcE8MffarVq1dFyWuC4MbSztVq1atlEC0HLODnsVq1bKJEoGGcvParVq1cAgFCHBfDP12q1atWiAAYg8juuPvtVq1asFAI1A5Ddc/XarVq1dAoEGHBPDH32q1atWhUAXBsYd3rPLojO0gAGJjkSTh0jO0gAGJjkSTh6fUajebTgfK6+4KFsGGkII0MPip64G65/UIUu5tpuuf1CFLubdmCQ8iAHKu2o7pX3SqxPnQJBCiO/T7jU6BIyEbyjX3kX6Bjztqmx5kzGCjkTq2bogEyXbLDQN9BFgdmmaAOUQDyJh6e88tcs7w3LKLKX86SKqYVsVqyxMfOmVLCC8KnXvPDokEbIzJ5yv1oz1gQjyVfrp9R0gs+AAPirw8a+91ZCNeuDZ4EopsF5+NAJXBUoF5XE51yecVWYKLnx1wA2sIBTAzyrNb1ZZPxousx4Caiwy+WB0+41TWFEabU4vGjl5QWfiFm3OvwX/ccBZz09Z4d3rPLSKVNhhFIyXZmY4TfU/9NywZMghGZjhN9HmIzYAQ6fUajgVDRkHIwIUcPOinuqSAc5uQDcZEZoS5PQhUfONZhdk64LhpT5VsOZQKFaulodPvbcJjQKFbdbjFiYiX589cFgnjDo0DGtQY8rj4GQKouHDWixcKk2YYKxyAn8nT7jUCL8K/woEeTh0g0hAJYEcYYmGdc1QAgfgcvjbO/VsQ2OwsQQBGyCfhDplAKErDnDINzQuCgspESYYUqDTPT3nloEsB+Z/aQ0jSi7ySv5fuGn3kC3zP7tvABxr3nh0MOvOAoRmCDDnPIin4xEPxIQQIM2UB19R0nP8AVUFCGcIK2yOGoCix4ywyIFvkW6TWryPMz0wYvG6xy8GcV3xppF0dpXYrZd4cZ0i8Co2pD8VX5dVqyIZo399MC3Y5m5h5BlbjBK3NwQVQCjcgwn5Yadn+KoF5S5K2GDdupUhKmTxaUxG8FHMETlWk+NRNZmLpAID5HNaUNApdjZled87YBszXrPDu9Z5dGdGulKTK7qumdGulKTK7qvT6jVdEAQRplDvnfQ/VhM1TcmfGivJQGfgEfx1wKhSpBtgIOXFGXy6OTQQh2aCzAICnLoNagEAbAdcFCy1tBEpH+tWKlUKySjdvm6NeDBdg6fcagmijkt8AbYsvGn8RnzpQNDCly51bQsHy1fytV3VvVtViKPdmsF5jnQeRHcrBCm02tbbqtROSSNVFVWqqr0955aivzphkwmyDNtOaN1qS2E2B6e88OiU8xmwNvmo3K530sMQ5DyBq2apoPHT6jpIBHY9mRkhFFwZxpG4gCSIkUxEKQ8HXAm7MzGUDh+XDjW+0CDJGE2ZjbRkkiQsgAd8B8aAAAAwBt0wTUjKgyYTZD41wPJmQIZP3nRjLYkSRbUQcren3GoUtFRAgEcbYxvrEMk8iEoYYjE0kueMUkpgNsY/jp6zw7gIoCatjLtVq1auAQApDkvhj77VatWrBQCsQOB3XP12q1atWiABag8BuuPvtVq1augUALDknhn67VatWrouCxyTJjay9qtWrVsolWgZYw89itWrZRClBwxk57VatWrgEAKQ5L4Y++1WrVqwUArEDgd1z9dqtWrVogAWoPAbrj77VatWroFACw5J4Z+u1WrVqwAgAYNnDu9Z5dv1H/ewYPuP+U2955dnvPDt+o/72DB9x23rPDu9Z5aDBigBQpWG8LDFcU30YLQTjeRMoF2GCYRk0uQRskDGVjFxDX1GrORcAEIywpS8W6MjJaa0NVMhUF4zpGgejslvCz53cvXBb5JQMXMgsrgCc5U9q3B4JHY4vJoyy3v0MZS7zi9cDI2J5NKDZzHgF4tWqHsUocDyCVk0jDLRAVEx/WOn3GpbKMnYGcOAXgzQ2qrWQIm4kGLl8acioegqfmBfO/VsM+BQFQhUsC3fSTRIRAh5bAucK71jH/lBENNlykXp7zy0kPCsvg5dx3z4uq/E1NfATV4IciqZrfZb8bENgxr3nh0rWDOiRM8uXkblDWDhHwFMxCuQ3mzX1GoMGKAFClYbwsMVxTfWMkYQVB8CE24kNN8tqcHClgVa4yhrO6ZNUWbnYuKRg6YAkmCYqPwYMG/PjR4OQlGTRJ2JGSVYYVZRUIGdgJCaFSMTwg/vpgEsQ9iiThM2y5GGF8KqQBRcDNiZnfTgMXFGlM1ACJsRugQKoCSHD58Y1tJboxebVd7SLkgrjP5edXKupIAR5lPIu6afF5qhNDzAvhZx09Z4d3rPLpM/dpVkRjYIqHFwcZqiC+a4nj+en1GpTyAyVMgUy7W0+9QDoojPlmuXMuXOdHY4KHJm5R4ZdueuAnpphkmzNN6BQZvc/9kSoMQ2laYMeUrBBagQ64F99G88GGkJk21TOAsRKifMnxopeT/OLPOen3GpM1WqYFCUbEeXfhxNEBmqGGYjjbJrClPxTk+VY4OrbwHXUg3EyZZ22040TxlyzHyjzTGl2yYhBDc983+MZ17zy0vls7hAAjYbBJ+TT1QRg8QgKVcZXRUKQ2RBC7EHwG22veeHQrfrQg29gEyTFmmhMWk4EAoWpyiYmvqOkoaly5NqwHDkp41lG8FoJQLS5XiGmydUIUAktsq/jpgtv6Tocib75220LPdg/IBWaizBC3F17JDd3dARkhvmjFDDwBDpg/kjFYHc3kvHzoymWMZgzVzuMKadIfpJFRrnKY4m6QIEcZ8JR/br7jVnhM2BjNpUuxoWeVkQnhqAcbG/GhhcHJIA2UpjY346es8O71nl2/Uf97Bg+4/5Tb3nl2e88O36j/vYMH3Hbes8P/wClhZnFOHFCmyZ30ADl2rmP4RojkSdXYhRFIgaSHCCi5gxkxFLVGYDFeXGny8PAkg5aMcDrJclMT/IliZdXFDS5JALhUoCuNJDCW+RYBlMMiRFEdZ4t5mSoIDvWEzKXSgAGVUD5XY0kMJb5FgGUwyJEUR6LvHJNgzrI3TkaqIJRNwehDQBlQA8GIzwjz0YbMUMVVdg0gEcP/ihNFA5PcA4FqY2MNbtmkVKgpzmGkDfuCRJCKpGW8hSukUoZOkNM7ezp6d2XYMACQgrAqnQszCNIqFNUcUgL4XY1SO0ApZlkLsytmZwqGjKu/nQHhZAKtitgPIMad2zsW6RahSs2umVyugRBH8jhzRzptjEGUpG4aZhCYd8i6X1AkuFjDxjTb+mQgAjUCJ2mBkCjsWwnkmRAbLSI5DHoKLKCOSIKg2wdzCcBK58CSBn2HBG8iRIaHpsPM0JiUAMql03zF2CLsAEEOyNBkj4EVLqi5KmWAH4vVoaTGJlJLIFomgTaCQhaAUsUppVqxcUVvyqvn/xju6WECNi8rV/jVFp+7ajMF81XJcQ3SZD+WGzpLIB1xMOFsBVVXuUs22W1ZLaOZOP/ANF//9k=;" vertex="1" parent="7">
                    <mxGeometry x="520" y="40" width="216.75" height="210" as="geometry"/>
                </mxCell>
            </root>
        </mxGraphModel>
    </diagram>
</mxfile>